<mxfile host="65bd71144e">
    <diagram id="HIP3nbAZw_EuaXWnEj3U" name="Page-1">
        <mxGraphModel dx="1091" dy="683" grid="1" gridSize="10" guides="1" tooltips="1" connect="1" arrows="1" fold="1" page="1" pageScale="1" pageWidth="850" pageHeight="1100" math="0" shadow="0">
            <root>
                <mxCell id="0"/>
                <mxCell id="1" parent="0"/>
                <mxCell id="7" value="http://icd2o.mths.ca" style="swimlane;whiteSpace=wrap;html=1;" parent="1" vertex="1">
                    <mxGeometry x="40" y="40" width="996" height="685" as="geometry"/>
                </mxCell>
                <mxCell id="8" value="" style="shape=image;verticalLabelPosition=bottom;labelBackgroundColor=default;verticalAlign=top;aspect=fixed;imageAspect=0;image=data:image/png,iVBORw0KGgoAAAANSUhEUgAAA54AAAK3CAIAAABiOQf6AAAAA3NCSVQICAjb4U/gAAAgAElEQVR4nOzdZXgTWRsG4DORpg4FirsUpziLu7sti9uHy+KLu7u7Le4s7u5e3KHFCsVaamma5Hw/kkzGkqZtauG5r73YdOTMmUmgT945M8NQSgkAAAAAQMonS+oOAAAAAADYB6ItAAAAADgIRFsAAAAAcBCItgAAAADgIBBtAQAAAMBBINoCAAAAgINAtAUAAAAAB4FoCwAAAAAOAtEWAAAAABwEoi0AAAAAOAhEWwAAAABwEIi2AAAAAOAgEG0BAAAAwEEo4raa/vk6+/YDAAAAACAGrllk2epZmR/HaEuer43jigAAAAAAceNdliRItCVEVm0r8cwd59UBAAAAAGyl1+oPV45xKYy1BQAAAAAHgWgLAAAAAA4C0RYAAAAAHASiLQAAAAA4CERbAAAAAHAQiLYAAAAA4CAQbQEAAADAQSDaAgAAAICDQLQFAAAAAAeBaAsAAAAADgLRFgAAAAAcBKItAAAAADgIRFsAAAAAcBCItgAAAADgIBBtAQAAAMBBINoCAAAAgINAtAUAAAAAB4FoCwAAAAAOAtEWAAAAABwEoi0AAAAAOAhEWwAAAABwEIi2AAAAAOAgEG0BAAAAwEEg2gIAAACAg0C0BQAAAAAHgWgLAAAAAA4C0RYAAAAAHASiLQAAAAA4CERbAAAAAHAQiLYAAAAA4CAUSd0BAACA5Cs0LPTSxYtqdWT16jW9vLySujsAEANEWwBwECEhIf7+b758CfItXtzTw9PFxSWpewQp3sKF8zZsXJ/alcgYZvKUCbVq1Z07Z35SdwoArEG0BYAU78LF8+PGjQ4JCcmamsngyQx/pyeEFMhfYMWK1WnSpE3q3kFKtWfPrq1b1p8Z7p7GQ0YICVXrq0w/sW/fnhYtWsWqnQ8f3k+aNCEqKoo7sWOnLrVr1bZndwGAEEIIQymNw2r6g+Vl1bYSz9x27xCAA/v+/XuNmlUkZ92980AulydyfxzDipXL1q5ePqu1c43CTtzpMw9F7LylnT17Xt069ZKkY5TS4iWKxLMRhUJx5/Z9u/QHYoVSWr1G5VV/ReXLZK4Bvfuma7o4/L7f41g11bJl02yKt8Wy8f6CLzqtiW07AL87vVZ/uDLxLisrv8jKUqjaAiSeNWtW1i4on93WTTC90tRfBw8daN6sRZL0KkV78uTJypXLr4zxcFUxglkjG7v2qamvOWpEUkXbx48fZ0/DHBjkEZ9GSoz/Za/+QGz9/PkzXyZP7pSMqeNy7XW0NrpSQUWLsiruxEWnNfHqHABYgDskACSe7Tu2DazrLJ4+r43z8uVLEr8/DqBtu9Zz/3QW51qDyfsiGzRolMhdAgem0yd1DwAgJoi2AInk0qWLqV1I1jQSow7K5XMKCgrS6/FrM3bef3gvZ0jNIk6ScymlZ1/ounbpnsi9AsfAMIyvb/H5RyO4E0880Li5Cc+6AECygmgLkEiWr1jSsbzS0tz6ReV/D+qfmP1xANeuXlWJjujnYF3/TeHzjkbefqslhOTJkycJegYOYcH8xZuvaxccizT8uOGCetLBqB3bdydtrwDAOkRbgMRAKX3y5Em3ahZvR9W7uurq1SvxLNxGRETEuExoaGh8thIVFRUeHh7n1W0RGhpq4+Wtr9+8qpCbVwWnlDZdFJ6uUJNrX3P03Bi5dOnK+PQkKkptyyFNPqKjo60vEB4eplar478hSmloaGh8Wojn5zA+9Hq9jZ1Pmzbtlcs3LgZmLTH+V4nxv/Y9S3/gv8PZs+ewvpZWq03ovyMAYAUuIwNIDMuWLSmV3do3yezpFFptxJ07t8uUKSu5wPkL5xYvXsidkjFDhuXLVxNCzp07M3vOrC9fPut0uvTp0586eU6wbtDXoBEjhr558zokJMQwxdXVNV0675H/jKpYsXKMnX/67MmsWdPfvvUPCQmh1BhH0qRJU7x4yVkz5zg5SY8HiBU/P78pUycGBn5iM4Gbm7u3t/fsWXPz5y8gXn7fvr1btm76+jWoRm7eKFtKiEZHHj1+SAjJni27TqeNbU8uX760eMnCz58Df/36ZUjYcrk8jVeaatWqjx07IVZNFShQ4MNPWmeORIrK4Mls7uXOndJzfbj/d2tRb8jQv/39/dkfVSrVlMnT8ubNRwgZMKCv3/17v379Yhjm/LnLqVOn5q548OCBdevXfP36NTw8zDBFoVCkSZP2rzZ/de/eU3Jb69avOXLkMHfKsGH/VChfITw8fMDAfi9ePGOjoZdXGl/f4gsXLGYY6eHOXB8+vB89+p+3/m9//TJeG+fq6urt7T1xwpSSJUuJlz927OiatatibJbrjz/+GDF8lOSse/fuTpg47tu3r9zPWJYsWWbNnJM7t3RpPywsbMLEsXK5PFeu3Hq9TqFQjhw1YsXy1ZIPbnj48MHoMf8EBQUZvjzI5XJvb++ePfu0jOWdwgAgnnDzL4DE4Fu88IZuLsVzWhyQQAg57he14laGQ4eOiWeFh4dXqFj2z7K81e/661wzFg0I8KdRIT2rOjUr7eQkZ8pODuXeUSjgXUDHjm1DQkJalFK2Kq0smMX4bfbDd92pR9rN16LUepcVK1aVKCERLH78+DFv/uzDhw+lcSVVCiibl1AUyKJwUhgTzJ030Vuva84909WuXXf6tJlxDrjXb1zr16+3i1zbopSyRWmn7OmMVVj/r7qt1zSnH0eHa5WLFi6tWLESdy3f4oUNR8M3q7xBcfOm9ZTOOmKuSu66GW3j/ZXevQuYP3/uufNn86aXVfFR1Cgkz59JoZAzhJCIKP3tN9qdN6Ovvta1aNFywvjJtu/dr18hfvf9BBNv3rhx5vCmI0N4d05ovTSsWadhOXLkFCxculQZV1fXLl07uobez5LG/O1Ipyd7b0e3a9th2/YtNQrIe1ZT5c+smH4gwqVwh6FDhhNCHj58MGv2jIcPH/hkkFXNr2jgq8zpbTy2YWr95efabdc1Dz/qhwwe2rlzN+4Wj584tmjG8Eo+vMLHrpvRVatWu3TxfN0iiq6VnAz3w9LpqZ+/dtt1zdlnuiZNmk2ZPM3ScXj58kXnLh2i1eHNSylblFT6ZDY2/vGH7sj96B03ND8jyJbN24sWLcZdi32XbXfhqXbs9OVVKvNusXfq9IkRI4Z5uejrF1O2LmP+jAV81e2+pTlwN5oq3RYvXla6VBlBa02aNizk+cHDxZza1Rpy0E/4oXr16mX7Dn+5yNSdK6jqFVNkSC0nhERE6S88i159XvMhRO7p6dmvQrjgDgklxv/Czb8AYgc3/wJIJh48uE8IsZ5rCSHVCzuN2veOUiougIWFhTEMGdWIN55h1pHIHTfu/13LqUsV4/2JorW8b6o7d26fPmPqkNpOHSvzbmBECMmaVt61qrxrVdWdN9ouXTsNHDioe7ce3AXGjR998OCBUtlktyd6yGUSBblSuZWlcisJITVnnChT9oTfvUe21O24KKXNWzR5+/bNv91di+VwFczN6S0f08RlTBOX11+0rfr1Kly46NYt27mbEBwNAxnDcKfvuhnDCXqDTp3b37/v17qU8t5k4YEihLiqZFUKOlUp6KTV0QpT9l66dOn0KWFd3BJPz1RVKlcVTPz44aPkwmnTpBUvbBAREd6xlLI658a9UdF07+3ovbu33JnoIRO9Qb7FCxNCBtRw2iS1R+7Osnq+TvV8ndTRtPyUefMXzPe795A9tp8+ffTJIBMc3l03o1/5XbgzideaXMawH4N6cw5UqXruwvkr4o/Bps0b582bM6WZqlFJYWeypJH3rC7vWd35ztvoDh3bDh0yvFOnLtwFJN9lK95/DQ/68oX9kVLapGnDd+8Cjg1xy5haeAVnDm/5sAYuwxq43HkT3b17l4oVKy1bupLb//Dw8F5NVDm8zSt+C9Uf9ON9qG7evNGjZ7fRDVWty/H2zlUlq++rqu+revxB22H1D0J4uRYAEg7G2gIkuDVrVrUvK/wa6f9VeK5cpWSKZJbNmjXd9pbHNFJ1qSJxNzFCyL//rp85c+qBgW4dK0svYFAqt+L4ULfFixdeuXKZO/3kyRPbermu7eEumWu5zozyrFlQXqduzdieAmrVuvnPwDdXx3gUy2HtO3aeDIqrYz0ivzxq0bJprNq3kU6nu3/f78oY99FNY0hRCjlzc6JnWvm39h3aJERPYstFSa6Mlci1ERERMobcnODRrZq1t54Q4qxkbo73kDF07rzZ1pcslV12eKi1G/QeH+6R2zO0UeP6gukbNq6bN2/O4cFujUpay3alcikP/e02b/6cq1evWO9JrDRt1jCV9v3N8R7iXMvbem7lhVHufrcut233Z6zaf/XqVY+e3dZ3c2ldzuLeFc6qOD4UN1UASDyItgAJ7uKlC8MaCauSi09G7b4eJZg4oZnz4SOHbcyIRTLLWpWV/oUaGvpr/oJ5V8Z6sOderciQSr61l2vffr24DwKtXLnKghO2Xm80t61bRMiX3bt32rg8IaRbt85hQS/PjfZ0sXBLWi4XJ2bvQI+QL68HDuxn+yZsJJfLy/9RfszuSBuX397X/dGjR35+wmEGiW/vADfJLx6urq4KpdOJBzZVrJUK5s4kz61bNkVEWLvyae3/3K3MNS7T3S3ix/sNG9exU54/f7Z40fwrYzyyeMX8OcyaVr6lh0ufvj01Gvs8y6BDx7ay8HebersrFTF/xjxdZBfHeHwOeDJu/Bgb29fpdC1bNZ3R0rlETCdkMqSSt7DwVxUA7A7RFiBh/fvvhnzeEr9Zzz3XLT8njLZ5MypCQ399+/bVlpYblrD4y7J+g7pD6jg5K20dIVAoi6JkNtnIUcPZKXPnLLjlL7yq6d03XXC49KVOKzu7Tps+xcbN+fndu3P39v6/Y/eYrhPDPS5cPP/o0cNYrWWLOXMWXHypi4rmfaP48EP3K0J6Zxe1de7Xv5fduxErKiWTyXIlcu+e/yb+J/xm8u6bTquV/tbUpqyyfYe28eySTMZs7+O2ePFCrdZ4RqJnz+4jGzhZeqCGWOFsyjzezISJY+Pch3ANdXZWEUKuXb/68OGDPf1jTuQsGcMcGuxx8OB/Hz9KjxgRWL16pacLqedrh8soAcCOMNYWIGGt37B2VC1hBr3xMjpdOu9v374G/tRl4he0eldTDhjYd8f2PbZv4kFA9IpzmutvdISQjBkzPnr0MDT0V8dKwnGNweH6FWeidt2OTudG2pd3EoxkWNfDvcT4M9wpzZu3aLd8/9rubluualaf1+go8fJKo1ZHRkaGVc8vn9PWlVsyLJxVwRDy/PkzyRsaCHTu0mF1ZxdB8o7W0SUn1ZuvGWuNf5ZW/tPImXu2XS5jJjZV/a9H1+vXbhPTE2ibFVdMaGGuiOspLTUh1jel8vDwKFS46KqzzzpVUq29ELX1ejQhJHVqL7U6Uq1Wty2rHMEf8Vk+nzIsLFSv18tkSV8d0Oro2gtRq84bK53n53YnhGTPniO1V9rj98OLZpOvOBt15IGWEJI2TdqfwT/1ev3gOqpOlXifyT41VLvn+Me4R1eeRw/ZEanREUJI1tTM7DYu7IWJBulTybOnpidOHG/YsNHTp0/CQ4MFI1AJId9C9UtPqQ/4adN7kC6VnNqUU3Hf5U093SpOOzJ1ygy5XE4IWXNe+tSBQka6iobinH2sefJFVqNGTUJI7949V3ZyEYzWiNbRaQciD/gZk3e3Sso+NZ0NFwsauKmY0Q1Vrf9sfvXKTSvHwWD9hrWHBgijs05P112IWnHO+HbULCCf0srVxSl2w9ABID4QbQESUGBgYHBwcO2iwvLkgG2RY8ePuXb1yoaLp0Y35Y1VaFPOaeWsp7Zvov2KsCeB+qFDhi9u01YmkykUivYd/prYRBim7wdou6yLKF26zJXLS77/+N6pU/tlZ4NvTeTFjkKZmP/+29esWQvDj+PHTSpRcl/FaWHp0qU7f+Ggu7uHIfdotdq69Wr1+/f7yq683+tyGbl162aM0fbhwwcuSlI6t/Afn/JTQnV65uaNOzKZXK/XN2xUb8+koOvjPZSc5NGkpNPEA6FPnz65fctPq42eOXM6CTgk3sT1a7cML5RKWytqC+Yvql2nxoYr0fny+Vy/tlXl7CxjZISQ6Ojo6jWqBIeHT29jHi6pVDA50zKnTp+sW6eeje0nkMCfuoYLwrPnyHn92h6FQiGXy9lsOmPm7F49u1NCatSoefPGHCcnJ8MFUl+/BtWqXT21K9OkpPngeLrKdDrdp0+fsmbNamlb686pl57TbN2yw/AWX7l6ud3f/Zd3cCnvwzsdP7ie6u8x/zRs2Khb984Tm4s+h++0XdZG1KhR8/q1mR8/fWrZsumCk5qbE8yfQ1eVLIMHefjoYXHf4tu27pgzR2IQ8D2/u7v7Ckf4hEbqh+5Ub92yw9XV7fSZU4TQcnl5HYvW0j+mhBYuUuzmjY0ymUyn05X7o/Smq6GCvwXNSytnHg0L/ByYKWMmS4fCQKPRpE/Fi9eU0gbzwqIVXhcvHHJ1daOUdv9f10rT/K6M9bD9FAoAxFPSlxwAHNjiJQsbFpULrhn/EqyL1pGmTZqN+GfU7jvCi8lSu8m93Mi2bZttaX/hscgP4e5Xr9zs1KmLSqVSKpUMwzx+/KhGEeHgvy7rIjJkyPj+/fsWLZv16NFdpXLW6smy07wBpvWKOa1YuYz9USaT3bl9v3evvionVeUqFUqULOpbvLBv8cKlSvvK5fIbb4Un6/tUc7rndy/GPi9bvqR+UYXgmDRbGFqlao37fo9UKmelUqlSqU6fOlezVt1WS8K4izEM06qkYu++PUql0sXFVaGQ/nLu4uJq+M/SAmLp02e4cvlG+/Ydg4N//lG+TIkSxp0tXaa4V+rUp57q9HreqfxUrsx90V29EplWRxssCJ86debBA0dcXFyUSiW35lqu7B9Hjpxo2bL1jRvXy5YrWbxEEcMe1apd3ccnP/cWaaygr1/EEw0iNXTpOc2xoyeLFCmqVCqVSmW1qtU3b9rWd0tkaCTvk1Aqp/GYR0RElOeHS3W0vsvaiHRp0z1+/Lhps8Z9+/bKkCGjjsqWn+Z1pn0F1bBhgwghhQsX3bhxM/e/uXMX3PO7O72FKm9G3jsbEqGvMiNs0qSpRYoUJYRs3bplUlNhqm62KKxlqzZbNm83/E1xdna+7/fIt0Tpjit5ZX6FXFYok2zjxvWWDoXBmjUrq/kIB4SM2R2RLluh8+cupUqVWqlUOjk5bd60tWbN2h1Xhkk2AgAJAVVbgAR09Ojhk8OEpyy3XNPkypWbYZi0adJ6e3uffxJarRCvuLiwjcuAlcvbtetovXGdnv57LfrsmTPih9q78U+A/orQ7+vvRojgTL1wrVqFFMsvBLM/Xr16uU/fXt7uzKw/nUvk5FW2XgT+mnZQ+MXYy42J/BHzs7uePH48thsvdgR81Qb8oAcXLBEsOXfO/JKliv2K0Hu6mrfVs6ZznTk7x44ZH+OGYmXt2jVLli7MkZZZ2MqlUBbezt4P+DpqDxOlJS6cd8nZiQkMDLRvH2Jr0JbwihUqNmrUWDxLr9fPnDVt184dBTMye3q5ZkzN26MLT/2nf5YoIrJjZMUm7Yto17Z95sxZuBOLFfMtXLjIrKPPprY011DdnGVyGbnnd1elIF5uvA9JRBTZ19+NEMEVey5y/kepQl7F/BMSw831en2z5o2alVDUL877/OgpbTAvrHr1Gs2aNjdMuXv39uomvFMlgT91XyMU4o/N+nX/+hYv/DNcz+1qv1qqOZdvSB0Gs81bNnUozfsFSik99kh37OhCwZJTpkz/o/wprY5yRz4AQMJBtAVIKCdOHEvnTrw9hRFwy7Xoq1e2G15369pj+cYZgmhbLKeSfVyTFWceRXt7e6dNm5Y78dWrV+nciWCIoaerzFN4/lZCJi+5Wh0eHh7m5ua+cOG8DRvX7+jjmj+TxL8SPpkU//aKxQU6LK1WG/IrJHMaXtI69iC6QYNGksvXq1d/1uFj0/40p3C3BBi22K9/77s3Lv030C2H1A0lfHMojw6N3YMDEsfdAP2B5dKX7rVo0UTz0//MCHcvd4lTc1ULqqoWjN0F+yee6NYNqS2ePmTwsKn/dBVMlDPk+vVrLqLBIGncZWls+NRkSSP9Fjdu0iCfV/iE5sImWi4Oy1PAdyH/q5Hg7rr/7Iho107YT4NKlSof87vRrqJ5aEGZ3Iq3m99Y76ROp8uTjnds3wbplEpl5syZBUu6uLhmyJDx6ouQKgWT46cIwPEg2gIklFWrVvSoLAwQTz5olUrlpMnmR7a+DKJqDXXmJ7bmJRXdundZv26jlfbvvdd5eAhH8er1elksH50gEBIScv/+/Q0b158c5ubtGfM9m2JF8r5m99/p63aUfrxw2rTpzl3jne+O385JWLd+rd/NS1fGSTzaIDmLiqaRWpIhQwbxrOEjhqp/vj00WPpZG3GWWurpsgULFgoMEb6nMhn5HI+StrNSxhASHBzMfWLwwL/7h31//98/wg/82D0R4TLvA5u3CaYL9vzVN9o2f37JzZUqVfrm0avtKpqnyGVxeU5ntI4wjPQYP2dn1bdQa09RBgA7QrQFSBAajeb1m9d/dhEGpjdBuv5VGaI7y04pVMvpTZCuUFbeX8ZuVVRNFt1OjI6K6PX6fv177+1n/1xriU9G5tlz6SvnwsPDc1io4dnL4sUL9g2woaadcpw8edzSM+TiIyxU4tYTAQH+3h7CDen1JEPGjPHZFsOQqCjzANwNG9ZduHBOvFMbL6qPPNDeuC7xbGrKT7febuTdu3eS23r48EGZ3Pb6qEsHYo0m2tMFoxEAEgmiLUCCWLpsSaW8EiUc689kYmVNI6eUXrp0sXLlKrHaro+PT1Ao1VPKrd0+/ai9+EJnYwvv3r1zU+pzped1/tMPXac1Ed/Dzb+5c6Vl9sXyxrSEEMPlXz/C9Gk4J8rr+zq1Xbl99CiJu5keOXJoZw/eReiRmliX06zYv3+vmxPJ5c37l/Cev7bbet6g4eLZZKu6ujnZcOf/JDd02OB6RRSCCHjivmbMfrWOUzcsl0u+smssHpFVIhtz+cql4sVLCKavWLm8QGbh51xPSdky5TauWyGYfvuN9k6ATZ9DSomrq/H7xrnz5xYumn94kPD5FHffRi86rTl86Jizs8RD1yg/205r7TJ4984+vfuKlzx79sxI/oD4B++0WbNms95DuVwe8IP3UIy8GeUaTURISEiqVKm406OjNUFBX8rljd0TgwEgzhBtARLEv/+u39UnXk/XnP+X86TJ40+fOh+HdSOjqJuz+Rd7wSyK9qsiVM7OLi7c8iT9+fMnIcTZ2cXFxfh7d/nyxSdPHi+alXdXB0ppy6Xhnbr27tdvADvRt3jhOHSMEFK4cOH1F+4Na2juSYHMitQuZNGiBX//PZi75IaN610YdXZvXuV7782oevUaxG3TYhcunu9WiTcmVKuj3dZHrFm9rmzZP9iJvsUL61LI+eTr169Nbsgb0xkUohu5V33o4LHs2bMbpuj1+hIli8aq2cUd3StPX9WrZx+l0tz49+/fLl48f2IoLxeqNXqtnpQuXSZKS4IjdKldzQXRotnkPTZGuLi4csOoXq8LCQkhhDhzPp+zZk/38PAkhERGRg4a1H9XH7csaXiF1aAQffcNkVu37MiWLbu4t/nzFzz/5E3NIuavkUWyKYODvx06dKBxY97jmseMHZUtDSMYEL/0lLpMGekRMqxGDRu/eLCdEPMm5DImW2oybfqU2bPmcpfcsGGdnNF5uOB+RACJBH/ZAOzv7t3bchnJlyleZzkr51d+/WrTY8kEihUtdvie8FGlU1s4q9Xqtn+1O3/u0vFjp9q37xAREZE7HTOlmbNaHbll8/bz5y6dP3epYoVKnwI/CR5++/UXVWsJN9fGR+dOXY89FF6Jv3+g+/oNa4cPH8JOmTZ98sKF87b1FX49WH4++q828X1uFuvt27elc/G+4Wv1hBDCzbWBgZ8IIYoU8o+lTqfNmJr39p1+onVxcWFzLSHkzZsYrpESc3dm6hSSV6teyXA0CCGvX7+q36BOz6pO6VPxDs2jD8a6rLu7+7WXvDdapWQmNFFFRkZ069r9/LlLhw8dbfPnXxEREfkyyMY3VqnV6kMHjxo+h4YbBkdGRlatVnFwbSfxX6Vmi8Py+xS4cOH8smVLuP9duHCeENK1a7dhu4SP+tvbz23suNFz55pvlPu//3U9fPjgtt68aK7T0wcf9e3atrd+QPoP+PvMU2EFet/fHlfOHxswsK9OZ5w1f8G8ZcuXHhkcl2suASBuULUFsL+VK1f0rhLfx28q5EzZXPJJkydMGD8pVisOGTK8S9eObcrzztI2KO5UIod8wJZly1csVchIbm/Z2k7ORbJ5EEI+/tQ3bFT33NlLadKkIYSoVCod/8Kg9KlkSjnZsHFdyxatCCHPX7zo3793/SJxDO5VqlT9EUFeftbm49yaNLWb7NIo9/9tOMUWg/N4y25P8JDz75d05blGqVSWKFEybpsWS58+/dugj8VymHuilBMZQ/47sL96tRqU0jdvXnft1qlNGaUyJYxGIIQQwmj4T9OtVkAx51j4zZs3ChQooNPpLl26OG78mHltJE7iWzfrL7elJyMbNKhtuMOvi5L0r+7UoZKwnRVnonr36ksIWblyTYcObev78kbgNCutKphFPmrT3Hnz5zjJSS5v2b/dnAtmcSGE+H/XV69R+eKFq+xQhD/Kl6lXWN6psnAkdO+NYXnSy0j4i6tHXwhm7dtOB42c3rhRk5Ejhz//pM2f2fzOZk8nvzrWo/3KTZu3/GuYUjiz7PpYDxX/Cs5Lz6J1ROHjI33NGcvVxVVLZRFRlPsYYYWcOTvSo+OqSyVLFTNMyejJnLVwnwoASCCItgD2d+Pm9ZWThReQbb8S9SnY2lntUrnkgruAjWro/NeaQ7GNtiVKlHR1ddt6Vd2+Ai92ZPKS76GDPVAAACAASURBVBkgMTq2V01nhqG1ale7e+cBIaRZ0xZLZ1wULHN6hHu9ufMXLpxv+HFpB5eKPnEfbrFs6cr2A3vf5D8Fyt1FtqOvu1pDI6OpqxOjknp605Ad6vkLlsd5u2Jly5Zb/u/NpmXMB0ouY3b3dW05YSx7D4uN3V18c6SY2zZlzpz54ot33A5n9pJv6O7StWc3w4+eKnJiqLug1Gqj/nVc+tRyDlNTuYy4qhjxvTg00fTue/3q//UkhBQuVMTLy2v/rYjmZXjpNn8mxb6BEp/DwfVcVIrImrWqXrt6ixBy8uSJtG502p8SQ1RXdrFYBF1yIvLevTuNGzWZNHFKt+njrozlfcZcnJh9Az3UGhqhoa4qRvIJYUN3qrfZ9pjr5s1b/rlsz+EhvH1Rypkdfd2jommEhjopGDdVSvlGBOA4EG0B7Gz58iWFRRfWUEpnn4iqXbuupbWioqL27Tt/hR9tc6aXR0WFv3nz2s0tdic0d2zf1aRpw4a+TqndbEowPWu4vA6K6NW7x6qVa2rWrDVkKBWUozxdZFftd3usSpUqZ8uRu9cG/1Vdhfvl7MQ4W7hzbbtlofkKFKlSpaq9ukEIadK42fJli9XRlJtycmdQ3BN9M0kp5sye17Ft0wG1ed9qiudQ3ptsn3QulzGpXKXfIEppy6VhzZu1MIzHlclka9ZsaNO6Wa0iShtHmvat5fIqKLxP354rlq/+8eO7k0IiPduoWbMWq9es6r8pcGkn4XcwS58xSmmrpWHlK1QqWKCgLZv4Z8Sosnt33/PXlsgp/E2qUkp/NwOARIBoC2Bn27ZvndlEeBuEi0816dOnnztnvpUVfYsXfvdNmz0d72/lyPqqAQP7rV/3b6z6kCNHzj69+1WftezCSHfuo7ws0VN67pm2Rm3jld0dO3auOO3fu5M8GLvfRdZk//5DpUr7Npr769DQmLdCKe26Ouz5V9m9Ezvt240MGTJkyJBp5M6ghR2sFaENdzlNuKNhR3ny5HX2SLfgWPDg+tbuaEYpjdXuDNoctrBjDN+vJu2L+BTCTJxofopEvrz5uv+vT5UZK66OdXdxsulz+PC9rkS2eF1/yTp65ESJkkVH7wyf9qdrjDurp7TOrNAQjWL/slU2tq9Sqdau2dCtR9fLo93dnK3tnV5P/7utaVE2do/JAIC4wQAgAHt6+/ZtaGhohfzCCtmgHVEj/xltfd0WLVqtPi+8/KtBCeWHD+/j0JPevfv27NG76sywndeE19MI3HgVXW16aOFiJdgru/8eONjZ2bXT6nAra807Gmllri0uX7quUXnXnxv2/pu1G0IFhehqzw79SjPfvnUvnluUdPjw8buBrkO2hust36V/+PYIdbSlmcnOrp17N13TLjxu8Q2ilLZbERarNi+81I/eZe0pykO3hZ96qbp86bpger9+/bt361FletjBOzF8Di8/iy4/OdTHt9LcOQti1Tcrrl29dfOzV8P5YSER1sYC+Qdpa80KTZvV5+qVGJ6vK1CmTNlBfw+pMSvsyQeLn4+gEH3FqRK3BAaABIKqLYA9nTt/tnxu+YP3vAvDg8MpIaRmTYnnlHINHjS0cpU9f5YT3j3Ay5WcO3eGUiJo9luo3tnZ2s0y+/Ub0KBBw27dOs889mNqC1X5vMrUrozhGbxaHf0ZTs8/jZ5+JMrd3X385Hl169ZjV1QqlTeu3+rcpWOJ8XeH1FU19FV6uTGGule4mvq90w7aFklkitpFef358FPv5BSLi+dcXFxOnzq/ePHCJovXZPIk01q5+GSUs9WvcLX+3Q86cmfEhxCmf//B3bv9T9yCUqkMCqfcwxL7Z0gRhUJx+dL1evVrl5rwaWoLVcV8SnYUR0iE/tYb3fBdkYSQNh90Ks4XllA1TaOKYxHOyclJo6WCd1MdTVWWG5TLFf7f9NxVooUfE7N06dLduH6nTt0aO2+GzPnLxTeb3DAegFL6I4we8YtecCqKEOHHiRAik1krdtwMTF164reZrZzL5VGwDQZH0DOPo6cdjsqWLdu1q8clVxw4cFCDho26du004UDI9JbO5fIoUrsZRxpodfR7GD3zOHrO8SgPD495C5ZVqVLNsJZSKXGUYhQUqk+V0zwYw9nZ+eyZC/MXzK02c0Meb2ZaK9esaWTs+Ncwtf7ZJ92YPZE/1Ir+/Yd27dJN0JpCoXj+WReiNn+qQiKEn7CuXbtnzZq14z/DcqdVz/jTNVsamWEogk5PA3/q5x5TX3ypVyqdPvzUx3ZfACBu4vI4QUKI/mB5WbWtxDO33TsEkKJpNJqevbrfu3eXOzF16tQrlq8uVCjmG8EeOPjf+PFjBBM7tO84fPjIVatXLl++hDs9ffr0+/cddHeP4bkJer3+zZvXg4f8/e5dACHEw5no9SRcQwghPj4+M6bPzp07j6VME/AuYNjQQS9evjCsGKEhOj1xcnJas3q9Vqfr3r0zd2EfH58N6ze7u8f6Pkcajea///bPmj1dq9XKGOKmIuFRxHAZ/vjxExvUb8TedlcgUh3ZsWO7ly95l8mvWrn2jz/Kx7YPhJC3b9/07df706ePhBAPZxIWRSglXl5eS5esCAwMHDtulFptfj5W1qzZdu/ax17LHys6nW7suNFHjx7mTvzrr3ajRgrfetaPnz86d+5geAcNnJycJk+aWr9+QysbunnrZr9+vTQajWGPQtWEEJIrV+7ly1Y+ePjgn3+GcRcuWbLkmtUbFArF+g1r7x9fvKA9b1RAifG/9u49EBYWNnBgv5CQYG6DWbNmW7x4WZ7ceazvNaX00aOHg4cMNNzSzsOZaHUkMpoQQooVKzZh/OQ8efJyhw3odLpx40Yf4R+lGJUtW3bZ0lXir1iRkZEHDuyfMXMaIUTOEFfTZ0yhUIwdO6FJ46ZyucQdP169ejVk6N8BAf7sFKVSuWXzjgIFCojb37V75/z5cwghLkqikBsPTvPmLYcNHaHX61u1bv7ly2fuKr179+3Tu1+s9g7gd6fX6g9XJt5lZeUXWVkK0Rbg9+Lv7+/k5JQ5c+Y4rJgxY0bJJz/ZUXR09MePHzNnzuTklGQDE/V6/bt377JkycJ9PEGKptVqP3z4kDNnTlsWthJt8+bJG4cGJfn7+7u6uqRPnyHOLcSZWq3+/Plzwr2/3759DQsLj8/BAQBptkVbDEgA+L3E+Tdu4vyqViqVSZ4JZDJZkvfBvhQKhX33KP4NJuERdnZ2TtCtp0vnnS6dd8K1DwDW4TIyAAAAAHAQiLYAAAAA4CAQbQEAAADAQWCsLQAAmFWtWn39ygVdVgtvfJshffok6Q8AQKwg2gIAgFme3Hl27T/56tUr7sSSJUvF4bZuAACJD9EWAAB4MmfOkjlzlqTuBQBAXGCsLQAAAAA4CERbAAAAAHAQiLYAAAAA4CAQbQEAAADAQSDaAgAAAICDQLQFAAAAAAeBaAsAAAAADgLRFgAAAAAcBKItAAAAADgIRFsAAAAAcBCItgAAAADgIBBtAQAAAMBBINoCAAAAgINAtAUAAAAAB4FoCwAAAAAOAtEWAAAAABwEoi0AAAAAOAhEWwAAAABwEIi2AAAAAOAgEG0BAAAAwEEg2gIAAACAg0C0BQAAAAAHgWgLAAAAAA4C0RYAAAAAHASiLQAAAAA4CERbAAAAAHAQiLYAAAAA4CAQbQEAAADAQSDaAgAAAICDQLQFAAAAAAeBaAsAAAAADgLRFgAAAAAcBKItAAAAADgIRFsAAAAAcBCItgAAAADgIBBtAQAAAMBBINoCAAAAgINAtAUAAAAAB4FoCwAAAAAOAtEWAAAAABwEoi0AAAAAOAhEWwAAAABwEIi2AAAAAOAgEG0BAAAAwEEg2gIAAACAg0C0BQAAAAAHgWgLAAAAAA5CkdQdAAAAAAf0Mzj00s1HkrOa1CmfyJ2B3weiLQAAANjfl+8/m47bKDmLItpCgsGABAAAAABwEIi2AAAAAOAgEG0BAAAAwEEg2gIAAACAg0C0BQAAAAAHgWgLAAAAAA4CN/8CAABwcAdPXWs6dqNg4v9qFF0zo39SdAcgAaFqCwAAAAAOAlVbAACAxBPw8fOLN58evnhHCMmc3qto/hyFfXImdaeShat3ntzwe0EJyZI+TckiufPlyprUPYIUCdEWAAAgAWk00aeuP1qz++yBmy+sLDblfw0Gtq3t6e6aaB1LDiily3acGrBwr+Rcn/SeS0d3ql2+aCL3ClI0RFsAAIAEERYW8UenKU8+/qA2LDxu7dFxa4+O/KvajMFtE7xnycOV24+rDVii1Vs8PC+CftUZtDSVq1PAgRmpPN0Ts2+QcmGsLQAAgJ3df/qmRJuxHjUHP7Yt17Jm7jhfqNUYTbQ2oXqWbAyeu61Sv8VWci0rJEKTuvbQrYcuJUKvwAEg2gIAANjZvWfv/fy/xm3dp++/qSr109uQ+VKuiSv2Ltx9IVardJi65eRlvwTqDzgSRFsAAAA769CkUjxb6Dl5nV16kjxN2ngyDmvVHbri+ZuPdu8MOBhEWwAAADtTyOXrhraKTwvrjt0KC4+0V38cRunO05K6C5DcIdoCAADYX5dWNcUTR/5Z6eicXsfn9Tk+r0/zsvmst5C7+eiE6VoKFqbRTVq8Pal7Acka7pAAAABgfzKZbHibanN2ns+e1n1yzyadmlZhGIa7QN1KxQkhq3ef6TV3l2QLX0MiIiKjXF1Utmzuc9D3OVtOWZr7KiBQPPHa849D5++wtEqvFpV9cmaxZdPxUbtkng0TumXJmI6dEvQ9+O+5O3acvWdplWk7Lo7p+6dCIU/ovkEKhWgLAACQIGYPadu7VbXc2TNZWaZn65p/FMnt22Wm5NwLt57Wr1Lclm0F/wqfv/NcrLr3+OOPx5ZXaVSxcEJH2zXDWv+vdS3BxPRpU2+f0XvB1++ZG42WvJIuWqe/cPtJzT9ws1uQhgEJAAAACcV6rjUoVjBXeZ/MkrNOXHto7x4lFwv6NxXnWlZG77S31o+wNHfSyv8SplPgCBBtAQAAktixZUMlp9969DqRe5I4vD1cBnVsYH2ZUoXzNCyZV3LWpacfEqBT4CAwIAEAACDB/Qj+dfzC3TvPAk49CEjjqqpRNEfdyr7lShQ0zLX0qK2rLyTGyDqA9aPa2bLYwWVD5eX7JHRnwMEg2gIAACSU528+/LNo94HrzwTTLzx4M2GrcZxruxq+wzrWTfSuJaVGNcvasphMJiua3fvhO4mHX9x//Nq3cB579wscAaItAACA/VFKfduMexgQ8zPJtp29v+3s/UToUkpUqVR+yWh78+ErRFuQhGgLAABgZ/4fvuRqOT4xt5jB22v5CItn+R88fbPy0HXBxAo+mTs0q2ZpFZ+c0le2JbJiuaW7ERauTuSeQEqBaAsAAGBPkeqoRM61hBCvVB59Wla1NPfgKSdxtC2UNa2VVZKJDKlck7oLkMLgDgkAAAD2VKDl2KTuguO4+/ZLUncBUhhUbQEAAOzm8p1n7779kpzlrlJM7la/X/t6TkrjL9/gkLDzNx6uOXrz+PWneir5gILf3Ut/6XtEFPXJlsg9gZQC0RYAAMBu2o1ebWlW8LnFcjnv8bCpU7k3q1O+WZ3ylFLZH70TvnfJhToqylll0wOEd533k5yeJ0fMz8KA3xMGJAAAANjN++Bwyem6aysEuZaLYZgE61Fy1GvKRlsW+/Ltp6Vadi4bHvMGvydEWwAAgIRVsXAOmQy/cM02nbobGh5pfRk9pblaSI9alv1m3wQgVvA3DQAAwD7eB0rfxTa1ZwyX+aujNAnQnWSt6F8TrC8wYt7WyCit5KyBLSomQI/AQSDaAgAA2Ee2TN6S02898qdWrxIrGVPOczwBQSFF/hwXESlxe9porfbPIYvm7b5kad2BbWsnZNcgZUO0BQAASFhBoZHHzt20NLfP5HVPP/1IzP4kE48Dgtyq/d1uxNLgkDDDlMhIdY/xq9yqDNh95YmltdxdVbmyZUysPkLKgzskAAAA2E32tB7vvoeKpzcctb5f06dzhrR1cTbeGUCjiT507nbPOTt/hMYw6tSxbb/wcPuFobYv/3DT6ITrDDgARFsAAAC72Tqle+W+CyVnLTtwbdmBa4ncH4MmtcvT2uWTZNP21bR8wZwo2YJVGJAAAABgNxVLFsiU1iOpe+Gwds3pl9RdgOQO0RaSqeCQsBdvPz57/eF94FdNtPRFsgAAyQ3DMJ+OznVXKWO1Vlp35wTqT/L0bv80uSx2N/ByVSnDzy9yUsbuwMJvCAMSIHn5EBhUvf+iT0HBERpznJUxpFCODNc2jHZ3/b3+9QeAFOrdoZlp6tg6fjRzajf/w7OdKv1G9chsmdN9OzHXq7athyidm9P7Y/OcVU4J2itwDKjaQnIRpYlOVX1gtmbjXn34xs21hBA9JY/8v3hU//vq3WdJ1T0AANt5pXLXXV/ZvX4Z64sxhIztUOvjiflK5W9XaUrt6R51aVn7OqVjXHJmz4Zfzy5BrgUbMdbvtGeJ/mB5WbWtxDO33TsEv7Mif014/Paz9WXUl5aqnHBCCgBSjJVbjw5cflin0+tNv3DlMkYuk20d07ZVg8rsYk9e+kuuXihfzoTvY4KIiFT7f5D+J12wUzOW756w9ZxOp9ObIolcxqRydjo4p3fF0oUSuJuQcui1+sOViXdZWflFVpZCtIVk5Ov34PQN/iGEFMyWtl29PzJnSPvw6duFe3l37W5YKs/h5SOSqIMAAPHyMyTUKxUuMrMmJDQ8lYdbUvcCkiXbou1vdwYEkjPvtKnH/FV1yqC2DPt88MYVF4zokLPh8IBvvwwTjtx5nWT9A4B4u3Dz8ecfIeLpJQvmzpfD8W/qhFwbowTKtUy5XuKJUZeXOf1+Q0EcHt5RSF6mDm4nnnhwbh/fLrPYH3+FhXu64zs9QMqjjtLU/HuJ+awzR69G5VaO65b4XQIAB4NoC8lLeIR69X8Xj1+4c9LPnxBSq1jOGuWLtq3DuxRDrdYg2gKkRCMX7pDMtYSQrSfvINoCQPwh2kIysufo5daTNnOnnH7gf/qB/+hVh5KqSwBgL1FRmkX7rliaG6bB7asBwA5w8y9ILnYeuSLItQDgSOoPmG99gW9SY3ABAGIF0RaSBZ1e/9fkTeyPrirlvsmd6Y1VIWfmH5raNXfmtEnYNwCIv6Dvwefuv7W+zJodpxKnMwDgwBBtIVk4du4298cPh2Y0r1uBEOLp7tao9h+v909Pon4BgH3kbTE2xmX+PXc/EXoCAI4N0RaShX1Xn3J/FNwfJzxCnbjdAQB7On7xbqg6OsbFPgb9TITOAIBjw2VkkCxULpBlw2Hzj5GRUS4uKvbH5kMWJ0GfAMBOGo9cY8tiYeron8GhXqlx51dIGqcv3Tly4R4hxFXl1LZxlSIFciZ1jyAuEG0hWWhWp1y3ubvZH9PWGjS0Q91SeTJeefZhwfbTlu4WBADJ36J/j2h1ehsXfuofWKF4vKLt9btPZ2w6EZ8WCCH1Kxbr3bpGPBuBlOLNu8Dmw5Y9CPjKnTh9zxVCSIvKRbZN76VyckqirkFcINpCsuCVyqNxqbyH7rwy/Bip1U/deCxpuwQA8Rel0QxZftD25Q+fu12huE98tvgjOPTgtacxL2dVlszp49kCpBTTVu0bu97id6F9lx45Vx7wcMuYIvmyJ2avID4w1haSi/1Lh9YomkNy1vH5fRK5MwBgF2MW7pQs2D7aPEpy+Rk7LiRofwC4/p6xyUquZRXtMO37T9yZLsVA1RaSC7lMdmbt6Gev3/ecte1D4HetTu/h5lyhWJ6VozvL5bLFfRuxS3KH4QJAshURGTVv72Xx9MLZ0hX2yemslKujdYnfKwDWyiM3bFwyV/OxP84sVMjlCdofsAtEW0heCuTJdnH1P+LpAzo3TvzOAEB81LPwjIbDCwcSQsoXyXnu3mvxXP8PX3JmzZCwPQOIpdBIza4T19s1qJjUHYGYYUACAADYX+DXn5ce+ounl/XJYkiutUrkk1xxzwlbC2kA9pLGVdW8UpFOdcvkSJ/K0jLtJ22yNAuSFVRtAQDA/jI3Gik5/fTK4YYXnZtWGrP+uHiBE3deDuse9+02qFGW3igb9/Xj5M8xq7/+CE3kjYLBuRVD47O6XMY83jo6f27zVWKh4RFetYZI3plHr9fLZKgJJneItgAAYGenLvtJTu9Zv4yHm4vhdZaM3pLLXH34hlLKMExCdS4BXH/45v0XPG8iRQrYPzVLxnTcKR5urk+2jcv/12TxwueuPqhZqXhidQ3iCF8+AADAztpP2CA5fdXE/8W4boRGq9Ph8jJIDLN61BPkWgOfXFlK5JD46vX07ceE7xTEF6ItAADY04ZdJ7+GSTwce/PYDoIpw1pJX5QT9AM3WoLE0PPPOpZmLRndWTzx8vNPCdkdsA9EWwAAsJsojeZ/8/eJpzsrFW0bCoNsw2qlJRtZuP6Q/XsGIOJq+VaSWb0tXk8GyRzG2gIAgN1MXLFfTyWuv7n37z9y0fU3RfNmlWxkzv5rs0d2iVsHKKVUqgOxwzCy2Az2fXdwZny3CAB2gmgrdOrm0ynrjiR1LwCSkUq+eab3bZ7UvYAUIDo6eua2s+LpBbKmLZBH4jmlab08XZ0UERqtHftw7NythqPWxbORPi2rLh/Rzi79AYBEhmgrtGrfxUt+L5O6FwDJyCW/l61rlSrhg0eoQwzKdpkhOf2/2RaflZ0xbao3gd/F09+8C8ydPZPdegYAvw1EW6Gbj98mdRcAkp2SHacFn1mYyt0lqTsCydenoB9+r6SvH280bIWltT58DZacfurW816ItgAQe4i2PNFa3fsg3r0Ju1YMVCriPWzLYVBCGP6LWK2VmAxvGsN5TUxTxO+n7ROTF/HuCeZSC1MYQiihDGEooYQwDKGEMJQQ0wtKCMOsvsgLFkXaTnp/CAMKwaIKnadZmvXqk0Rd1rqz1x/2alktXh0CgN8Soi2PWhMtmDLvr1fuznqL2Uwww+YMZ31Bm1q1V15MktxpmaXuxNBN7mxOeOOlO8aGjBsHlJ8wGYYIL2HhdoUSRibarg3fGGhMOdbaOlYWYZcRHC+GECqIth+CfpboMOXelnG29wB+H5dvPQr4EWbHBndffLTTjs0BwG8D0ZZn8U6JCyDMoYIS4SWz1n/krCxIGTYFZdHCxoIaQxhRE8JVraYa3kyp7tmBhR2PkXDhGNenohfcFbkxl5txxctLNy3atrFZaqx0cnvMiPvB3bDhT5kp+Ep+HARvKrsPpkPJvrZpF2ScTYt6a2iJYRhKKNumRN8IIaRxsW+HHqQjhPi9/LD+0JVujaXvRQq/s5Zj4nvllkCcv3h6p03VtrpvPLdeOl+WeLYAAEkF0ZZn4hqJmymacwdjW1ATVA35jQgWZKhEsLG0CXGiFXfS2KzVXtpUA5YOOabz2DGubVomvonZdMyl+2ydldQrsah4C5a+PTC8N5dylxeUiAWjIhj+j/xNSIygMA0YYJdg87RE3VfGn0rN/zd/cBlC9cb+E8ObpKfsJqm4cGu0t/dT76F/hEQqCSHdp25qUL5IxnS44yOY7T56OSgkwu7NvnkfmDtbrIfblvHNv803v90743giIqN+hUW+ev85LDzSMCVvzizpUrl6urvJZMnpXB5ALCHa8mh1eitzbS1AWqjBSS8Ym39AxCFPopBsuUkr4xwkorDlqnBMy4qmSB44W8qxbIFSfIafWBhgEPMwAxtSrCRDwZzdgHHgAXd7glERguTLiI4iJYRfACb8NYyvOcmYinfPMGBWnKpFoZlygrWhHfMeEamec/edvJ1+M81gY7E2T8sx308tcHZSCheD35JOp/tz0uaEaHne+iPLJsT8YF6IlYhI9eDZWw9fe/Lpp/QAEhnDlC+Sa8PYDvlyonQNKRKirdlH/gVkPNRU6rJUy7SNzXFOmkQii01PGKs/2rpu7PfdmKNitXnJlEj45/Yly8wxn8UUhUvprTOEmhIjQwmVceYRczGZLa8K+yr4EsFfzNgGY/xTctSEqEP8psy7Iyrg8vM+oydUJjpwhqBs5cuOcPvuKv3h/g8bLS1KCIlQRxdrN/nFninSC8NvZvTSPZLTZ3Stm8rD2ZYWIiKjhq05Lp5+8NaLZfHqGvB8/Py9Vq9Zzz7H8BBjPaVXHr7xaTPZ283p7MphRXxyJE73AOwF0dbsxI0nhhfuKm1YFP/IxFSINYcCK+FUqsIqWMNeJ4Hil8BNTVgcRRHDIgKx7gZ/iKlxCtuWpWEG0q3YshnBNMMwAG4lVMYLhWzplFrqjWDTgt1gDx9/P6V3x9KwDm7Rl5ir+eZus1th+O1Q/tHk9pbbGYne1CkUPKjW+4WnsxFCXr4PGjRv58KhbSQ7Db+V2VLPaMjm5TqydwvbG5GMth+/xhDCwHY9x61cc/JerFb5Gq4p2nF6/wall0zokUC9AkgIwsce/s4OXXpgeJEldZQtywtOhoteiViYlRBjmhipWMhlU3FTciFG8mVMLVrvjfV2JAugMbN0XLln6qk5wwkyKsOGQm7Oo6bSvfg8PiOaKAyyjGFEAXdsLiPup2TlVpS/jbmWECIjVGbK3JSzrLgdtj+CTwfnnTaEdUr4y7A7SGa1CCiS2XgSc9Gus7gJNFTvIf2MhsMLBsa/cUpIYNCP+Lfzm4uK0hRtPTa2uZa19Ojtaj1n27dLAAkK0dbs8GVjtO1Q4YulZaTjbAKwFuFsj3eGQaFScyRP5sewkHU2LsymPvHoUu5EKvrTbtjh1IajIzNvlw2FwljIya/G2Gd9YARb0+W2Yxo5wHCmmsur3Eqq+FCa7hdGqTmLciMs5VdqeY1wl6b8TVPGELWNfxJTTVqI3ROG0Htj78llxkbKdZsZEmr/i4cgpfjw+dv5B/7i6R4uTsUK5opVUzO61pKcfvv5uzh0DFgaTXSamoMevfsan0Yu3H/dYtBCe3UJIKEh2pqx15B1S9iorwAAIABJREFUrRTInZ4QcTbGtGZtQzZ3QiqlxLpJS12NReAUVw+5Add6fo1XruXvFjf/GV4YUqa5dCpdquS84J67F7TPKXxS08KUcHKnpT0V52N+Nyh3NZloEXEJVhBqRXvHG1tB+btoaWiM+UdKyMPxt9jd8Gk9nsDvqmL3WZLTA4/NjW1T/To0lJy+/eDF2DYFrPCISK8af0dE6+Lf1P5rT/2e4SwNpAwYa2v0+M0n9rVKKV2yk0ZjCoaMxI/Sa1hvKvbdsEsQt35eX/IWDdaaEMQ7zvDOmCrVNu4NJ31SU9WaEsKYipfG1wznHq6C7CkYisENtZa7yD7ZizBSdx7gZmLKv1GXYNe4wwPYuMkGUHbIAcNf0dLx4aRb49BemSlzE1Mx2LRrbCKXSN+8I5PXWzO/9Zshu/MQQoJ+htboO+/s8qEWjww4qNsPX+j0+ixp3AXT6/1R2M1FFdvW3N1cxE0RQi4+Cohj/4CQku0m2SXXGpToPJPeWGWv1hKf5AfMCpmMEa/i5RbrzzYkPkRbo7ErDxhe5EsfQQjxdNaKl6HsyWSG86OoMmi94MrLI4JcyC3VxTaY2rC0lTYtJHAbNmvLctzmBPnQ1iEHth8MtjBpvmGr+XYHhicmUO4mBSlWMt2yHeDkVPExMo/NZUSHkJtBBZvj/ikz5W8ZIXrz8x0oIUTGr5wK2zf1WNQtaroLr/gLhPmmuVTUMUL4fwsYwnCurKP9q3269DLVfr90hJBzd15sO3GzXd2yBH4npYv6fDg2z16tMQxjx9aAEHLl9qMXgZZv+2OyuH+TPDkyEUKu33s+Zdt56wtfuvmoctki9uhdEojtByxbJm98JlMohkpdCh0j/cHysmpbiWduu3coqaSrM+R7SDghZGrz1yMafLBxLXOOiE/BVaoF22OoYRIVFYNj2yNBcOdOJxaaooT/yAnuCsS0mjgixlQAlVrBOqmsKXgAAUPMVUnzfWQFO8cNmpY2xSm8C8qmwu5aLsdK7iO3L8bX5mf2ciu3/N4SUT8Y3kvR0bbeD8IeL/ZfBuPhMh1GUwFYrydphpSPiJYblnqyc2LBnLG+uz4AJJw1e8/2nC39uOLBrapMH9jaWeUkmL714MUO07ZaarB+GZ+jS3GKBpKOXqs/XJl4l5WVX2RlKYy1JYQQvV5vyLWEkOoFg7mzrJ8kNwcKURay/RuD5JJWUikjtQ4jWsViC1LbMwciqVEN3DAkUdyTbEgQ6qzE3xhYidb8Giq7OGVDN7cZTmGS6kUtcH/kTzQ3Q3l7R01T+BVP/lYF3zVEe2b+jyEMw98yY35BGFGu5TbOqdgaLwijxiMgVRRnd4zh1dyNWzFlfu6Hmy0SG682M8yRyej3+dfYXhZrO1mvt/bEEwBIZD1a1jg4o5tgokIui7yweP7w9uJcSwhp36TKmz2TLDV47NYLO3cRIAEg2hJCyIsA9pYItHh23gNarAVExtpiojvpW8TNlFSUgKSbsTXGSrUgtXCM9V1zjJI8Uc9GKEGZUByt4nKSQLAap0JJCee+rZwsaA7jbDKWcWKpjN+aeLSAaR/Y/ptP6DPmBRnBzgs6zB3eYPmgs2V/NuOap3I3TyWOI1tMZTfI+zBZe1cZwggzuTETs8/y5faEV+plX8ll5NiAR4bXWr0+V/MxVrYIAImvcY1ya/75i/0xo4dzxIUlzs7WBozmypaxTIFsCd81gISCaEsIIZcfvDa8UCn0Srlt6zDSiYa7gI0EqY3hz7A9Iltq3HpHxGE6BgxnHXFmFZ3+5s0lkr2x5UhxTrITarwLAa+SzPbJ0tAJSxNNfxpjpelSMGMl1cLixinUwgHm5mxBwZjhHD02gErWusUTTXlX8BQxKojgUiFY+Jp9Ni97YLkRluG8YAOy5PcVWqNAyOCa7w1LvPv8Y8SSvaKjAQBJ6X8tqv87pj0hJG9Gr8DTi5TKmK+xmfa/BgnfL4CEgmhLCCFLdxufplM2V6jta4nDCBcVvbDeTqw3YJsYk7GFiqIFlL9jjChHEasJk0geDstd5BYK2WbZcixDjPc6EFdejUVWTkHX4rZMyxhOyHOLshY7xM3pgtwpaliYBtlNCKKkeE1+96hgwKvpNRV/SmRSLZhes0fP/Cw0biDmfWwZQvhjIUyHmn//h5nNA/KkM97dds6Wk5fvvxIeCgBIUp2aVFk6sNmTPVNtXN4nV5YE7Q9AgkK0JYSQ+y8/Gl7M/tNuv5UtR564s/WSP8mz9xbmW55kYRlxYVEyggsatH5uXHKKMfJxoirlTDSmakoI5ZxaZ8xxTaI3lF9s57w2NsUIV5U+LNz3lndK3xTBTTVgyiZD9lkPkrssXVg1/kg5x9lYrmaMIwcI+zwzcQucbRl31vRWUdNrQZoVBWLKbcK4X9wKMTv0lj6deMdFabzHULXec78Fx+IrIgAkgn7t69tSrzWI0mgStDMACQrRlnDvEVEqZzghJCRS5tyziuG/MHVM0ZQK/m9xgfgT32lLujYcU5djNyhAEJQFRUbz6XWrDVo7CJzT+lS8NMNNWJzyK5vquEVE8XKWTvfzJxgKwDG/hTLRdIb/UhzKGatDDrhn/4nEYTLO5z4gjfuMCb1popUiuZ4Q03cAyr8/rvRbaz4ozv0rGv4zfpPgHGf+EWcIkfmNuWv4QaenGesPt9AfAEgBdh+/kdRdAIg7RFuyxfR3WCEzXzivp8b/bMmJktVM7gLS04mpJCeVqCyNZ7AUIBmpuVZWjIEgsAp6Y6UtK2f+LaVdY03RdKpdeFacmK/W4g5UJYRzmRT7DoiKl2ytlC3NMvyRqdzX4r4ZX4s3JLUrhkKmcLwBd+ABER1BhlfipaYVqeBhv7zgzvCmi2I97+gxvO8A5rncICsuvBu3bf5bYBrdK1zCfHBo7nRRGzo9N8zV6WmDQUuERwkAUog1RxFtIQVDtCVbjl43vKiUL9j6kkKmDCGObJZKlsL4yxjLhWKWAjWv6GbzWtZn8fvEjSuclSXqqVKNxlCd5b5kC66CfEl5y5qzPzcsCjYsSvhsRmT4J/QJW0OVJDlgQFQDppQxh2zGvC+8bC1ZFuX/aV7EFOslOsBP8+bdM81mL2Uzv0HcK9WI+SCzcyX20dQNamiQf5WeeWEq7Iix1m2oUTMdynxtVPS7Yd6xa4/2nL1DACClefbmQ8DXX5Kz6pbOl8idAYgDRFvi99L4gIa6RX7Ebk0LxbtYnduPgdTtTC1uI3aFWU7ZknK6Tjk9kyhWivOQZLcs5CfhWpS/JfGfbCOCcq705k3TGEI41VnGlJV5xU5x9BSXi1l60+BUw3PCCGXYbutNnWUTNNthRupN5jwAjGEINX67IQybGwUPS5PE/rVlTKnVMGRAXJQVsFQ4N6xu2DXGnLQlVueWow2PQGMf7kApw+zt+YwddNt61OpHrz9a3REASHaKd5hmadbgNjUSsycAcfO7R1t1lCbop/GSl+Ylv1tfWJytBCzdjoCxsEDMIdjK+E8rm5Fsi1sZtdQo5Ycxth7H65N4BcGWpF6w1VnhHLY+zA3UkrFfvCFO7VNcEqam7UqXacUBWsaZxT99T2WEoabHIrMlUsY4ixDT+XpBDzlhl1tSNc403vFAMEeqY+IvRNR04RynPk25rVALx5DdtmmXOZ8zhtFzt2bps0xNf1Lup5OygZi+m3ZTKTeO7SndeZoOz3EASDkqdJsepbP4d7ZulZKJ2RmAuPndo+2vcDX7Ond6tZUlidSJcIklrLJ0E31LZ69taFKiHd4UNuRYKuSxmxF3grBFUEHz7AtL+YmbCzkrGYZfMNzFuGmM8BclokPOP00vXl54Dp1KdV7yR35HKTHde8H0gjKijbKrMPxdMBwybjg2lI0prwVz3ZdtTFwtF8dc475z8rxhxw2jWni5luGty36rYBhqfLy2cRwue9tdav1fA86bbsztlBPOKTGVb1O56C4MfmBYNCpal63xSKvNAkByUaHDxGuPAyzNPT6/T2J2BiDOfvdoO3fbKcMLJ7nOjs1aqopaCZbxadZKOwzDyyTmP2NMetaatzAUw/wjNSYeyj4YjFuwJObXvJUZThctxHDKGWjKVkUpfzqvw+xCgqzMrw1T7n+mEdBUclyBpaoqu4OcQjdbOTaswkvvgm8FxmX4xW1TTZVyOmx+zXDa4o5HZo84N47LCGUYSk2x2BhPKdGzTVFTGrbwaTRNN/Waje8M56ga/lc6R/iI2sbnOAR+Cxm6aLd0kwCQbLQZvvTay0BLc3Nm8KpTwTcx+wMQZ797tJ2z+aThRf+a9hwUKA4HtkTHGAOu9AKCWirlPf1KGASpbV2xHTWHOnP7hsBDGPOAV+PC/D0wVy7FgxC45UzuHIkHxEoNBjClNV6u5cw1xkRRIdYcFw3RXM9P29wWeEvzkyt/vKzEOBVRyda8Wc7RMJWKjY2Z72XLKcEaN8Cww3VN6dYQd01jDKghSjPEvAB7mMwTqSnjSvSXEkINN2fgfaXgB3HjoA2G0KlNAjJ6RhnWnr/t9IW7z8U7CwDJgVany9lkxK6LDy0tIGPI092TGUtfewGSmd892rJ6V/9EiP1iH7Xyk6VJ8d6cKYPx/vmx8m+R5Kl+2zfHXZctxBpmUzYa8hdiuPdkZUTjMwQ/UnNG5J3w5+dgiZ6zJWH2uVxs+tZze0wII6zOmh9+yxBCGEZm7olwh9kruIxrmau15kYI7wWnBYm6t7FH1BhhqeCLAedQcmrCpqNsGBvAEGK6TzM1FZ7Nw3K5TemJ+ZPC3nfXsKJkvdx4zCnDlmmNKZadxa3dUsowlAmYYn6OQ63+C0MjYhjwAwCJ70fwr0x1hwR8CbGyzN2No51VTonWJYB4+q2j7esPX9nX6T00hMR8pt1WbLgy/SRs2EqU5J2LFnaDl1O4RU/Jdii/E5IbMvbVtnKusB+c/aSCLXHPkHOykyBlScRZYsp5DGdsgKEB04qU0w/h4eC2yZnOvacVZa++Ykvc4t2nnO1wS5vm7hmX4E+VOljsquY/Ke9Hal6DcqbwMjHvbeYcF8IrGHNr2Oa95/01p5wRCIaFDbGYUtPumGq03LWMYx6M1V/zlWvGWrFpYYYQSinDMJQQhqG3RvgZpmt1+rS1h+gsX54CAInv7uM3aesO/xZq7Wvnw02jfAvkSLQuAcTfbx1tD182Xuzi7a5xVUkHO2EgjDH+cRaI48kbbgoSNEXZJGKayg11kgnN1h7LpDcs7AXDec2NmLxuEsKYPlps7VaQ7aSStLleKEhmbDviOrP4T0GbhFCZ6CG6bN2X4e8U4XRMonJpSrsMZw9khBLOhV285cVd4eySqdbNZm5hImePAiMoxJsaotT8qFvzHbi4LZiaYYdV8HrJ7gZj2idj+VUaw+mJudRNKef+Y9TQJ8NEhiHEJ4N6f4+nhvnRWl3jYUstNA4AiW3+hkOlus2yvsydDSOK5M+ZKN0BsJvfO9peMUbbwlnCzb/zrUfBGO/GFVOejbk0Kl5COrOKcq30bLaoaFpCuoe8up+ptMm/t5T5UV6MMWWbWzSfjOZvQFxSFoRd7mTuTRWocBaPpUq1aQVuPjPXW3mZ0kI/2dTLOQ6E/xbwKpqGvjKSbwBnK9T05YEdhmF8lgQljFR1lr38jy2vcpozJlrTWgw1DYgwRU/zm8Nw9siQgNkobAijjHFxw8Yowy+VSxxZ4zFgjEGWCMdTs3cHM35TaVj0Z8PCpuc4XH28fM95CwcKABKJVqdrNWTR0JWHrSzjplK+OzCtZKE8idYrAHv5raPt6ZvPDC86VfjMy2mmU9eSv93ZGpVQzKGVUH6ekm5AXF+TXIdanSsxw3ziPKbW2YekmVIRNQVE6RoqN3dbyeCmxqnpNDabF8V1aIslT9GPgmRvTK3sJWLsPWjZGi13M1JfC9irtdiecPfa0lE1N25ejGGPnvmWEYZKLXeAL+GEZfP+m8cXcwe/8n8yTTSHY/b5vNTcuOGV6RNtCM2GdGt8mIXxtgzUlEfZsdLs3wLDKoZuMpQypt0xF3FFbyM7l6H0v57PXJVaw6x+c7Y/D/hMACCJREdrlRX67r3yxMoyrs7KsItLs2VMl2i9ArAjRVJ3IFloUy6I+2MqF13Umou8Jf7P3nkHWlYU+b/qTiANUYIoCOIiqAhGBBURVHCVoCKiqLC/1XVXMSwiiugCImtEMGDAsCLuChjAlSCYkGgCyRIlI3EGBibPm1u/P7rCt/qc+2aQtLzX5Thz7rkdq/tyPl2nurrLE31AuFQZP0m9k76XlXu4cXxgXmpD3IzqoOXmwkI/bLRnFTGaRRETuVMy93/CoKsVstbixVaWUTBrSjYypli+3YZhOxj+Ftt0hS2pCkFh0qhbAuWIsXsxadprfgYDcDi0InBjObkjLJGJcSwGbtC2vNiB6IZFR2ARAGY9Us05GLWqul345fOChMGazbYNTjrZoC/a/pLm+kMvfPKBL1wiAyLa4q2fnHf2UYPBg520TZo0eahy+10zN97toPHTvOPVz//mwe98dNrTpMkjIZPXavvHv9zg19OmEI1vdR3fbvpgZGQmBCTuq7H35sjGLXM73GJIFJbOQNiqyZW9FuGswjIKe6c47Y20vS5DpxzBRd1nBQyWuLGsfxUiAWZdM21vPmwGZwhObXLteQvxuDJNF4c4JJ6uIJtAaVCCCBGzQLHRCzYjszVBICiCqI8BNI/NOZYloq/5OHlXmYuJV0oh2L44kAy7Y3ZjIeHi8KCFszDJGiuOnb+fhhZauHhs0zcdNKwdtZs0afLIyo/P+N2Tdj5w7qKxcdJ8fd/dvv2Jdw0Gk5cNmkwAmbzT98NfPrFcPHs9PWi3tmSO/+SVLueMTtl7UzoJBL7qktZ4ILgs7aiEo0Dua4oir786D/tiXc4yticiq45K1rEld8tnM2S6GZGrhrFlG2dxACCOJBrgWDVerOHl/iCniXf9FBZNVBqmrtXCRPBy32aAKCt6UXX3sjlZ1Oac6xCyrzgDtcA1U4TFTSxuiwAmGnSmnitdnJvFyjN7tZqT7R0AP2/9ufu/Qs9xuPaWu/b53HHUpEmTR0vesv9Rux90zPhpbvjJof/25h0eleY0afIIyuRF2wuvvqlcvOtlPeevOFZ0gVEiRb5YakpCixqmqIoyc1i/HbEuftx2OA4h0pR7QJnJFoil9XJnX0XS+dvtvlUj+9DOsnWA0m9bKIBw/vRaBJsahfSgZEpSmZAxOedWkfOfXWvDdCgxNIGwhPEW6/NjxjhpoZwOxmrjLHZZLp4GossrDuZlIodGLS8Zk81M6njt5lgH3ETbVijFqRD6kWJC9KyozPDL2nph7wMEQ2NHar/3qV1u2XiteeX6Gyeeddp5I0PEN2nS5OGSRYsWv3jvTx4/+kQGInrS6ivd/5sjN1xvnUetVU2aPHIySdF2bMmSOfP0qKSXPv2+cVIG40h9Z6milFCBbNcWSxU8sLHG+KbYrgG1aiAbRIl7P6bN9Sl3ro8p+KkrmFHCvqcfCemO+2rxa1TNwHEtTMW+14olWCv0iCVUaG51pZ5KjGICYho9qm4kFQBARU6lzJTVdYG2W0aMDKoOQGS/TURCQ4jFRn44LgMis2jUsHI4goU4YIsC5rjtK6RiHebioRtRjA1G2Y2ute/2wCjZfITFDM02yprew4GFjdlYW8hPkrjswEv8UOvXfvCo5pbQpMkjKgsXLVpum/f+7qpbx0nzlHVWu+30I1ZeacVHrVVNmjyiMkm3kV16rR6ryyybrDu/+jbwBG76+VHj2VIl6CWRWF3WCCgVTLEsMugrCHhRqroMCrvG1KqE+uU245d95l7o8KjeaTlOWpVSsCIJdSOh1umrZnfY162z/kJev8ThqbJXiwyWYDeYAUnJTKHTKBYKUhAWEuIBCQkz+xYrof5KY/AG3h22mFoCEbeEYOEF3YN9aeKWYrE9dsU2bCmZYznC1Yi6zbUkAmuuLzhi7PLKg0FzuottwHLZRy/e5LDnlzJXfvn77z/zS1OaY1+TJo+A/Oq8S171wa+Nn2aNlZbbYavN/uVT31/GMrfb7Cl77rLtQ25akyaPoExStP3NBRr2a+XlxqbaU9Wf5QsX86dO2aDc/NjONy03tbap1lKxMH5MyJEvxpOwgvYBnCBMjCgW67bW+LYw6do+eyGv13DrUMWQtkaoThuqwqvGcyTuJ+PeRUNvqgroC3oFgzEXu2O3mmo5UvQkGuZVrKFirZQ0BAbgedEQegXvUyKSYdfp2PsvhCVH6DEh0HO9qECsZAJbOgtDcSIKsRloaWjOyx6OgVj4oFPXL3V/4rU3S3Jv4Lpx1dHBHm0CENg8emWjNRf9YO+r9/zeJkQ0b8Gi1+//9Z99YR9q0qTJwy1L5VoimjV34bf/99xlL3P5Rc9raNvk/7hMUmPJN3+qsb223SS8EfzZvHBs8JnTNih/Fo/VFs6lElE2av59glTa+xVDrb2812HfHh4iBKNOc8FIKWBcLBZQNGKHsymWE9n6euAmR1ZDbzSyInLsLI2nXIsAQJQPQcg60S1bPfqxMgV04v4M6lfLGUnr0RH4RzdmxWFjaMvlbmZJY2m9qFdVoRBoH+Hw6G1hFmJhTAF+C6oLX/Rw1F4OOWMi+vQv1i9/WHGZPOKxjXEJs8CoYy3TYotpC8Q9fYlIdn/uzO021p/eyede+tljT6cmTZo0adLk4ZBJirbX3nJ3uTjsDTcsNXGPeY0ytiHFjSa6h1PE7a9eL5CDsxG5eyiSb5/dFMkq7lCAJpPaer2bNX93raq53gBra792oZQ5rFtetzA3zC9jZx7351CYdVuugJq81xzfsPM6jDQAsXUpzwOBQoqeRCghNthwUy+ivxIHv5GdkYCqqEtDKf626BVhMC7MnleqvNEk0TBfLB5mDKYCh6HbOxwMLuZ6KxZCl7wZ+MMgGF/+xXv+8uTV1N/9gK+edM3Nd1KTJk2aNGnykGUyou2SJUO/fsaTakfb8SWe9mig7OJUL5ItQ6nLlpb9RFUiAd9IUm5ItSMpdtvnrOlYhqAGMIYArZ97O9mxsIY9UXIy/Jtt4xRiENaC6wbLpT3GjUho9PV2MNEgxxLQ+xVd6v/TYsCMrx07q6VACEwMx26lzSjeqb38O+BYOWA3han8TxhsxpwKEQKPYEpTgYQGcHQCUyqhcKlaWtnbVPalgSmWFekHzrIsaLt19TCHnwa2IostRf5y4J/93qZvWkoY+SZNmjRp0mRZZDKirXsjLDd1CdEyg6UE+NX2yp4SHgytZt6qy8BYUmrFgzuUraFhYqygu48wqkbasavaz8Ry3e50cTkXK9AEIRJmGTjTdE6zwmKxtUHerLQNMR+0s5X2osvgPDCEs3MHRCXMFu7EkmL07MI00r0ZURVnPTyXpU/LAPvsPzE0ZUIIM+tRPtVMWZYMjiWvDByA8cxesSnqGd28qkoXZuNWWwKUosUUDMG7UuwCJmsj+C3DaEml/941X9I5Ea04Tf6038Ve22ZvPkRawIQmTZo0afLQZDKi7fdP/0O5eNUzZxEtm4UVzY4V3fanf3Bm27qmqIWJBxEDiwhMoVRt3bFvu+ZJKFvQowDfMOPeMgmC7Cmt4vrON9hacVXk4GmB411E9jYIfpVNs17FOIQ9NMovlmxXLNo4IRSaVlIFnUDLKxORiMM0DERtq2YnUghhW4JmERuywrFjvjeNSHdrFVyMllg7PJhu0go2xVdA3nPXWiCxkHopuH40BBh6xKLoybxC0S6uhwgttaZVn3IpxkVke8568z+wrYYrueKG29/16WXdpt2kSZMmTZr0ymRE26tu0DMaXrP5rLg7PrB22DLlWrosQzo3K1ZE5+bJygZH2WFgJKFD1cUaiEjp5kPiTERFBn04DxgXbIZ3ig1UeqJI1U3qBVNrA7tds+pcxxbYbykcENmOpzCOku2Y4qrR0B7k8vK9aV6KK0g3LDAiJjG5x4u5ARQkFL1kUbz1rgK7kkR3mEtQWDeypnAHXn6lFofjMhS6U8/C3zITaxCxOKDX2qXjx9EaL9w9M2DZxqF/VJ1xunMzuRp7hvPw19282RPnlutv/+95Pz//cmrSpEmTJk3+Xpl0wb8emLfg3gfUv/YfN59JlGBGP1ZSsdmy4izKaCOuZBuf2he779m9Ys4ottRaLK+baQX2u6dkiJ6YywsxorPoqn11WSP73yy7ZbiL0eMqdik690orWycJEmO9HuDQvZKuu66yQbH6MLCHx8pHbnHXT4CCPuOlf7kDwWNNFZXhXYgGREPzrfXgE67Y0kixOATE+UKih8KWSzQ+Q4llO3TUJhKhAdsdMR1wHbbCG9A74hRfiS8Z3K5LfYtCGH0hIvr9By9b++MvnLdoChG9Zt+v3PurI1dbuUWPb9LkocpNJ33yYS9zheWmP+xlNmny8MqkQ9s7Z93v109afTGRuTQSUmZH/h6cXQbpoQWkgR674LjoDSXUL5aLfU3iNXFAkXd7FH9ACeRMNVAw88hf/fTjVlPXMeKPs2PuS2pYXHAgXWWptc5Vmcgts2JgifZFCauqX4swW9QqaK1wsXqW3g6shKFUqvPor+F14Kxd+RcIHGprKYWYRHQvltjBDEkJcKycatbMtLF6YUat1oMEy5qw75YwCrG+qhdX1bIqUBuSeS7sb9+sCJv1sEzU5abKzYdcuOaBW5bvN9z1o/f++ovc42/TpEmTByFPedLaj3UTmjR5DGTSOSQc/t+/KBcrTh+LSElOXw8JYUc8iSWnkUASNaUlV1rKXIsohn8kldmtC3ky3Ew5pZO6cbkIru8LWWu9BAjeH8bRisija+bZSea2iWm9v4Cy8IGUNuG+lFtiXMdRUnB2FAvNwm9NU7oJKzbQCbSc7LTbAmTYShKOd/R+jhiRiDdORw1OPSBn+nIILUGgB5awmjINGB0McP3hO8ukuMHCCbcS7/6NoTlrTxFXzOFdVzhpAAAgAElEQVSFnY1jLMaZGzZ/6ilUgWw1CpC+9Dp2FtKqyy/5r7dcW1LNnrvgH//9y53amzRp0qRJk6XLpEPbo086p1x85DU36y1gqh5ZCuzi18Px6LZQXfc4gFrQ5Mj5Zl9zkRDRDRfT9lSEuDx6DjhzKywOK2Q2aKmgPBsyoeFqhbRTE9DXM1uLCa2t5VuOmwaWJMaBlBN70l7aturEUFtcdQXyStGcFYfWShZKDrdi3gN+9JdaJs0C6hHCtJSwopZGJ9O1B+o1TBZKCwgmsQi4zEb0krtcrYQ8hoIpX5vNnEaIePz/IIQ62Ro16ExObymueWDC9wfnZSJ6+wvv2XIDfalyxu//8vnvnzFeY5o0adKkSZM+mXRo6/KObe4gynaobJNSGYW8PURcGVO7SboVjDKPdb9NEBDYg2Zgd0LgbiHdj9xfuwC7UNlsJGFDjESsRDeycLApErxFVwdXz9pdD/TBvdhhABG0qzMwEWhVbZoZsLTLbKdFKBZqUUHkiU2jGiiqnPKlnSpKt41imoitA+J9tiay46mWn+PyCrSmgKbaN8nKF63PDkfwLXvaa7SRWlomcvOx2d2lREPoncAd3YrFIsPJEvERetdgZLO0Ov+hV7Rx533giqesvqDc+vBRJ94xc/b42Zo0adKkSZNKJhfaXnH9bX692gqLe1J0TI2jH8ndxz854kCMrexLGtY3vxj2UWYvlhmrVLzUgdnc5l5wHPe6qwTvXY9d1lvuH8XskcY9RmFEYI5VLuysB3p6wUGQqbP+fp9N8500GnIrhkPwiGAjKisN87KElZMsM/nxBxYwwHduJbss2CnZnAOYxD0AwP9VvHfkUO6rFfFSxb4g4jAb64LGlOhb0wp56/Fk4mpPiOm+JX2Tp5q3poA8+kjROGA2S/0/L3WsDGhDXGjQhks+fKkXte5rPjx3/sJOO5o0adKkSZORMrm2kZ145kXl4smrLZheuh5PZ3E8Wnn6kms+pbFvV1xuCAWMw2G2cz1SdtOkfyxZh19TBjCUenSwbjGRYFQzxSO2cnCIuZWmM13Lx2G9PYgqOqn4xkyq5A6lXlQYO3PHKXFj9NgCHVAnzAIbvJlapK9VHLEBiPCwsrx8kOgymRYSe7H673qBbi4uhtIE2dgBUm8EijSM5F067sNh9Gmt8N1yHC1kIbFAtJErbOAYb0GD1lqsgyB4wv5ia+0TntMhRHztf/zZysZCqglsDakmDA/capz77hye5o4rfcb04QUfvOwFR2xebmzx1k9ed+Jh1KRJkyZNmiybTC6r7em/v6JcPG+DOXormQbLZx4MaMM1F5Q/A8ZE0slFCm0cNsoMZL2WKu7cpMqkZhDl34xDvRUWS26ep9EIAgl1uvioUvlQ9sKNlVk5eSaVjl4MpN64O2gNoJGEBBC8ygwmSWEDd8TNKn3dMVJ76IA8bIHYEQtEYYAmJvAusKIM64zj2Q4GI2INYVsNbKiF7VgHLgekuUnZvAWcN7nsDfNDljmpaiCk54lFdTKA6rqq8JWSmW995WCpNlxj4YZrLNzwCQtqtYe/CmkhiWsJVjXO1uQjZDVCLLSE6LTFk+ft93J9wfLX2+5+538eS02aNGnSpMmyyeRC2/Mvvb5cvO3Fd4xIgodRdWxy+E3gbnk8MzzIqc6YrqvysRavSIIwus3pfMhSobMRg1LIQG8KNJ6MbGrbXtVm41oheAPv3zOwSyrE8TFde8JwUcAOYwfF+BVZ2XdspciykBNbUhdHRAVk3S2gJLcIXK4i5lBm4ntsj0aa1bBhVT31oWK4DiAPvCsiFmdByvEI4osknQ2G0dgxHwuMbuA1CIUjR6VO6IpCamVXxi4I5TKx7SPWUZ07voesNDg0FUSLGT+z8y3PXEfPcfjOz847689Xd6tp0qRJkyZNujK50NZlly1m5hvZBKZSm9pqck1mVrBIaYH4tK6QEcUo1mGxYGK4J1oyoV6OqACTyFhHy4aMjk51C6UD5S5VyyUgvtwvaKaAVgOKtabcGpagVAY3UXOmqu5YMACikMKsnYxgStPtXckKHX4A4nfEDNIaqAG14YTIQOtumfQOq1q16x53TNT+KNqEAVl0NDe1qpqES8tZcFFU4nMxBBBTgC4l2OYznyrlaDECI67bXas1ScWj1v04KreLs3lVZpHRRsyTPpZ1jeDPJKyzmGyQhsjy/H7fy6ewugO9/N1HzJw9t1txkyZNmjRpUskkQtvfXHCVX0/p6XfHNOsS1inRj1Ll6jOU9qNiNtsJ3IkdZpjbyxzkj1WB7hgAr86lSmbmPy0dCSY1GKKoJp7koOTa6NdRSG6ekvYAiJHCCUHcJTMAlMJMC0UJqcep60gCZCXoMJqXg7kS+St/YTtNtnISjY5Z/6MEM3Gy7QkrZOuWT8/LRtVsFC+WhuOQMOugjYSOn2QdejBg93tgHrBXBYm9Rr0INw9WFA+I5bCkuv5wGePmfJyHYBseLbgsyZsdw/F3RGJf1xGT8ApTZdZ/XuAt2PRNB40tWbLU6ps0adKkySSXSYS2HzjihHKx1UbdiEJS/UuERJuBIOFE9ajPKFZ/C2SAAJZslNVnNGX1iplRndjq9Ax94PyxaxwlMidTYFDFK8BEZCD8iAK47NY+gZtQb2U6LddGQbrLDTpmm6VSeu+1QE9BJ1qnHzUmUEJqkhXK0H/1UM5gVhKo9t28mnWrPbEdaiXSlwiTR2qA1pcC4QwuYXLjsLhScNEy7CxR0CwqUbdTZlqcUFJUyMACyYHqlipiUB1/JI841ghzxjNCr8s3K06Xb+/x13L7nvvmvPCfPrVsTWnSpEmTJpNXJhHaXn3TneXiPdt5CDDYDQOgtWQJXfm3la68Y4Urb19xiScg0ie2gtYopIOUaIIVCyAgiBa9efGr3gSAnoLIUlkfHZMGnex9haMS0L1T7X9Vg0c3DEtTavF4Vv39kgp9VF0Wh4CK3dfDIVShDNzczeSIKUKiW7iKQyrb6QYS7/uDayvrZWgBkMt7oDjrVJbDsJV8LCkVG+BipaJfVZEvLFAt1Cs4uMqmlRoleBpnVyw8cIZ0gD5RaYQyu/LO5a+8c4Ur71yBliqCywxcSuFKA0cNeguaM/GWy14vvOd1m6n70MXX3Hrkcb9aemOaNGnSpMkklskS/GvR4rHFY/o28wUbzglUxaigdm/OwilbHPKC8mnWl8+dsdySHqdNlYot8v30iMcASRghCwXtiF3hIJgwZ3rNyDpWrETq3FrLJsFomjI8cSWTCuJU7dJqlZR+aVfN+glblLjHjAdE5p1SJVgEMEn6BGMtjlwEgCgQa3G0yqaskrzEOmBrijdBr2VgmSoKZ9MQqE+8De7nIaSessbK1kY7j1iArt2zosQ0EOutTxbGIvqmimlDrJI6AeeLCi5hgdRfMm3+2eeUi8VH/C4pW1ylEhF6Ea87RVkugbylp7bBMQak/on9cO9r1/vEynfNmU5EH/zij96xy0tWWWkZaLtJkyZNmkxKmSxW2z/+5cZyMYWHG601X218RLA/xqWOsxXGXeSobhpyi5qV7BfiBResGn/P1ggRcnNaF8eVvqIchtYgLhuDCpCxvmnvUDvnj/p5CDWxdkZYg1XpiQb62cxvbh2srIZEZCGtiFi9BaJWIeDabBM2PCWDYA19Rawv/WEsIsCse5O43dcDX7kDBImnpGL3ZhHY4e9JzK4opBZiKQG60JCeoy3YhjC4U1pjSx1rg591tpSljlRci9jqixM0psI6ojfoW9I06tuVw3CHKB10jKW4tvK3ZkavSo3VWlWp6ChcfcAlfnvNHfZ7YN6CnsY3adKkSZMmkwdtz/j9X8rFE2YsHjjbuJitr8c+l8yL2eKFKYJL7H1uoCHmkrrqXnapLF9YeNx1Ixxj4/s5plQUGFEdnOsoM+gATbdZfjSseg6oH6puzTd7ZV9e2Ljkoa6seouClTWDjQxLn3ZPlALLDUNCAZXinrNQCll1vrpx1BW9Mch2VqzXygg/Ag+wxZ7OdWHNst6VuoRL6DGSgXjUiNRf8HfwUS6o58skYHFg2epvJFGGjKSqq2a1ROp6lorvc6umWTVe+UbMXq+0D6m9lf5LFMsvQkQzllty3vsuL3cXjy159lsOHV1IkyZNmjSZ1DJZ0PaYk88vFztsdq/eSsjEfde9Un0L6QOWuA8OCDClexNv9CFCunJo9qhJyBmIc0AhDriJ7Ku6hp1GZzgUYtEoVBX6mHUSv3BCUagKD1I/WCFsuqgaqW9YCXoCQiI4qDIAERtWLKxm/sVYXWAaDQ0ZkTlJi4aYLcENGPyAk8nR7jqEAmNK1ELWDGIiGuaVTZ4/rqJ4t+BD2Z1LWJK1orqfh8zKQh1AaXW84CpZvfCwVOCzq+WkqiWVkGgeFmm5RiYi3vIpcz/2CvWSv+mOmXt/4rt11U2aNGnSpMnkQdtb71aiPWinm4g4uwRw56JXcuirAj+BHcZC8Wq4Y7Aaxc3CQSoCN/E1OOeM0RLpIALFnTqEkzMHMhAKp+za6wEa0gC8g3U4Wt+FFaljjtWa7+qkOmiAoUHmHVC2ZsV+PvYSE626M4gEyzLilSTNYlmmemJ2unVI9b6GoixvAVdz8xVQUFJ2adkg/wYDhmujKVHPnbiG0iOsATif1Nmrz7ZGcDD1XHWNdSlpZKsvfN8k4TBJ6o7AH8KRLB8GRD6N6ZBX3/bC9R8o18ee9vvfXtjOcWjSpEmTJrVMCrRdsHCxX2+45kIiR0PuPLB76bYwqz2Pdcu/AVg8p3v5svrYqUgf8EwyiN3iTNlm5nyA2avyU3GaheFmbYRDqcoxe2QgKey3E2QQvfZNZPaVGPpLrZbUXjek5s9+R32LxQMkwAY6MQsh9gKVYO++pbSMoXEsce29TMrycTF6dmO1w2qJ8+uh19JYO5qjhVuq9UnUj9lNdeyTCumvd9Dz5PSPMTN7teQJDDdxKHIumKyI0a6lUHxuWTXlBDjblwUc2dyVnP3XBesUYSI+571/8eK2e88R9z4wr1ZFkyZNmjSZ3DIp0PZLJ/y6XKw0fQzgr/OMD6lQgOEJC0a1cVixR4YBJfjS1vjHCvcEvUayit4QQDGEEzBHZu4M1Fia4Xv0KyOUeFkVoztySVUYkVvHc2uBcyE8lXZc/QB057z7OZABNJPycu1HW9IX2tRwruzmXjbYdzBXjoOVh1Rn+ZpHQvjvOoL54IV7h3URc8JIMFHXzVSyFjFIMIHR1IevWomlnWexyuhdQdUzp1rJMCxCsMaUJ+4Lgy7TV5CSNaUXUK2DyO35nswPitO/Yiejjq1MZbrtoD97izbd/SBq0qRJkyZNQCYF2v7gjD+Vi522mNX3sO9IFecU+aNm4vEFkNGf2fF63p/inKNpdW17UX2+mXeG9eRCVCJoPR5tCmH2/RzUKNlQvoddCAiGSAYAVJWHZXWUWvRICtebYlldVdnACcObJfaKUXGmTBxfK4yJmQZMA/ZgBIrLjqAlvIH51drwiPaHbFoI9NqihKV4DOCLLN2IwqnNYAP17iB6+tc4BzDohNdtKxcsClXgNE6B0ex3Aj2Z6hGH7HqNexCr9WG14JHI4hcJ7zlXJNEdgjEV7xoJ8dozFn/zjTeUJHfd+8Az9jhI6jVDkyZNmjSZvDIp0Pb62+4uF6/dfGaHFbLoDiG8U6UYh2urxzyTMDttBHMAVjLWwd3KMkD0vP+NvIz0MV4HPCBrhR+5QOr9ruS3L/MFDcnJN2729gsCoTq6CoXTQQ8jE4W7ceGzgbgvANw3NnalCKheEixRyurILhLmW0lbtxR6uQynM6/vSkuVZ6UhzGpJbDZrys3pNa92BkJw7eEdwGRcX6t9OVAyHy8H9XbfGLCrycG3qstbC/ENBErLrimcFlfB3/UPIgG195P/35b3vP35+qO+6sY7j/rhmdSkSZMmTZoQ0WRA25mz586Zv7Bcv+IZ93a+l/x47ZDrMplo0R7pWCAU+5zKPTSJYaVVOdJ95CeUxCT9hXcQp9jnHFkEUCGl5M4dr0bLCVinqg09ZmMjHUQWP1CB1Zbqwa80rFiYHynbMB2IU5w2UUeBiLVmvrQW5KxENkA0Z7aOlBWBLkSUTR2pxMHVHH3Z0hdYrDcjggo4OqH1ghW4YHCif2d6H0HYRCgVL3YVnmeSYI2AmE6oWaN55DykRC6wOBf7GiHXRLiqiW845e82N6zIVgaOv6TdhBFAjYiEvvOm69deaVH59P4jTrjqxtupSZMmTZo0mQxoe/MdM/16rRljCRTE6AVsavpWvJaeW/lbQBMxMmD8dhQjZ4NZ3PGdWGSPdQOq8RqG9rPyvR9X4LTGwEYS3e7vJkfEWY8SQE6AWC8FoVgVhkIc2+4UjQwPIwytc6JQIKa2E5xXHXAEMVTMPAgk6i3jErFMOZjYThvzUv0OpVyOeHriL8feJ2TH0J5/a4r10UD7ZaSpVGeNiXEA/GVkSpyvncFSAu6GZvAGDHMuW6rEeonwym94U/J9XRfY8gFbhTMtFxyhK9y9wZQlmCit0xiKYOIbPxbnOGz+1k/OX7iobnOTJk2aNJl8MvHR9vD/+WW5WHUFj5MAIQgqW5vgI9zuEHUYIoszaNi6/CFNQIEInQg0Xiu8ZVajlxvwqlL7GBTbKZCLDOKr8KpEAB+OwPiVcalgYATz2Kg8kjVpIUtJ5YiAvwGRHS2bo1Kp363esf+VT2ygb1pjuwiCY6A/JuLiPqumRrfkQgNsAWH1ckln9Vp/ZRCkJpS5sDJUEmjMF05GYpnSCMdGhx5HeVCb1WtfaiwGrbN2ly2MRM98G5RK3RIPySrAdUFatbWOoALc5ZdT16oZ5XQct7O2exaBvtQUiPsmRDJtivz23RowYfHYkme86eBeDTVp0qRJk0klEx9tf3DGH8vFobveaPcYsKPnSc4sT33C/PKnjtfkElCKu2q8KIY7iQsjuzKYQCFiVOQWyShuhDFsECU7ToXdLrOCEHkMglSyl9kXXCvFju2SR2pZEI8FSWVxw3hXTRhzwDGLSyRdlmJtFSBmpqxiZCR1I/X376Unghv0NE6CM3uplw3YNSKVt9eKcmwnop4D2/C9v78T8Fhp9WqB4wLjEtRzMPeyUrYTni9g0sYyhqVRVSmoimErXo3dmuupaywof8yPomhGj4EjxjAVvtbAGim+DX71HwT3paRugVL3sfxaBkT0kg3nHPTKW0u2m+6Y9Y7DvtdRV5MmTZo0mVwy9bFuwKMne219R74hGUDjYpXl5er/LEEVuo98UvIjfBZXhrHOcz3VSGZ2dP5wa6MlZjSeOc9VxjCD62KODZTxb6uITuIIBygpoi0Z6q4mLYw7XWeLX+Z6c2oRYS7/EGvMLcNJ5KfSSduGBS/xC/YwDYiGxAN2tQiLA6Y7zpoqJEaCxbwlOPTFQPdlqVBOXnB1Q+guXEmEMn0AKktkJTh5zKwpkoejyuE3K29dyZBaiU8ez+izxVdaFUkL0TAsvugcLGbZtZZDxTrK13z0khhAHwRNwGnGphaGMuJDz4LIE7mixAbOVUl47T9YHKGPv/L2n1+16p9uXZmI/uvk89/66hdt/4JNeytr0qRJkyaTQSa41faCK2+0S1l+utPiOI9k2LgtYAQ1WElxCGqbkxcb1+mBXm0GCjuWP7bt3XdsUe9ppEbGQt6LTfp1x6qmctRF9lEtow694h2Cf8xURmo1LAG6SHGSLWqWmjkF+4k1GoWJUpWfxeB1Wd5QIPgSqBtDqTYNppDkExFEs0uwviYYMKlxV9wzReK8N5FiEQxbb5QYTQNG9K4khVUWU0nZOY1CanLF0Do0ZqNVW7jX6DiY67Ke6LgRrgh66bOoASazeIcpj6DLEDNnFVURvuIrnH4wN4TFlzDVDE0lMfSHfI3FdP77rlxh2pKS5hX7HHn7zNmd6ps0adKkyWSRCY62x/3ignKx0Zrzp/g74pFOBkSxZwqwqtzi7majypKH9jYF3IQL3XxJ2Ik1F4imSk65IayS2SsBQGsytl1gDhZa1cDSVZNBcu1mPDMiF7IoB1I2ETlzMGwjiy54Zm2orRmYyYypIjTIVjo1LdrIqcFSbD9X6Y7FocDRyfu6FIu10RS3yqcBU4wtMCCOHexqM50b4+KgV6sd1lkgcLP/kOeO7qP8NBY5nSnG557Dq7itmV1TI2Darp2bsW1hppW+2qEUmJe9ySiNrI9lrJKiIUT+f8pahwMf9A6RsPBf9rvM7z59t/+gJk2aNGkyWWWCo+2ZF1xZLrZ+2v3BBzVYJMNQgSVDFgkTFHgdOMNllqV4CivNWEwAISAGBITKzsidO5rfjHRlIzoRhZUxW+Hi2K0oQewrpXRRg6Xi7RDTQb1hBRTTS4darCLxGFwCpakCWdxrld1IGsRsORDBEOV0F5mY560yNRMm0EoHvpwIFai9kwTCjHV6MWJQwp9V1HoamgGgTDjr02zEK/sUOau7VmId3IgdUZXgjUQGlWQrLf10239FjikjBFUIPga8z5kBZt0hmzpmWl/eECiKyiIEJojNS5sMDP85sp9YTCkL6IY/C4VjIVl/tcXHvOn6knfO/IUvfudnOxpr0qRJkyaTQiY42l50jW4x2XPLu4goPartwZph13hFWasCi2RwgjscuckyFktgDVIVXAWMKHTibamIKmcxWxmU5s1ANCGkHDCb2WYgwCan5tRlg2XnR4+PZgpCMzgbkTBFQNmIiEoRibbXjugW34KiLMJ+iIJrwCCngHKpo7DR0BujMRGgx+Bz4E2V1AClJfFew1ooG4XTksbUppDHJINsyh1HbKSk4kVvmCuuj3E9V6AgTi9scEWr7HVxWtfEuHNPxths52Xbh2qKirlTg3tuucGO7FYzrIRwiRC9KT8OTt33ev338LbnzdrzufeUD7+77PrvnnweNWnSpEmTyScTHG1dXvFMd7/zR7b7L9rj3p/ZFl0ov5ytjG3GHAIPZ7K8GMmqqjcBiG+3d09HfA3NRAP344SjBAjgwlESmkbkXGHBFvTNe0qkByewF1JgV4jITuRiz27flgIkNOK6M3+BQiPiCb01yl+CfGs3ObRpXKTaLG0qfRfblh/wzZAsgNk9gd02nYYAB9RJyzQYNshqXcI2ZLC6kE5C9jKrjPk68nL+hqE9VQWgpITZ2Y2lv2qBxL54K5+5tyc6uBXPc3yDi52OroxHI9yE6OqgHMiMK45oKywIivO0hPUXl0M2ZwL3S5HHvOmGGdPV6fafDzsWXO2bNGnSpMlkkYmMtj87+2K/HpC5EpI/xH0fDKCMMBHNXjBl+rtfNv3dL5v+7m3mLHAcRDZleLJaXnIgKRapzub3dDFIGWvToP8d9VoFaqrEnrK+rxe3YTENAHSEZJjtf0xELOq76HAddZLu19IMkr+zQikhEjMTaQjb0JkZTM2VAFYIgN7GMaI0xArUlaky7+IL3Q+o2HetBqfsbIH2tjtvwYhIFyi5M0xiGd0nItSRLqCb8C+a4a0ZkQBpG5tqDZNuwf0AHYe9kdTJNEAF2y4u1zCbuqL8aftvOe3DL5q2/4vwJsXRG4K50uIqvMBdKQywzHCXUuESOi4YLuBIbS0WO0UuUrOoT/bMg/88bYr+tLd+x2fHxpZQkyZNmjSZTDKR0Xafzx9XLrbf9F4iIobOxvO+AtYwHWbxR3U8TcXuGEn4875r7UO+KABmpiwtD2kmEwZRF6OV2LSqgpMk3gzgLyIiGvQdHeY7z7wpXo+aac2ohgTDcCcuxEmEIlwXUzkFjIXIXIS9KNjT5nvC6lf+Eo0NzRTlV16zpe2ijGv4DzVi7W4zNJfWNGIc9mXyOiyjQtuAGHaDYfYgf2REY3yhvIcMo8By3TzsnFA2taaOZy0NSNwPxsq3uaA+y6gezA7BMar552BKSO9+t0R9EwpkZ1daLf4DM7u+TWO3yZsC/VNWcMRl1t+dMNGgzGAmGgzo7H9TD/uxJcN1/nH/bhuaNGnSpMkElomMtrfedV+5+MArbjVwEjDOEZiJEvrkBzJa+Mxc57kDDSN1ZQkjBAazzHXAApmGgeq4It9SkKSnfeWMGyzoYROAprLjgAdd0hNorXVmS/XPHju39FrPBSvAlHufwyOgZnV3XuHd0IqtEogZ6LnHKG5qHQiDjdn1bG4kHZ6yZrviJXAqpVHlVmokWLeYTnrjWyX9C7QK2hWLH8kWZSvOgk6kVMnEyXBBOElISOMTc6fBpmJwSknwnfWZQntA83S2+yLNIr+x1AX26gRS1IsB7bvAJJPkaZHXJ1KpQGy1RkT0wvXmfeJV6mQ/6/65//aZ/6YmTZo0aTJpZMKi7bwFcaD8s588rwOa3EEElyoUEew0D4/QCiX9SDA8zVXsjANzTgggxT3pDh/Z1JcIyZ12JUyAmCoBOzpveoON59jwHQAOsSAbFR0x2ZDWkdNcNkuJjCcpxG441Ybo1ngz7GkkXeNfpbfYEGQRXHNLfHWRg0U5s9Xk5wkg2kCNs0FslUKhOv87K52lziiYzVWEdXl1A1M49MSXKPU6hqtbWSQbns0OXbFmdK2qUZUHWqm7kfMWy6/DpN23kaaotcPGPjMS1/oHppTXbbjM5O8FmERfKOBeQihCf6IHbnf709eaX24efdI5v/7TlbXamjRp0qTJBJUJi7bnXHxtuZg+WPLk1RaO4B58/Eu63StdvglhoqFxJNBkeZ5HtdzBnXJXn9f2t723Fi4kZ64QaJDDplaw55RrHWSrReEzdcWba9fsDVBznNpZ1Z5n7rBiOOKWYA/hxFYIO1OTmX4tOFfpJodLb6AfJx8PPGBXfBWBmqfgv0B2f1tdKQtHEJcloo2qibaS3uUNQJbvTRTMgumg3Mqm2z/z8GZup66JYJEGiG9F2wqqDK25qcIswQpGLfnKfGHW6qSsT9xa6+dEd5sb0J+nbmCrfcdJscXv2oMjMB4pgVpMaGyTlrHPMXgAACAASURBVIiu2Pdy31K24/u/dPs97RyHJk2aNJkUMmHR9tTzLisX6662iEee0ZDtYemVMaapLjR1vhaiAbuXqRjYddlFyQIhW4MSWNhZ1s0zpSWcTtE1IkktT1gURkpjEfEXuAoogIOliQx4AfUImRdv8oMVGmjLzBAa8ChlM5uYmVYktZ1YwSjs0GwH7VJil16Cp67q7Fuk0spjA9XTyYjrEN8ZVhMmol62xfqSw7Xr6yWuSmCfGNFU7hh/a0mDZdUyTACbJ3Wy4o6cXS9CSb66wJp8fVWhuSoHogOz+SHoscyCOgJ6jvAepCuiKDKazt7Eshkx+LvC3cTBAcnsw2iOIiX5pf9+RUm1ZCjr73zAkmGcoNakSZMmTSaqTFi0Pe4XfyoXO28xc4QxDB+6xnmaEELHj48dQuSn7wpGjY2dYlaTANx4umR9jDisWL1Uych2MHVaJuRxZAsjI0FRGNUQdhQs3NlCfHdPeescWMyGTgydghhezqdUPqn90GlRy1XvzMI/4sdLkTN5KqdWUSjTmx9vpjPC1k4jGYeUgBCgGXPnqi0XboYLj4kKh43xeiIeEDmFYT9g3uR6ORLZJW7IY7+LmrG80YngQuxR8SKJrxVcnb+T+C02fK26Hecuk3kNdOsXWFmZf4yqSxdF5JsR84pEZy0TTBjSGHLiGbNTCK+/2qJT/0nf3iwZDrd7zxHUpEmTJk0mukxYtL3nvjnl4sM7lg0l9tSX9MnAIMyKldh+GrdJccpOdPPdK91490o33b3STffMuHP28pbPw3jljFYJq/VPvDQGe1MgSB+TMw0BBjmoEhA0OUFE8F7sQuFRfeFb+MDZgfTf8HMwTBuURorWbuZK9aBFW6wb5LQA2PDu9MysYZtKoWZet5gJHRXY8oDc9pk/xregrVSIWzHVjpgLry4F1EVpG6JIpy6GuiTdQcu9vW2nJJyqxyh1tQMuhAfomR24/8wdWzO8RnaBoLOWt8vill46d2MSkk2xOAguV0TeFN+MyBQx5WqPFIJ1CVvtREax1jtEbQqdqkN48UfZ8emz99xCz3E456Jrj/rRmZ2uNWnSpEmTCSVTH+sGPCJy/5z5fv3EVRcrvHpkTH2EKz8JUYpxS7ChKZAOrH3J8Mf/cPBzPfFOz3jgxPdeQpHeOaZARABNeakbQZoipBFaFuODXZhxikpxFm9fgF3ALOq2PewCO76qiS5VZtZW99L1XphBOAjIrcDF4ltZmMO0DEWVdF68feMo2dN1EE+mQ8fVF6nM9JXxKL7+F0zcV4KPDhtfiRsNKzbFcrxHFStjj/Ko6t8DoiHE3/CWSG91HOsXI9RYEdSDah/c5CkkpOe8eQdtY5/0Vwo/BZiOxPG2wmcdfu+j5XE/kvsCKBMPJUFNqSs3x/QjrFCT4dnE+Ouj7+1+44lXrLFgbEBE7zv8+Jds/rTnbvIUatKkSZMmE1QmptX2M98/o1ysusJie0WKD34Kpo2PYITr2u8ACPJjuWvfwgLNlijsPBqOkhHroEIxxue6XpQ30R7wX0vVRMxhDyRjDyYpR2d5ICcOA1vQqrXVz87N1KEwrclhc1vBIDP7ano3qKkSgODMOsgWzjaxaaUEL9J0LDm9YDIsLcNPZLcVgXT653XhRq7irevHLLvPA6GaUXBwKXx2OyObb1rjY1wGeVJ1mxol5AhuRBS2dIDFqJTLVCBrYYxr+P7CbO92E35CvgAi21eW8/o7A5upIlSCvoWCSX1Z0jIFhtN2mEkeUOs+wzSzAMV4xof5DAvxgO742EXL2TkOW/3zZ5rTbZMmTZpMYJmYaPujX19YLnZ//j1gbRqHpfzB2hdpSRTmkqtltgx1RFHYXW6DWLi4AbAbyawUARpw2rALNjeBcKCF17jhv2s7bCx1ectvUbeI9AwFAZfHSpgs/L7tbitn1Vr2xE8WqpbIXtVbsDBlF/dz4Lqt/XbB8o3TP3KgJCUm/Xt0Xo7B6a47eqIQ+Bt8R3Yvk3ONfYJsXG1B09ZVSIozx5MZczOVaHF9x3PYZdWi3DSJCUU6jlCUWJwBm3JoJHVd+HzMh0Rr1cKgHw+FW6Lbxom4aZUV0TO8rwRaqAKkMawsilYtYAjZy4FQLpuK008xq6h0ccZ0+dN7/1LuLBpbsvaO+w2HWXdNmjRp0mSiyMRE21vumFUuXrPZTCKC53Sx1vRQD5GZsogyW5QCPBfycQ/Xpp3d9Y5wTQBwijjkj2aOnG471OD4WHXQEhszuMWUmfzELuMpyXQ/tOawt1pNeQbkupcMSurA5pDITHdGlLo1TPfE2ValQJJBRXadUbBLVWO3y6A5Tcwwsl0WZfh7VNWgqlJvGBMZSjCzfeJqTl9haxO2mc4ICZVt9xx6nqamhqmVs+aEyBcSltQQM9gwuZaUnL6QSg2mtPMvhcRISUU/C+jaJ7VORRGNTWz2267ltVa91wTHyFHMSptDDAeRlAS6FBPc2Ncjz1x7wad28HMc5r3zU8eO16Amj7Xc/Le7dt3/a+XP/kee8Fg3p0mTJo8nmYC+trfPnL1w8Vi53uYf7kdjEDBKZcArT2S/KVMHQ/8C7FnJkkUk3bVBei4TQUaGb7hOT8avRBFSKQId6LeYN1v/iqXWAmm5F6aXF4jgdQ8MVc3Eq8ZcpXwOtiBXIHjxksfKYnIMGphtLdwb0FbKFJ+9f0lLXPUJm1ytKwCnicDRFxXDsIwRuIOkJTkLLAQqGq7v+CtxqRJBXd58tvi9vZxdEmaALpToPiNSaUb8Lkde0llQqrTYbQGGUFR9R9dTZS0lzCTC/iuIKBRVGwSCuQkRFxu/J3BdJDJm+02KLeK8k16W5EHh6DXEAQuVjNQqyoe3veP7F61x5d0rEtF3Tz5/12222HXb54yfpcn4wi/6V7/+/Hvf8KG371gl+OPFV7/oXyMwxQd33+YLH3pblWbBwkUrvOx9/vHmkw5b/0lrzZk7/2dnl30LtOUm6z3M7W7SpMmElglotb3qxjv8etUVC+N2n3xCNHTjmVl99NG5yvJL5n3l/HlfOX/eV85babkliVQClaiDl1ryosVT9vz65k/+yFZP+shWT/3Ylj//85NHtNTBLl4TU/GbNW5zW1/nMW+Y61EWRF1u0eznoOc716lqsXB5Ma1uE2Zus66morDdUBxrIVo2brTvNh4K05ZhDFrpMXMmOygF/8QFJg/UjfY4Yqra3AIKKEnVSRBoCsX6vSiGGnvFCbWoSALhpG50PTOdWiOhQPW4LvJxUCtqDh3r4CiO6rHi8LrRGV3njw78/E9dUP7krklppEdjtvjF6ucS6ykYgNBsteHNfnXesKxfhvukJQmD/jv6SwIZhUjo0vdfucI0PcfhDR/5xuy580flbLIsstXTnujXJ5x2XjfBgd88BT8e8aNzumm+c8Iv/HqF6VPWW3fNh6+BTZo0mYwyAdH2yON+VS7WmrGI9GSs6jFaiHDQwSYATP1IkMY/Doiq5CFf/MUGM/bd+sdXrHL33Kn3zJ162+zpu/7XRmt/aOt5C6fk0vQwhQKywhIYQsIaS6tUEmzgUFayuyuldGEoNVADb4ES2PwmIfitVubRUimHQRUWFm0pweY0XRz0DYXrsqjTuCReZUudRq+dNSUNBWZJFfYZ7cT/OCwaWaqy3YeBoyL8RUinqP7vYokCs8u9k2G21DOqQ8++CjESxenHMOAGeWhFT4sQNMr6pq5UvVCZRbCa0PAapEbYqg1M9kIBDKtlWsIUtbGth8TXYP5ji846fwd5e4MjmwNwV5G9s88VDhmZ6bL3X1GuhyJr7rDf2JIlfZmbLJP85wfe5NcXXH9n9e1wODzv0r9WN2c/MKe6c/hPgok3fNKao0/YadKkSZNlkgmItiefc2m5+Pwbr3dwEXwu9nCKPyoZHon+EV6cq4k3Hssop1y58od/1hNX6L4FU1bbb2vjM4USscc5Pr5JQ3dhpC0JC5ZYY+1khbC1aYOpkAYbmBZODROaeSqIhmDyvTjutSkW40pLtBj+JXVQDliVu06laPWU8NFVekGTp6cERlRML3eGwLU4bhz99Yq8CQIhp5JgOxECYSx7quv2zkswapeUP/M499RSfQ9dSwsN0GewphBZcAqxg8F8fVHrybKTu2NXdcFnOxiZ1BIvNlmEy1lk6nMbQeKwglQf+Whrq8S6pK8aLIvPATsMz3spcZZeDBZ2bOnLm+y0wEQkG66+6DfvuKrcGhtb8sr3HklN/l55/jM3xI/3zLoPP955z+wFi+uVw8Ff+TF+FJEbbWsEEX193zc+zE1s0qTJ5JMJ6Gvr8uYX3E1EYV0SNwRS/QjsJQ+HsHJMknqWFuDisFous3zxjA3//dU3RvzNjkch2ZFgpHQbb2mNTxlNuWIsAn3wV8LGx2LukBrAwF6NRxqGvKWcAUU5do5CZ0sc2Pv6bGjhvgl3EgtVwso/ESQ3M02qKC9OXE/iKpFcsjcsN0AIeo+Nx2GpNEzxlXgw36ojTm7ImX3TpQegsW5osG4oFJ8G1pJwzZacJVTmrtc6d0lbiDMP1KfRkZnAj1aESxxmi8nV6YfjbExi8oqcwsVHC6oXayZbZF3j5u7apFY1OIgTJvbKwSFZp5O87Klzd99s1o8uX4OIzvrztYd+55SD3rHTONU0GSWrrrzSumvMuH2WGmI/863/Pfwje/u3X/vBz7tZfnLu5V+Ej3+9+Q78dtutNh9V19jY2DdP+OXpF17HTLu95Fl7vWH7cRo2+4G5x5z4219fer0MZYO1V99/rx02ePI63WS33n63X6+37lpEdP+cuZ/5zimX3XjnyUe+v0r86/Mu+tZpf5o7b8G0aVPfut0Wr99x68Ggxzb0vZN++73T//jMDZ541IF7jdPCJk2aPHIy0dD27IuusUtjsmRBQhthjZVITiwa0b5+BBuSkn5d/6dtwPKdPW5+60tvWbh46huOetYv/7qyf3X0eWvvu+NNpM9bjzugFlEJl8zyf7YncrJABvtpl/TBzupty6JbgMoeImVK0UAFfkiDM0vY3oy101agrKNE/1x/bdqrboBuAOWAjoTRImlK9sVGZYWs7gP/O0Z7cFmoYzyojeK7MCpRnb6ul1xy1dV6ARA90u+hupqZxVOwIykZbaYDMSQGLdUEXRO2QLJOq7qkQW7WqWTV6FrI1y5kSyjC2mECQe0i0ADn2NgBFlkMo9n9GzxB1NJZv/QIoHhSqFO6NcvEmiB03JtvOPezM25/YDoRHfzNk3d+6ebtHIe/T3Z43sbf+9VF5fr4sy8//CPx1WHHndVNf+vMB+5/YN4qK69YPp569kX+1WorLTeqlv8984LXHfAt//izcy/f+7MnXHrsR5+9yYZVynnzF75k709efNPdePOrPz133ZWXv/KkT6268kp4f/3Xfdyv5Q9Hf+JrPz7ke7/s1v6zMy/c9YBv4p2TzrqEDjn22AP3fPuu2+L9I4855YNfP5mIzrz4r3++5ubzj/k4NWnS5FGXieaQ8N8//0O5eOa6c/VJWXugxqPUYiL4A88ezCX4a3YJdTaxT9zlWiK69T//9NaX3kpEy08dO+3fL3nSCvE+7q/3TjcY9Tf0VqE1yd8tk5+FUOMLeZAy0gxi/gnaDWE4vVYtewKF5CMhwIbndQdVJIzrGuxwCz+FYTDS43IiHfmWiRk/I5F00cbuB08hqlr22tznjWRoqpVTc62nt1nhxmA2EI9m+HSqPASrlov+QVzLEV3j2v7HZPApMFREOILQ2jJw2sHYzceMWSEGnPKlqrG47Ih6pmDLsA/dpUb5YG8QhFLdmDZBK6wszDzfVVing6BLVFdeNuDiKmVPiwESuvIDl08xRW75/z4tUmdrsixyxP5v9eu/3XP/wkWLy/Xtd87EZC/eNKIc/OL8S/z6gKNjn9n+b9uht4pL/no7cq3LFnt9+rZcy72zH3jCq/atuFbb88CCdf5x/3E6cvDXT+zl2r0P+GrFtS57feoH+3zi23incG2R3115yzjVNWnS5JGTiYa251xyXbnYduP7iQgAjeHZFmgijrMFvISJaN6iwd7HPH3vYzbZ65hNFiweFC2hrYtIANRCnv/EBWuuvKhsISq7vM7/6CUphfgDH8yfUhwAzFpqoUCBCisTXaEEttOntIvsnzSKkzsbOAlxtkQqPIkI0xDa1LVKIr+SAZ9WFJ4DwaOSte15IVxqGgeKvtZ86aqzelM3vfwB2OcyyghUxO7C680YwZcBtYX9hWQAuO9VdHHf0ogxX58yOzxuVArcb6Z53wqJzgBeiC7eWGHYXwLYfq8M7qhiY1GdJ6UBDEvBvY7faK/jN3r78RvlVULx69WwHuxjFz4dlcHcB8IYveyelJFD3dWmVwG2+UqlGK+NOxfVZCMimrGcXGjnOIwtGW70+o+1U8r+DlljtXgxJURX3/C3cn3UD8/0+2uvvPw+u2/nH3c/6Bi/RmfcPV7x/N4qFo71b/UTol0/+JX4KLLZmw/pevdGOYuXrL3jB0d9e+gxZ3Rv/vDn5x975qWjshDR107702VX3zROgiZNmjz6MqHQdjgUj/y1xwvuNihkwtewJEQDfTYXPvCtLWrKorHh4LgL1j7ugrWPv2DtsaGaHvE8LdKSqTIurbv6YiZiHhiQylorL8htZCYwqSrNDFkG5gUwsFhcftoBcxemxC1yipUFUjVfajAb2WuTbIcQGWoMmQbGT8hqmU8okCl20TEm87yD3Fj/3gJs9dj9XPcVLHauffObcz4RuXOwllIaaYMQmwAHRj8wgnHMgTIlrjlU/RE1QupOkTuOVDZVzekQaQOEbFqmH5OUNwDsCs6bxIeO8OLGUCEqB2qEMRSjBLtvaxAf64azgfa37ENjM9LW3SYiPu6SJ5Q/ZR2VFOee3mzV2x8/EY+II7CdLsdsDoSzUKA8RSt8qvgf/NHBREUddwCZqw+Mg0REtNnaCw575W3lxo23z9zrkO9Skwcvr9t6U7/+0Rm/KxfHnnq+3zzlyPfuudNLuxkvvOwa/Pi0DdYdp5ZF535V/nC0/OHoJ668fJRw3e1+ffrZF/5tVoRf2GiNlRad91X5w9F/OHpfv3n3fXMvv2Y8Ev3NF99TaiEiEdnjkO/ht78+8t3l21c+O9xXdtgnAvf+94FvjvvP33icipo0afLIyYRC20VjY3794o0esHevYm8tiymMWYbKhEIFbQB708t+E65vCbG7FXREpGzq79loJm7SEgvwaad3abUQyyGFdXC3SdFrt4Cpga9U6KUGP7LBKHneML5672I3u8TN3CtDYcNc8RfPXlcFrUJYajF8Rr1dxYWSci4veGjjCY4Q1lRNEo3Ud+zQj6wT43UxBwDSAfGq3bLYa2o2vbA30uMTpyaZ+kq31NHFVgc+vtpr/V/k5HJ+m/jOQQdptygbyse5ZdZBcW17raIOLEJDItHpJ1T8ckMpxsTWOm1/CQDnk5W8PON+ISE/7cR+XzHgbtcX8QQ9U0BfoeCExI8wzYTq6YRf6rXRcxo3zXXAtnc8Z9255foHZ/zx+F9WQXybLF322jmw9bD/ObNc3HrvXL+5xSYbENEaK07zOyecei4RfelHZ/mdf1h71XGqWHjuUdOm6c6Q60/53JRBz39DXvPhcFp4x6tf8NefHzFt6lQi2vI5m9500mH+1SeP/mlvFctPHSw676vbbb2F37nhlrTFbf7ZX9n+xXrGxy+//bHnbrh2ub7jgQWL7ZCgt+663elfeM8/7fC8z+3z+jO+9qFxetSkSZNHTibUNrLjf/knuyyWWD2KIUjOHtDwkNNrjmdi9QykYA41gbJ/7JOwZEoH4jTWAoBjDlLFiYxKbcXMSh7mluKxbEZUZBKL32T2PI3l4BgRYWtHiqvLz0Tzl/hc2c+EsLSwDmPnsTrQcXwFvBj3e7RamUsjS90h3Ozlo5kTRXAKt2xSbLuyzqQTwnyRwASFl+/ddYF9xcMUA63v/MUL8VZgXanvoRrTSRz7kAI4GLpqOwiP54ju0oBkKKlwNjXFFsv4jTDBqc55TntKInN68QKGagOG1nHV0noy4ByAL9MUwLtoprUvsWD4Jdvffd4LUOkf/vWqNT/9nAcWTiGit3z8W699yWYrr7g8NVlm2WHrzfDjcDj8yWlxNMPzN37S9OnTiejYg/fe6SPqmfq1E8/e47Uv/e0FV3uyn3zu3aPK33KT9aZPCyxeYfnlnrDqSnfdm+LjjmWnhddss8WJv/oj3pk+dcqisSVE9MNz/9J7bu+PD/vngsIu+3/+v/36pc9+6mnnXIzf7ve2Hd52mCb45Tl/fs32W5brHV+6xY4v3YKaNGny2MmEQtv9vvijcrHLFjPdczU9SYPM4la2b/kdTGWwWJ7l4k/F3tjiYqZYM06l7waOnAWvCiXYU12xosResqAHYpBhsboSOpipLDUXt3MJq0eDdNiC0h3BkpECCchDMl5YIUoVDM0B19uASIJm2LUArqUGsJUpOZclqBgpfdXdOB/DFuyaFhSeQnPlUgEgsUqOcTNGttAADqziRExWse94cit7qsl5XKwhLFBSImuGRpu/bWFRC+7hoyuJrzuKEyKYap0hFlg7RUeIbMUj8FX/6gkJNYNsnQfHCfP639yfr9OncUUn6pQBXfWBy5/8OcWRtXbYb+7ZX5nSF9epSa+stOIK+F/WX55z0d6f+5F/u/+bNUrX9lsF8J19+U2LF4/dMvMBv7P5M5667DUOOv/pvfWOtHVst499Z9lLK/La7V5Y3Tnxj9f59bmX3XDuZSPLPPrUPzraNmnS5DGXCfWf71n3zysX+77ib/nZ5wdxVXGbBmAoHeFgoM94liA1SnamKrmQcWkf92p7yG1siDVsW4A41af0II4jAX9GG6JOjQxwomnCbYAyK1hDoJb8Fd50HILYwAWxBNQQvhWoIncVlijMcDARS6SE1YUSVT4BrlZ8ZzVCbjmFwqNfqVboZu9ShetKBVIGsWYULmMo8JWQjXhULLXeS/gtd4YGJRtBumkWtEn6FkHUaZwNOanGQJw6YaIG9en2R/+qV8RaX/5hIpLsHtwzQDknegknM6qX4KryrzjS44j0/ApHLDn9SqwQq3qdGWMn7akcs3Dx2KvaOQ4PUg7Z8+V+ffgJZ85fuNg/7rHTNuViheWnb7ZBBJc99bfh+/H0dVd/iA1YCDU++nLvA3OXnqhJkyaPlkwcq+19D8zz66evPR9fjgOx1gDkBltiM/Tlt72WzQDCEK1rbCs1UUS2N1eCVA6ae60EfznO5Z14BZtCKb19q3V5rbG5C57ZfdDmFk23lVrh4WwQL/Q5Z+8Y3hirqzRX2dg4uhLqx+YJXPj1gEjAf6DTkM6Hur9ovhXJfenqJ1YQMdT1t968tD9PyCZUnJFBoEYmGsYhXJZR8B/lTBFUaVh5Y7XAZvKHueOriJwUKkMtiwVG8NlYYhpzbl6PhsX9HjCMWi9idsT7xPBDiylUtbHTjG4V/ZW6NovaOP1SkWujGbzzprN33Hj2GdeuSkRnXnjNR7964qf3ecMydKkJEdHH37vHwf/z23L9qwuv9fvrzEihavfdfZt3HK6nkb3+49/1+7u/sj82wrLLmmskV91/evmzHmKBlWz1tLU3XX+tUd/+wwZPfHira9KkyUORiYO2v7lAD89cfuqStVZabGzBmQz8UahPc+F4/gW5Vl6GYQLzmwYSfc9a0cOihvHUhy+ZlCJIOVoBSPQQKHj6E1EE8Bcqm/G5uDQMjNgLERvU1ravumVarj7dew8CMBpISNoxqnlZlQU0NR9BEJECVIt9jTMdiGRgg+Z3oPKKpzsdjaoZARpTgKXSFRwtqWr0RkaNDDZq9RmRgUNmihqLIwg9JOkoC+cTUJfNE/bNV4z9i8voQF6y2OCZ37bBMRmdV/vk3IfbZQAqqrQ+YhSS8qQeMpwG7smdmj+i1PFqc8hHvXhR1uNYseDCQ4j41Lf/ddMvPvO6WcsT0WeOPWPPV7/o2U978nhda2LSey4XEX3lI2/Fj3u9fntHW5R9dh/vaLFlkSesvgp+fMvOL9vhpc95iGWedOjerz/oe+X6rrmLzv/M+7jjCNErd9w9a801Vp06ZcpDbECTJk3+Ppk4DgmnnHtZuXjqmgvM+sVlq7W+rBULvSSkW8WJ3PMQ/CzTf7wSuImw7QUX6uNarZUp/UnfwpOd7T+UXJoHybh6gkOQrxymIEEAU3UIBVTbxyVodZOUOOUS0OdoY17kNSOgBpGw+E2RHqErVySha2duTpViXxC+DaFjQz7gGaiW8+e+XiQldFAXHFitd2IYyikpVzm98cmZAHqSbLpCnMnLgixwEC5kxG5rZbFoAauvlPgauqyxJlbH5wrHBCs3Rm+bjHUCp9HRcafOkKXhgHIYMHSE4MqiboU5FHnt5Aib53ayo+eWCF28z5WefvM9D13wmL7mfnzJTls9o3tzx7zDbOrUKctN7QG+ddd5wkNvwD9uvkHUu9/X77rnPv949Q23TdnqX++7f05fvpGy6w5b+/X1d9z3Lx//+pIlGv5jwcJF//zRr+7/hR9UWe6fM49f9K/r7vTRaS9+z49PP5+aNGnyWMjEQdufnPnncvGG58y0R5agj6aUd7DwbAXKEe4+LF2cuizS6dLaIm4m6v3OTltwOkbzntvXmMN4xt5QKLILo1Y8Uh1yfNX1JANI3LH4BZdUqFihiUNfdVKu/13BhNQtYUpq85BZ+l2nHAfoXlIBrSAjImBD1NXUE2hBh/CYg6HLWBlP40a0euxNt9AG5WwMvQsNYE1uYb48ceUm61UKLAOMRcHlxgI527Iqfh2CZYi56/YuW/o/x8LC9OMQilPF2XdpvyCcrdx3vzv56yJhUJlyM0bUKERMy0+Va/79Cr/9zDcf0k4pW0Z51y4vru6ss/rKq+SDbYnoa/vvUd3Z5QVPe1ga8NOvpsPG1nntRzZ+LM0UlQAAIABJREFU3Udf8PZPrvby92365kOHQuvvdMCDKpCZd31poPl3fnXJytu+9zlvOWTT3Q5c4WXv++5vLj38h2e9+9D/wixP2SkOGn7LJ479u/rRpEmThyoTB23vn6uHI7x/u7+JP0HFtteoeFACogAeQo+FSvwwJ872wOqBiSIOGX3lZdOaUywRSaCho5iQxh4lPNEg8tZP/sBZMuSinB6b2WlyqKTy+O0iaVVIZjNFwAEkG6clVDc7pUlQam1z/h5F6vVXsZQQ/Jxw0FL7AgY6BWd8kMBCKNqgRB+qI1On+ExgG1ucBar8OKBWBlJqYbfdchQWW+0i4Jc3X9z8rx4MLJK42UYivB3I56rYNktUtksPqnc+CbQrfcH1teDSCzYjigG8m11TPZz+RkttzETJKXt/hjmL/xqFiGij1RcdvJ0eqXXD3+7Z8z++3cncpEd2fkUdIuCL++zcTfa6lz+vuvOxd+/2sDRg+vRp3z9wT7xz3e2zLrzm1tnzF5WPcxYunrHte5csGXlcWVd++oX3rQknRMxfvOSS62+/+tY43fcbp/7hxF/83j96XUQ0NmyLoiZNHhuZIL62d826369XX3GMhUX3c3lAq0S3lPZSxaNNwQT+i6SJhYx4vCy15y368vlEvu1KLWX+rJ42RRZ/6XwBEHHLZOaSQA4iJhoCkRC7QTChpERD/F48yLsp8UnOcT8pZ5D4p1+snHq/nUBdSHicE0DvRwra/GDDXiC+Jxwf31MxnSo0BXzD4W7iW8F6mtx3em4u12MjpGyGrjVwE/jP2poEho2xCbgwM4tuyccewjjyGCrmTW2mDoliNDEDZY4vRUX19j5vYHcK5UKrEQn09YGuhGEBBokrZnZiThNjxKywC2tL7Df8j5ff8bOrVrvo9hWJ6PhfXrDb9s9/4/Y1kDVZqrx55227N9dYbeW1Vl3p7tkRUmCzp633cNX4tl23XWv1VV69/zdGJfjFke+d8iBdYG877fCn7nLA3+7td2bY7Emr77J9RA1bb9UVbp09/0GV36RJk4ddJgjafuLbp5SLtWcs8uc2bHBSfLMHGSU6KcFCO6E5izAk7mCjOJAUrLRCRTy2aVj/PIaBG6aiOPNmDZhJ9IR05FCC2/CVSAQf8pCZExMEQw8IaszZMSPUXqOMp5R8h2qeKJrwNcVSxN9rS+4m5XhZGM4CiSfpqs8E2TEiFv2XgWB7iR+pmCJerNRFiY8eLD40YcVoVfxa9rAETEPvV3Spx8EVmibRajf5km9GFIdWtHRaj/ybsChTNnD2qc2zlA/g8msrmT796Pd9iyXpXIwUm41pw1v+ReLexxRfpL7IK6f4OWN9573z6id+9tn3L5pKRLt/9Oi7Tj98rdVXXmorJ7l850NvPOonZ5frcY692He3l/zoTD3+YN0nrLLiCst100ybOuW5T9XjvjZed43q283WX3PdVVfoLXzHlz133m+/vO8Rxx/9s3B1fepaq75nt23f/7Yd8OgHIvIqxpHp06fddvoXTvvthZ865rTzrrzV7+/2ss0Ofdcuz9x4A0x8/amHb7b7f1xz+ywi+sO32mlkTZo8NsJ/nyfZ8GdbD17+P7TKRg97g/4+WW+nD99292wi+vftb/3c62/0Rzc8tDg93AQtTgkpspUroK8imyp8Vgnb5d4LVqlLNgGSAzcQW4q9jy0CqcmD83ec03lnyYydzh+9CFLhqfO8RD97oBCrBlOju34k1vOTFLoqyo3RNEOi4vc5zF3uYGvN4ZxvmT1eITRDsQfHcG7soeK4RbFc6mgu9yLPHCLzfOXImVYqqEovOuYxE8XhdKW4WE1VSFwv0YQ6Fu5xpKOtcjP9t2LUDOzMYuzVg/2PzcjoFqM+9iWn8cZoxBdMQouWyIqffG4pf6UVpt/36y+2Pe9NmjRp8ljKcGx4yja01paDrb80TqqJ4GsrInfO0lNtXvOse90xER56ylh2cKomsCd3sF6cGtr10BOzwQnDKaTloAQGjuZIrgUnGjMzEUdKsEOlf/GxLf6Yh01H+oXnEniSM9wf2Jc8mgMyDUdT3TJXmb8qxhXtSckS7qCUElDFtdBI/Z61HCblWrI2JCIHY50rIPiQO7d8h7/YteFibFID1QnegesSISOPFwt2I4YbbM5KisXz1XLgQLArvQLSwMtgMAfiEgwsGunFmk8wlJLU4tWOngyhLVBbmlT+t9Q3xSab58W5uVSJEea8y6+7oOrrlDd79PedytJwlN82s0yfSj/c4/pyc+78RS/5l88tWweaNGnSpMljKRMBbW++Y9aYxmSRLTeYkx/2sd9fkVeYPNSR3i8p9V+hgRh9gMuivxIvmFJeAXOGq4Accbywj0REPKAwkiM2EaCb5aaKLC1tekvdfXrnjGQN7OH0nIUyPxAFniaW9aRQNXJMqqS6hVAiqeTCMUG3VbRdqBFfNMP2LLQQJ0jtLhyENX5WidtlLFhWM4iEaRqJabKMFnhC24qJbWxAj7EvkMl2n2H4gNLeevVTMNiKRlDT2ZBjHXhWbbxQrhomZTUc3Tc2PhAM+q9XI71Em+HVW1dNqvGE0xhFgaPWY9UqoNMG/NgD9yOYV9TBo+zfe8Mz7t95k3vLN3+84sZDvnXysvSkSZMmTZo8hjIR0Paia28pF1NYVlxuiI9lBhIK45wIYhc8jmOjmMKXiIg6LTqrKNtYACaID+onQYkTiYZtcnNmf1xVbwo8lv2hHk93ZzskS6YMFJa5Ys1uja4Z8FjwKP5B7AJVIOYij3YLl3yzsrq5WdSjaPW2DD9xfApW9WWCm1K93Q5HHRQuC5y09Kjxzz6g1dn+VmCTTnRaEVCOnpNcpoaffSwRxasuUTvEZCPM5oGN/OqOvUkZsSSw9vQPSiV5jFJMXsTvHsX0F5aU0U3ROwMt9m2KSuvTzFsodWurSvulbx51M+MPSrVpDstERHzSW27caHWNvvKJb59y2133jl9rkyZNmjR5bGUioO1RJ/ymXGz4hIUkBR/Y8ZXNgIo2KAz7lZ/hQs6tsZW92PP8JBq2YhNBqBNDEIlb4/ypnGxzJp7KsZIR1DrkKikX5YSSbWy9Hgh12aMsZNz5W1UBzR/HKMdQmkMMK4Yy6UgRlWM1sBaFP8kd7IBWViI2m+Nbtc5CR3yBkVodSi6EHy4mifIRsaMupjC0lmWMxG2nRkaotdIdTyM2QTEgS12jN0+g9/FWQfOM53MChTmN60e2XwaiHueM3MliCUcuonDyIMFb7bFywBVU9Xsp3cwt77+AY4+7vzLDVsvCSRumujy+mvTid1/tpa238wF4pneTJk2aNPm/JhMBbX99wdXl4vOvv54IwcYORlBLTPG+BT4tdrTySBNzM4h4BWFhLchqx/IaNTmKFcOaYMn4hM/2sHIHD16q4YA6iOlWpbwTSCiaE5SAIpS+Bs6PR3+Fpx37nHhrqyUA8k8sFazxQ2tz0RkeBFstCrrwbXSYyKk4EnSrg0YHM5ktEM97s9q5q2/x7BLk6MfXQQvNn1UTFccGEc+t5bvHgmNdtaxxVxkRYmHfz+mmYIbepYbquouzcmA61oIMan3zA5YF2b2iUknrk1j8ZBCt6wKE9ZalNpR7iR2tKbgcqjoNvC1x0Jr/wiEdJvUSrOOB5kX/Zb0aleI0dVlx+vC6D1zh1Txjj4O7PW/SpEmTJv9HZCKgrctOz76PmdWdNqiiMhql+2xOjfCI5CVL6KzrVj37ulXOum7VsWHJwkpk7vwKfpB2OkPlutjFBVKWiac7Q7L6YV/zJYFHaTzmuyPoEOUYbX/7O1+xjtR/KOVyYPQteV2aiV5w+l7sXbOnqffXV8VxfZ12P7G1GzNaZANzDpCISeDNgBbZX4K9K0NeIlwUes6Tx8bbLXzmn+uls/+/f1tWuiluytUIbwD4ccaY5xOfwA7rVNkmRwBtSaBICFlwPcM5cehJx/qs62ecdf2Ms26YkZJUS6Ek0vnopvo8uxIdC6XNeOOKwF85RF4vE+dKSdvjbcizkrtZTU8brr74sO1vL/fumHn/bh/5+jK1tkmTJk2aPOryuI9re9r5l5cLtshK5XkP5k2xE2sRvMgf4WCGUpm7aMorv6LnK977uT/MWG5M7X/FmBgPPa5K7Xs4u5MvRIKKRlShcjt4gZeRHb6q6VC0xoixJYaV9u1SGcLIC8xgqYXcY7+NmLydshKrEYnF0y1KYVJDaT8rsTYFt9+VhjGzj0ZZnwyq3nF0w5vGurogaK04L5UZhIRqqtSgYGa+FqbyP7PydlGdDE6FmS3QnEaI03r9DXp0xFVvdYd9PSIC14PSpzOyhYDgTUn56hlVTUJ+xX9tUq7GPnkh1NbbV1QYq0tHDGuet3Hd/4sZ9ybULli4fRuLLJ/5rg22TZj+uxhdM/xMy+UB29x56rWr/O6WGUR04m8vPvmcS3beZot+JTRp0qRJk8dOHvdW22NO0bjcz11/jhngCDb0FFFbabHMiZltisdlZb/Cd+d2IwyWcThV/YCvHtJVsuqhLp0s2FrHHc+E2bvVYTfdxNnLH4ORXCvdi25cBU+CbM3QPLTDUccyV6UpRvDewMoxfOqWG3kN01l364EMu7qumuJataBc6nMSiGk4qvUVn1kPFCceDMEdcRnqYmsizA/1NdDwC4BWdZc5GzZJapBd2kkXPFL33ZQxLUMxeRKOI9JTrsSoJmfgWP6NbE3KjtMktYU7Sf0mRJQwN25IBUqNNQz199TbIMzccbxl+s3e100dqGv4Lh/62t33PjCyR02aNGnS5DGSxz3a/ukvN5aLV21yH6Xnp9gzj0UxtkS/92e4OAJXRqH00Ev79z0iKT4dOT+2/dW/bZlCS2G/kcwNS/4nO+P2CDQc/5DvmqotcHVZ4ZwARdbSQ2CuWABN9OdAPMPOMhZQVhixMS/WDASUCYwWrqVmbAPa9SqQjpioeBd4MSK6HZBseVPGP2CZbFkk3i0dOLT+ota9zRxasNi31lMK6mQKT19cHQEMp6KXBTS9gxL1JEyslkx9azAnT+n0rZsYK62uU0yJ7uqrasnocsjb0F3UeRGmSCGy2G1EBD8061Id7Tgjc6bqeCfjMS68buFpU+TeAy71Tm6y+0FjY0uoSZMmTZr8X5LHN9ouHlty4+0zy/XrnzsrvPrskadHuwoeuhYRlIwwAhMLD2X/u/RMRRdUu2fYGnutGLd0A7tU4jTBASX4ZVz1Io7YlnDMydaNZIYMeAFsYsgRnetpJLRGMuuHmXIUoWRANyAuxEGxY48k25nj0IG06FASxZYZ0GV+UYNuHLaMo0UKy16D061AwFqvhQk8Ijp9I61HiMsuN7Gos51Rswhw4DGN25t8LiRNjkO3Rvyh/qp1ODTVpAUM7XZspCDMk7lQR1/tr9ELKixDRlYN2utrlrJsXNtPGZeaFNfjdi3mgU9VJobyKwxfYRqdsPsN5fO9D8zb8HUHjld6kyZNmjR51OXxjbZz5i/06+etN8ciGggRszBL/VxnpQmHpPhuBLNUz1ZEDSMRsToJgm2lfVqQmCiZY2Uw0kIW/GZQgkQXTONVwIVwbmqnIwI3cFdNEu+ILhi42vdWgCwxk/7N3uPohDMQwLXlRXtZWV1YHCsDYWiS5IHjQosk6t6Z3uOz0beHH2YvBMNXqRFX/WDLtvmyn6x3QQLMmJ0xcC6Jr5VCLUrJukJI0ZAronYZwXao/KqETLtpaAT+YNplEdcqlhDl5IEKGVH6yEUUfllNYOsCextw8i9DNN+60mz+B51AWT3+Mrs9c/Y7n3dPub7t7vsO/c4p41XapEmTJk0eXXl8o+2xp/6uXDAJcTHNxmb+eEFMlsoMPhbToLwZz5uUCHmFOs9Xp0J7LvbYiqhzbfatoA7fZDPo1IilSXoAi7EmIokZKvvscxEsNb6ppeqzR+bKrqy2sx8snqWRA6/OoS1wQIzCtR0DDLyafHYdC9NSw4/G8FYY3fqICfyduh0rCaQyZyIiKkcQs7XcNRC21NzOwr9Gw+bfSaTAGobSFFECzIaGTDHa43Nlthj6H+58m7IUzut8O4r8uilHpfESlub2myu1izRDuxO+W6aPMcMwcu9+Ol9yxIeqJNdbLKTEk3aqZyi9KlVE+Bs73bLhanqOw8HfPPmG2+7uNL5JkyZNmjw28vhG249/43/LxZ4vvLsAq+/5EjOS+RNKscJ2pWegzXrAByMyUoBph4aTKawjYbCsXqcTPO25RplUqhB1oktpGiA6grZFc5byTtae2PDkF3HbFZRZIZWk9B0qzZ0vMoxLL96dbpOhPZEKNFLf6pcjDsyTNQ7l8AWL2/FinHRPGBcHleJNyboHSfNmPUZPdc1UJhXrhYXligZ6en9hD7wLgJiGYxyyFM0lOW1CQ0R3WA7Vc7i6YopE1eTIjgp6T1KuaMCIiZVAFqdfLB9SjekCtEjUgVoCcO8hWLzoOF/H10IwHLp64aoBbuOHrP6fFL78PVf73Y3feNDsOfO7amjSpEmTJo++PL7R1h0SPrT9bYTmGGIHLbGN8AWezIDImUjyE7p67KKhVB/qSKIy4uGJBkR3cu2iQCeXQ7cGMRX8Hp6+XqlXxJGrSydVYv8Y9kqrnao/dTudYO2k3LqufDaYG8cSCKpXa9mqY20IM5rXgKX611wsq3AkR+iWXdERACG/VbbdY74zTDMm0532i0WY46gIERLl4dAUpyWI2LLJB2LcVU8gaQWCvnMOkVtwREAzhHUNotK+0fHPYYYnSNObHlg2jxFMp6rGnLnT6V42FV1ECeXlWbXkq5ZYuRSbluy/2tQ8rNd/xdz5wUhMIzIOLq2yApefKhe+66ry5ZLh8FlvPqSnm02aNGnS5FGXxzHa3nXv/X69/uqL7DFl0ZZIwUmJyZjAUFHg/IN+gFNJLEsWk7UXL+B5XJ6M4i0YJZ7M6krWLAFEpvq+/gs1cjZT9tblNYkxBCm7ZxteL444e9pGPUBGtGzhbjWsWo2yahIuKQa91WXacnqFc2UNqvDQOLI9gmz0axvnOUVLILiE7hXlWXyuQll+Mocf6JB8dmHAKt5Cju/tIt5PAeYMYZ07q8UMjZilfns8ju5vQYrI0VvL6B/Ig6tT8oWNkE86JWdEz5GtwbLwN6xxkplID+DwHz9HvVpM1dlYbom+pQEfEqaqPVs8ccHhO9xWPt529327fOiry6iFJk2aNGnyyMnjGG1P/90V5WLGcmOrrrAkHutCzLFXHeyFkp9O8DQWMJItxfWwy7WDHnMpYb14B+8DWjs9126+DA9ujyBGyXon9s84LsJeE5rBtIxBfmB3zGn5iFwS6oSiZUyFfWRnaACYjBQBZagdD56VuF/Jk0hNcmKxxyyr2koV2kvAtwBD1Dc0NGx3phyzBmv8WvG+JN1aIsLJM5L9klSjINgu6U0K9eYZhYpcJr70Qhh2MVYYTeN1ozMo4yD36EbET0OSI6//iDj0kyupG0NE9ZouMF10zrB94nr8BTLrLwwWgerEguu6lH/fre7ZfkONbnvyOZf+9KyLl1UFTZo0adLkkZHHMdqefM5l5WLTdeYTGV7Eo1E4Hvzd5z8nnI1jPqtnNfU/rsPIZHam7CQKVIq5xB6l0nl8doJfYVPjYqBE1ynb8nJ9o/zjr1O976oxqdJK6prDB37s5ZdAc0NLoTiSlilO3kronGgughukb8lIyMbMexp7yQyuIaOUI8DYe2OtycY3i+fgQUyJ4oostEJSErqL9O/W6tVPR0SiQ9ApKCVzVDU3pXNn5NB4eic5JhLiYagW9LQUrh3VHopFRq4ecVkXddIzl+pBr2rEH6j0NQPotrs88MqEpbMILNNTqRbimsFg4CBV8su9/jrNznF4/Ye/fsfM2Z0kTZo0adLk0ZPHMdqedr6i7e7PvSc/cMqDb5CfiR1TTeAhWBb9I5RGVPFHJV0kJeAOTIaMJABGFUlnwkgAYfQ3EjElt8eARpPjS3mqYqLqzS5sBJs4fFQqde0IBS0zpRgLcRk1xNEGFlyBwi2WozPuPw3N951AUuIWQ080tSTSjXLMuYGC1yUABwowWo96cZC9Lf0sm5WIMRdqrVeYhkuakeWNW2lFwxVA6/HAaYVDPqNGVNqdziPb1UVT+wXlRSBzf12j6klhN6BJPrmhJQjTZJNaj3UQLue3cGcsbMShBVWduGCNVgj9bb8rPO2mbzp4RA+aNGnSpMmjIVMf6wb8/TJvwaJy8a4X30kJSNnMe0AQyj5oDUWASHemThnutoXGrZzCkp9/5hua0IQ7ZaLLr4JT+O1pyhEEI26jDDxlAntqVMepEOlWAeVLaMGe4kZ+seEGbWR2F4J++VIgmmKxYDvKpAwJWUdiRjHtmIa3IMgvUYJtjJdCKX4eg9oeyQA0r0gY1ys+jBo5QwRqR69rr92iWughDgHK2S+26hx+tB2EAUReAkyM6HS+xiRBWPVSJAtoLjY+miLjDi6fRpfE9MZn3dtT/MgcVbESP0FcJqh+cAnULzHn/cQM6aaolhclk7XBJkEUQ1QcqMm121cw5cHo6gAdsolp9eWXHLfbTW/5yYZENHvO/I13+/g1P/7kKHZv0qRJkyaPqDxe0fYmO4SMiGYsV6ih4ku/xMdedeHpExStNJ2O/6drSAbEw5pj0jOtohnSJy175Kxyc2BP4F6OwRKAmH0nuqRay3cpqT6f8V4QHXwcdIDGHvWG4iN4HYnVmYCJyA55k7g3klfcYsoasEAoAJI4O/AGaTMxCYtFdWPVRndF0q1RRJ0JLOIxC8mAZOhUS9B61JVBrVCwGa4Q6q6lOSa2Od+XDyOzVPPBWbBvRx9Xk7mqNxUDysDlAs52nBg5LfyMjt/jhpqtx+t7GVxUqk37/8/edcdZVTPtyRZY2tIFVFApUqyAShGlKAiKYgH7p4iKCoq+VrDRRESwAIpiAxvYEEGxoaAiSJOm9N7rwi5b2XLz/ZFkMknOvbvgwt6FPD/efXPOSZnMyTVP5kwmQcUDazVWWUwtEm3fbmwwcEVh3NAuMWJAUNWYPzisQnUmTL10dUCWTN0apczesueNBScBwLpte4d99GPfOzsFi+3h4eHhcTRRXB0S+o2ZLBI1K2SZXJY60eJcDdqEBqAYHnmki4PeW4NBcimMmZAY4bQHLSgWS/0XrX+EJ2mJKK8l3XFaBWmNwuBQKq0piyGeSZSUhFI/iiqq5+rELKObXMUHkMGvuAiuhNEfRP4YUgNpUEdNUlRSO8VqsyQVklBnBpzjVndXEW5vmWQbJJaC2hkEHICFiIRCXTTqAggCLPTD1H4ySxtOGt+7GUJK+5zQzjr1IPlDXmvDXFxZwKUXJ/n1AgP/AUkE9cUde7ojYZqmPdI+KSJaMLWYO22Fr9Vg79wgr0ztCXVrDB7hoM5lYCifIQPjtAZDBq01DsC14RsZO5NuDfqnw4C/3nHHKeXkp6R+Y76Zt3xDUBc9PDw8PI4uiiu1xfAIPVrsAc261GNjEnSnWHOOp2yYZrNZLOXBYvokXowyyhBlzBjQAOfKGAC1LZ1WFZY6ABhZmdzVDgw4GjnRHEVhvFYpE6XW2CkGTH+SZcpyK+mkpmgcySZD6y8nDFjVoLqkYgkDcgvFLJgmRJTXopGaMS59IqWxluiHqX6Y6jNWCOpTvzjUQTRA49KCfjuUuFlLHhsW88H/VzHMuLLW26WwRmcRRWoyE9y441wQqbnWpazc3daGr9xhcdx8HozwVBgAOKfMDriMvKbqDuqyBUsGOjKNHKI1OpiYfia/kZAwwJwY5cUyLMz5ae5SQ0pOQuvK/5hwXT0APsWFixR48yMrY1RTLXoMSycngXt4eHh4HBsUS2obCoXw7J/2DZKV9RFZk0UxKZVxzVQknJT5wJmVkT2pv8yagqkMtHV1h5OG9MxpTa+MtK3pCJn0iXlYU3jLIqh7Kr7gg+UQock3o0ohX2xVX4iFVTELjOrKaD9RN4rsKSdV0Do2SZS2ZyJLli8J7aza9wBNZhwVavMSxerQlUM3xLk6PEzlkesEcJY0gXBy2KwSLYWBY8CpxuTVBQPhpvQtgTLYE7JnElkyTANNvJEQ9FuQoX7FMkQcICf7rnIXwMnU+rXZFtkIesEXpmK9GbxVBzCm4Y6DXobxC6brYsADu7UsXNWuwz+T0av/iwMA8+9Zg+XqXP9s+I54eHh4eBwVFEtqu2bLnpDiheefnBGUxeUWdIKn5iIMVu/mJAwSQybJkE8AaCjSlVpmKpWTY+UsPyKl+beaTwkpkTJza45WpNE0yymLMqdFguM8cML50DlRLw84KcKMwsJhgyFjN8gViKj3omq5emCyXsFjFHXmZhxZqkMdrovogkt3VqaIKT1VFltUSmGoNsY19Q424oWDMWBEvcaOqCCmaDJRfLEWJY8EpSXsgKSwiuFb9TgDwxCeSzpvD6oAaQLpOFm1yNciUnrPFjnGwqmU0ETm3gTjbDlTAAaaTTKQKzsjhBkGHrZb5yQdHjaL5U775IetFMDwR2pFhGAA51fPGtFenuOwe//Bm599Nz8RPDw8PDwKE8WS2s79VzqxlY4PlYyjc5HD8GTCIbUGkJRRUguaH3NVCbHfkMqtyTCkKzFoBG3eEpIQX1lQ0TPOHRITjo4ghUIOxOyO0ALEHEsZgXBuNfglacJUgJ7rcQca9U9VbBB5raCXIlwXV5zbUArnMj8zqLK21IqaCMkQFntJG5XYzFAuZ2J7UzDzC9CkCfkuTAdWIxIV0/ddWMPTaIUWccty4KD36ekVi/t13VlTUen0CyZrEjsfrYQMUST0lpzaUSQ8nbXuKtboRrQlPzNz6aTSWgn4kUHbhRl1jGFWySBZGP7jsjxHoqrGmdaCQV0Z7TDXa2IhAzrAwCPN9l1aK02U+Xz6wu9mLQvUjYeHh4fH0UCxpLZvf/27SDSqnh7A3sTEqWdQtYGJmtk0kLNiWZ6SFRtZQ39oAAAgAElEQVT/aIv4R5vHP9oi7VCsOUsyMgfSCs1L3ZzLZYMmYg466idHmbnFShmtjdJ0TTlpnSbBwYlZkkGmgm4h28Cstuuu0JEObAAAnAmjLHDGCBkl/sVIIbBqYWHlko5ISmwJjX0kjJ4r+xjX1kqlx+Bv3xw9IS0dRIbsH7GzYpwsbknKyD+ndq6atl+g0ZKme1JkvVIwhmsQ6TWFoe3iQCKKD9N3bmhPiUREixvQRPwDHSuCkzVYGFiWTNW6GC32XYN+W6GIsSFG6mQ6HB3gQ1WVubixf+roGGMPeCK5EVEOlaFXWSRCCuNc+WPo9ZXMPeOO9Ykl8sSjqx9/c8P2veDh4eHhcUxQLKntvOWbROKlazYTbhEj53WchiQpsUrzAE4AwZwAwJn6AEyDE6NNkb0sYOa0auSEM+Fecmo2Y4ETtJzfKbEwiL3NVEyGwQG42vmjZ23CVx1ToiSUwswqiJ9x6AMnlmFSiRSDkSIkOjCjhNcihoomKG9bQWfVE7KvjYJ8sFb6JxvHCgxO/gol0M5ZNN2QGkw2jDZA2RfaswDSRe2y9mZEpjrNnHdkCsLN5xCQi9zQjFyuNYCRZUAwM1QENJjUGr85ZnBHswbOnMoZSoKdEIZ2GUZN5sIBTekvlmG4bNNtOc2TBa/0Z1GMWdUR8Nq4eWmohQ5fLuVFrHtwBdZX5/pnnb2eHh4eHh5HBcWP2oZCIUy3rptG5n5QzACosSeMBQf0TWqIMTglzcbJ1K3+3/5ejKwUzEkPdBGcYBmJrmBnshgVqYmDcaklQaZilFKna+FeHyqbehROWtkn4bngWttoqDOuGC0XM7y2fKGRzChLyTrpBwc0JDOQYRqoQlBKI2Ysl2/QoA7BBIw+YIb4wasddxVEKakqjjIG9srWqiqg+FDQeAnkp86wDKKPVgbycikJxD7rnwkDcqIwBzBXBs7btxvidJWDr5ko1tiMaJJssf7Rt7kO5mH/QPDX5ghDlxUcpaIPNG+WHVQqx8UYZ46S0VhMT03BbojwgHqLovl7qFQ69O3NG7GqJne8EKg8Dw8PD4/CRfGjtpNmLhaJGDypChRr1HMdp6Yppw410WkbGxLTkJNZgClXAUqdrTpdJoQFRRLT+e7K11yCYXO0p3ZO2jRj0jarmR836rTlxop0LCed4ADEdkYokfIFZjL6LOfAZeguZroIM/I+1GJCURCuHCQ4IyJywrkZ6TMDIiQDpIYyillAr8LB8lGhQSd0WWYolpAkoxVr1aHLgpNV6c/djGivHRx2G9i0264hvH4DMqqCFpWpLYZYjhlU3hzhAVydDhX5Ug2ZmawD+aQuwHQ9XGqA/HiZ/r+wC5RAwaSLSwDJNbzJlUDkJyZ7Tlew5HfBmfIgl79fuZ5F6kx6gxoUiU51U+9vKl0RlqzZNvyTn/PtkYeHh4fHf0Txo7bvT50tEi3POGgwOqQp+prwFUAeTN1wQd3EsuFnU4MnI/+wKAhlher/cc+Nngm5WTbINKhmaK7zg5OfsDH0ceWceAyyfDolyuOUT7gcMblxs0WGQVzVdC52aWkig2G/mObBSh8cQLJha4+OEVOMO42q2skButzUaFDPDHUJLeUf7Ys8DvwQTTkxbSuYDZrMGHthjwGRl4d5WSZrj9RZIG9NpTkx5yMvAxWVVteYH5V0+LR+69I1B9879cumwjDRuFrcKM9yphYtXOVz+mgNZfPVAigmbQVbxlHJdBGpH3OEMXIHV25yqNCofUA4MzJmbsqj2mIMYHTHHWXipdPtk6MnzVq81u6Yh4eHh0ehovhR22XrtonElQ2TAaxp3iWLxNkAt2cFn2wVUIvMpfiak8XhBJzc00YyJIyczJpmVdRJl7unoDFTWkIxOM2DDhiKxwd1kZGPrIDejBzQHKWsbVoG4vMhIi0J91mUk2m/DC0gM2pVjgPqs7V2PVAUjxE7KnlDGAIBFYVKK+hChKxqgIYXcBPYBLcfBhNKq6BVCRkP+hElPy79JQOJNqJdOoKotq0GNSal3ukloG6BUaoWoMhgoo7UE9Q7FZklveNWdq0ZfQ4HVsXwrYDpDRGOvaMmGPnAQMowS9VIkWmd6OeufgpqHSh/QfIXKvh3WB1bC68gVYlkDIMDT/5bKk6y23a9X83OyQ3qnIeHh4dH4aCYUdus7Jyd+1JEuvPZB5znigbR6ZxZ3MIy4mBBMD80OhXj5AdWWjEhWq3+yMl1HsVmuFU1vWdSZUM83QdJEhhXH1GVcY4aj1x2rI894JokBZ02ypXuiJrUIWFMxTIFZRMG/ZeRS1Ucg44iszA5sNu8spUJ2su0zy1VRgCCFhi6K6pG7hYxCaWrvOAWzbJKZv2hWiqADpV8OgCgLZcRyTT51K9uotIAQJ5zi/zfDCPB1SoocGFALZG2YKQ9i7xyOwsOMDVWQI06xqx3zsF8v/agMnqufm2aVuPYw2z4Ojl2VmbALYxMU3wwlIXrX6Uks4ekCXv1QYU0ZY5hsPheeY5Dbl6oTOuHwMPj8DFl+l+lLukd3/KBhFa9bnzk1aIW5/hBRmbW59/+npubl2/OOl36lmn9kPh3DATzOGLEFbUAh4f9KemYblgtU08xSCPEnEV3huGXejkxxQRQhoBtZ4GgxJPLeZqDOeUhYpSFCEgpmgGnVNuAxwzvWA76CFwA0Gfscv0/t3KrCS09V7oidTJFz0FJwxQHZshNUSSTV2n6huRaXnKyv122KB4xAEpXLZ2Y5BINvSzgvZkwR4LuMD413Um1+LRdcApGbA7Iosiok74UZLcWzTV1wAkJtxqxawZO+8gYSJ8D+aK40VmuWabZd051yok4Qd0P/wZQ4yb5ZaqEFE9xR6dasDWCbUk+DJwxjDyHrgMiv/bhxVvA5ZG/RiPKi0aPQ1UDA8aNXwKRLOgXJYls4DCCIC0xDvUqZY++YttDP50KALl5oVufe2/C4Hucuo8rXPngK/Ry4tD7y5crc4xlePPzX6bNWoqXHZuf1ef2jsdYhkJBKBRqekv/JZv2iMvcPPjvtv8+L3+ybsvufLN98sK9lSok/se2ohkbt+6q3bU/AMALEzJ+G1mqVEKEzJmHsjOyso+RZB7/AcWM2r77zSyRiNE2QDWniDmL0jMNbifsiRpnUvHQJFs0TVglAGjzcECRMHO4IaEVJwmJC5YSEyxXPXWnVAiaZLnKrqdyykVVqxj9X3eDc6b2oHEARq2cdCsQ7QpTfAPwnDEV2kyegkr6hMEN1PdycW1yvqB98fbLCtAqg2ABKX0iNdPbBeKypkh6OcCUdrAu6zUxJ2HKECBAAEEyaybf1UFHVjPvW112R07QEA1sXD7XylLvVbWqQj0ID2gVU8yVIRikV3QRoBZxjBLXgOGHjBcUF6YcGAe5GGlcRShR4gLQrw1cvlu9LnA64KZZmEu6YOh1QdJHyyou2FkGACb+vKBbu6bXtW0cWS3FFwuXrflhwRp6Z9PWXec1qnOMxRj71W//bNERhX9YsKaYUtt3vpqBvFbgvAan/cc65yzf8veqzflmK4gts1jj3c/05s5Z85d3aN20CIXxKCwUM4eElz76SSTua7lbcidQ5M/giNycbhRtCgikz/QFsfvYDUsKoTmfsv7GEM7hgoQ7NeguI00wMFLMEFiGM2MYxovWYpSjh41SnkQYBmoBP8gSNangBgDAY0CELFDkxSQmjAqNbFRZDZltqNaqZfieAABkLAVl9s6H/NDH5GUZ+sDekHeqlRmGt4Z7dREEQO7DsWbH6TkCOPkXtqFAXkuq4MbwcPoYKf5sgCQWJeNBmXUBANtayogaGD3MLhwjdKF/IhiCAEspuglq7IJ2bwFl1scPHczoBBrqlXhG7A509yZiiP/D++Qd6/4HLoX0TZKVfn+Zc9e6cuochxv6jd2ya39ElRRjtOr1unXnn3Xbj70YlNcWazzwypeYHvO/rhsnDbrrujZFJ85xhavbXYDpJucc69WXx1FCMbPaZmXniMTj7XYYc7lt0aScQ82xXP8fmZQCTFVBlENPh8R25ZrH0BZEnuLESFrQleni+pMrbYkb1VjdFIYpdVQUso4g6TmtRuzn4urIWjX1K8LCqchUO3J9IPvCqBGbZiA3uUGFOb0wJTX0Y/RPii90gUxHN2jVgnURPWrXkSMD07sP0SGbMVSj9VJs8CBh6as1Ous0bbwTJs3D2kis8imjuW40QBIyIGmCB2o/nGzMkAeMcam/DnC7Ch5cEbnPTcnMGszfDCelOX5woURbsl6uhrsaABF+vWAMGqPnRmZujCb97mX9+EvFIavWCoyteGB1zZENARjnvPZ1T2fOejM+LhaOLyxZsfFQTh4AJMTHZuVIKr9o3Y7bj60Yq9ZvcW9OmDLz1i5tj60ghYwHbm5fKPVc2LBWhTIlRTonN++PpetF+qTyZc6pewpmO/7Gp4UWTRt9O/Te939c0L97hyqVKhS1OB6Fg+JEbbcSI0eVMsLTiM5TFrcgph7MQqZwMsWaMywn0xoYT5RBhjbq5BMM0aDdZj2Ko9mfOoXPHzA9UYsZklNpaZqhqdTYHOVwGkHtmfgWK2dcbJBmk/qyFKCJmXgunB241X9RLyoIGSxyU9oOD+PxbN9QrJRqhOjfyB/IdJXCXDJXIKDWCb3G8aP9LApQo0WOOC1IqI/dK9opRdjoyCDsNpIQqg79HnFo6bFvDi17eJt80ugSsy4iq4MOEfzdcmxADmZ0fo385lBvqE107FW+MOq8Ect7PT9V2TmtscaxMa0bZqzA5FrSXnqdXDb373vWNH2vPgDkhXjzHi/9/dEzERVW/HDn8++KxC2Xnv3tvNX70rIAYPP2PRELFT6a3TNCJHq0P/+D6UtE+rG3pxVrantPu3MKq6q3+uq1RvLB9IrtHxXpNufX/vzlBwurlWKBzu0u6Exstx7HAYoTtZ3yh9wQUKlUTul4cbZCEKmlE4rF0chjbs06BsljCXEh8z4jW7vMiZ/SEn0nn9nTiBOgTU46ZKx6Yuy6EZY56vLKgIltZZbvoz5PQdZNd2NJMmJpCImbZc1CnQj7FwtgrtTWZRxpZTxkQboKpizI8aiBEB8BkJ6Sxs0EN8QiicgtUqGskWT4j+LKyd3gb1csm9bLE3NhoxNmm6g3VdIwD4c9SNi251qxzLQgtgs26YTc5JcQq38FjGmCKN4/9p0uh8KOexKPmL4Xk8gTfxVVK9Od1XpxveHFIKdfIfSvyiTQVkmUPPC/GaJ1+jOUtTHtOEEHNg5+1ZCRQzR9frWsno33vbO4CgAsWr2l/ztTB/a8Jpzaih0OpKQu25ok0mMH9px5XT9BbVds2HGMJUnNOCQSN3RsmZhY9vVJfwLAngOph7JzSpaIx2ydHx09bfa/ANDpwjO/HfnIeTf1X751LwDweWNFhm279l332BsL1+3EIt1anzvhxfvjlDkzLSOz7+hJY6fMzs3TJ/4klox/r9+t3Tq1jCzkHwtW3D14/LrdKXjn3FpVPh5877kNTheXrNl9NP97M/55r9l9VDxEbm7ekHHT3vjsV6FwxBO3XvbywzdGFiMCXv7w+6fGTAGAmpXLbfl+RKcHX/lxwRoUYOh7U4d/Mv1AprGzamjPK/ve3QUvnxkz+cUPfwSA+qdWWTVpyHWPjvxm9gp8+uWgu7pe0dxq9Isf5tw7dMLBQzl4Z+RD1/a5vZNIT5u5oHPf98IJ/MnTt9zWpY1Ir9u049Zn312wVo+9quVLTxpyzyUXnoV3Jv84+/r+H4n0hq8GnFGzBj66Z/C497+bi5evP6g75RHlKE6+ttPm/CMS55yMcRKIMyuPMMG605kCV3MU2RqdmJCXOnR+6tAFqUMXlCsZ0rRDPue6Cb2JzWrS4lv4MZQIbJJj88RVRp5gC9L8ZOTQhN0gf3IWx304TG2UIf0wFwT0jooMJT1upczISQgrNux+yoxldFnD4MAu68QqyXskNZt2tLDLEnLQl1U3qi3wTdH4EGCkZdOWFQ8IoyI3XJ3aHTEaA6os7a3BDEVpT2sIaoC8b66rxsNqmSsB5YmkTrIEYcI6nPbssrRnlqU/u0w2QlcwYdYHdsJdF2DrmoPiaOdGG2SQEx95SZIF72XqLA8VJ84YmnT5xVVLmpxjb8k2MvwnxeQAXBNyJlzSpWKZuoMVaubOaH32T4G9deWOSqXkDvdB70+bvWy9o8viig59RolEvWrl4+PjEsuVEperdrixGsMiNy8vKys7338Rali/eSfq/IIGp3W9TNrkQhyWrTYcFUrES5obCoXiWvYSvBax8J+1Nbs8Q3ktAHz5+7KaVz6OR75v3LLzza9nUV4LAAcP5dw44MOPv5kZQchBoz9v/eBIymsBYNmWfefdOfS9L6ZHKBiIQ9k5A96bZvFaABg+4ddrHz7ySGGNalYViRDnl9w5+Edzd+DT706zeC0A9Hvn+5b/NwgvY2PlGiA1PbN82z6U1wJAt+fHTZn+F73TpdewmwZ8SHktADw8+punR31+WJJ/88u8ejcNpLwWAPamZFz64Kh+r38WuSznvO41T1JeCwCPvDFl54H0cEU8ogrFidrOWLhKJG5unKR3o+u53qR8QO8b3IdMXqSIGRQ2kFzqBjVzQjuXJQbmF7O6/FCpDayqlbAUT8+XoqD+RmtNkyY1YSqmAqckT3naMm58RNXlmWIbnAvrlzS4MuDMYe2kh5JXqGOliGY0M6F/LeMX7XGY6BYBLhKkOCW6emFjE1DStEWIGVmouAwH7CLu6OJEXpfrBUNIjipn6q0xrn06kJxGalyK4AoYEJoZBwkObOM94khTchgrBKaGkMXew73UoPWHyi9ibWlbN1OcmZl14FtlXI5bcQSDjAPG1ODj3DDtAn153KiRZjAR8ObEMcT6I4Vi11zrUL978ru048ABLlpM5W15aGWCOsehzf0j8kLhjvguTkhNy1i4ShLHMX1vBYAjixv1yQ/zSrV+KN9/EWr49Kf5IpFYqsRJVSo0O+9MfPT258Gs8dfF9gKDc97qfkkKa1Qo88mA7g92aSEud6VkDBwtmdY5DWqLxN1XNHmtz3X/1+48rOGOoZ8dyjYoGuK3+cv7fzIDLzs2rt2qvvZwvfeVr/YkpQSVC4sypRPKlioJADe0aDCid5fHb7w0Rg23KXNXb93xX3fUbd+fNnvVNutmuZJxAHBdiwav9bnusW6X4v2/1mx3W9xxIP2gMqVTXPvs+LT0TJH+YdbiqX9vEOmbW5/zycC7zqlZWVwO/XTG9l1J+cpZqXxZANi0ddd1z3yAN1s1OPW65vXx8qWJMxf/uy5CJcPe/mr97sPTv0dUoTg5JGSrHQl3XLBPzSl0knL5BZNTn/C7k3OQZbixjDhOfTbsoP+kLVKb5IVi3qM2K0lrKLM2a2Gcy/1ZpCWsgVrgGPJx1TNFBtRkyhV7CuoC0+HE1DqBMeCccUGlkYDrb+eaZXLOGdMZDI1RGcPpkXZPchurFnplsimOstAtOuFgvXFcaRDGbLTsjgcWUFk4eR1VO4NNl2dysQEgA7ciXyd/bVWQtw5mt8CUymBdzKzDTEqVMKINY7EX2D9LBzSD/QsRvz/OraZVDXp7GEqAiz9pNSXrMQYgrLPGHdw+RrgsXZpQvQf81MljrmVWkoO9nFU/DfLLI++AGXcYaVkrG4CViueL7l7baGwDAMjNC1Vu/2jSz6/GxhYnW4OLIe9MxvTlLc8HgBb1Tv5tURGcLfzqp5K/1qtZFQDi4mJLl4zPOJQDAB9MX/z+CwFFckMcAOrUqNS9fZODGVkA8NTwjw7lyiXHjp9eBYDbOrU4tUr5vu//CACDJvw28OFbxNNfX+vVrqVmtNdMn9vt2XEiPW/p2ksvbOQ2d90Tb2F60binGjeqDQDDP/z+yTFTxM1Lur+w+tvh4rs/dUtwXREQ4/vedEPHi/HyhYe6JVwiFwDPjZk0/oX7wxUsIDhA5cTSD13TIkdFBPttzP+anF0XM/S8oU39m6W9dvLMv/vcFhBqbfknTzeqd1p2Tk6tzk/tTpZG0JETf3nmnqsB4JZn3xd32jWuM/HlBwHgto7NK7Z7ODk9CwDuHDT+lzGPXdX2Qj7vQqzwix9m3zRAehS0O/f0Tm0uAIA7Bmhe++2Ld3e+7CIA+OXPJe0fk2pv+9Do5JkjA7sZCoX6jf8FL78aeOcNHVsCwAMD3n37h4UF0pRHUaPYUNsVG/VnhRJxGHcJwk+y8hFT06P4oo/0gGSjkyDZ3pQ/bbIIjrJDAah5mtH6XQZizXiSlCo/Ai4nax0uFax5UtFMxoALTqya46Z2zK4KJ0sSENg4IkJHlMAMKmHSRNPuF1E/QarkNI9FQMPAJVn5vyAitk2uwFQnJSJEbRaPpIWM7/LMrJQ8QTrEic0UQB0swADQEJl/9zlpiqEHuNEpeYG5TMFkLYxa47lRWPXYkMTSgaEPK7o0kNho6ueg2aOheVB5qdKsHXrSmQYfMEO5pF2ytZG+K3dVQS+BxLrQ71JnoutLhmwbNcm0/NYPzvkvg1ajvKxfJXtMx229fjwVAFLSMm965p2vXvqv5KNoMezzP0Ti4343i8SlTeoN/fx3kd6xO+nkapULUs/1bRtffO5/CsOUkiVtpa/0vlYkhvbo8PBb00Q6aX9K5Url3VIJJePXTn5ReW/B8ElzRGJQdx2U4M7r2ghqCwBJB1IqVywPAILXzvl7xTNvfrNh38EcEgt2yfodgdQ2WUlYtXwZwWsB4PE7OiG1XbPn4OH1GUDw2g1bdr44dvIv/26l/3FYvnXf4dYWiN0/jkAHAwAQvHbNhq1D3pn6+8ptecQr45fZy1xqO7znlY3qnQYAJeLjZ7/7ZN1u/cX9Cd/9Kagtvrif3ngUS910eZOxU+YAwPotu6wKN23dhby2UtmEn99+SqRn/btZJErHx17VTvLgy1udjwVTMrJS0zPLlSnl9nHdZk02mtWpJngtAIx8uruntsUFxYbaPj7yK5GoVyUDAMJNsgCgN3cwLiNjiTz6e74134EuzmlVgaSZMgkSkcrYUcL0DO4AtxBZcRQYqH3VSioxfYq50OQoTPk1iIdMUQNNaik95Wrip3Mu04Y68sGUY34MB0AUokkJZWjhoHmUedvaGod5wvBai5JQNeS/+OBKbGr4I8sKbtVLEvjEkoiHu6LUUAmGo091k4HQMQ6ZfBYHkYk1p27f1jO7BI5RZpzSYfbTUqjL0SzgOoDyPzB+ddhDg7aqwcSYFliG6JA8E3kq/U07TUf8fdKMRgbxO7HDlKjfBZC9nPJlcZBeFFpXhlGdGbJQng8Q8RXf13T/R/9UmLu9LABMmrl43Hdz7uqcz8ajqMWQd7/B9Ogvf3vzq98BICtbH5q1cNmaa9q3KEhViWVKJQZxjgLi+5kLMN33ja/hja+tDAPfmTKq7x1uwbWf92dB6/Xnx09/fnyAG8OO3fsFtR0x7tsn3v4uUJiU1ADvzBVrN2O6SV29b8lqPTPrUKmEkoHVBuLHPxZf3++dzNyj5dzywZM3Ul4LANP+WNz5ibcDMwf62HTtpI3KdWpVj4thwli+YmcyAPw+dxk+jb+4t1t8016D7u9PPlj/poF4uearwe53jyb1a1Kt3tjqrC/+XC7S23fta1CnptvKwpXaG/vZ+6/FdIkS8SclltpzMNMt4hFtKDbU9vdF0nu9VytxNqA7tVlMhWyx1/ldLiv+nzmTZ4BVyLyWzngmPQVy1K8N5XbLZYNMMS45iXKrV9ReS7+U4hm4HEN6OcGSsCn8UVumV3DiihHCqBiFocAIJNIlGKhYi2VZrJS+C+RrFhciXNQWxGjDTCCRQ84Vhjo77Tuihs+vEVRS8xwdZk06evCwK59gkahFkbBUF1YgOBwFAJJGWspi5gqL6tjtEsMugBwlegFEXooatEyZV3Xd5vvGGAuSSdKCHH9FTjQEg2CSJ9T6S9x39IADkOH1UH5QgZK1VNL32dIxKtFQjPp52asja2RHxuzuG8q/fFZaTiwA9Bj8YZdLzqtU/lgfSFsoePa9HzA9f51tXQOAmfOWF5Da/kc8/ta3mJ67dqeb4ecFqwILnlqj6hE09+hLH742eQ5exsfGsBiG7nOB2LZD21CbnFEtXLaU1PSCU9v5S9d0IiwzLjYmNibm0H8+j5ei+kkV6eWif9ZRXhsfGxNzmC2WLVUiOV1732Zk2HvgIoBzXvmKJ/Dy84HdK1cMcOyukFiaXlavoq31WYeC3aCTyFa8alUq0UfF3WXoxEHxoLa5eaFMNQrb1CHrNmu6ZMycyGi+IAsKzp8mU0g/FNPxvYYix0/3ripdIqTKcmV1Q3MZI5zSEAvl4ABAjaHitmSVGMVWEl3kAcgJOe5tQmsf4OzM8a9qWM3oZBeZMoAxpS/JSRhh2lpFyPUhZNjUIkF1TVdj1uZmNhSFHSQEvCCMmuYQfdahRU16Z9E545FdU0C5YOC6g/I+VYwBrVzTUvM9BrQeSK/N8WmsDowkjZwFmlUKjwGRg9BJt8e0Vg5wyQf1xM1ZPdYCGXigyB+9qSi8HsOKYlKOysnwQ7rIAN1kORl0bogvo29WmqPYdpA25K8MTN+bgNdAF4A00EbQeks7Srg6PCys6rX61JHym3W1Tk9k/jE6rrjFyZ81759883wya8VrBavt618X9hv9Vb7ZVn/zknszNzdv/bZ8tkyt3pZ0WAbRtueeXvfUANZbrWrFQ9k5yGurly+98qvBFRLL7t57oHrnvhEqrEVqmzJ/7YthslWvWinMkwB0eHi0SDAGSz7sd2790wHs2GGFi46PvonpVROeq1/nVACIb3G/MMQGIjtHs8nc3DzKay3ce+WF7k16fkSP/jr+V5dmZ97YMXjVtGtvMr3csE3HV66YGLyGrFpOs+FlK9df2Oh0vNyTnBFOYI+oQvGgtv+s24bkoMFJhwBM25SmgeIiiMHYm3KQDATMbrmczZJuMq0AACAASURBVN1cVlyEyLGc8tO/SZS5Od1JKcE0GenbFpVG0y1u6pLhQ7nyEma6Ho5sgPISZTfi+K2XkcfctFsijUbiKROWwqj921gtBLG/ALpkLSQo9RONh0xOThUX1I7VolGrUAChNGGFByzAFd8Lak6PDadt8gXb8F0x+Y/dNduqZ9RNh04QJwpDsIX3iN4LSGthwDgPKY7IDGJMeoYfF4KVzeGvbWVoKVM8/PoAlONybaLmTL93hqOX0wUMl58v6C8WGa3BIsOoynwH8o5+/cTrgAEoC7oqoZdA6AeNw9jwjDZbsP7zcrg8NgA1yubO7r724vH1ACA3L69Vz+FzP4hEjKIQrfu8gen1X/bH9MHUjMY9hot0dnZB7XkHM7PX7DyMYGEUW3fuy1Yenw9d3+qRWy7DRw+/8vl3c6W9dunqTc3Pqx9QPrjO/TPe7Rf4aO9+bWp5oWfnCollIcy3eIoGdWrpyvcmi125AJB1KFJEs8hIUUG4qlcuL3jtUUVGZtbeg5Lnde/QRPDaUCgUgdcCwHtf/vry4/KoiMUrN+L9m1ufDQAXk3Cz7S9q2I14L1iYu2T1+J+k2+sZJ1X4ZtRj4XIuXLsjLxSKjZHW1u8WysAIjMEpNaoEFrmgoX4797z8xd03yCG0Jyk5L9z3Mo8oQ/Ggtr8vlt4IFUrlxcWS77lilgn41qwIrrH13iijktZQRZpCb9EvqwFGGgHqnIq2LTWVaudDi4XQaZhkYUYZIotLMDnWwmTAKCIJshfNAZWEXLcb1OuA/lHJbZbhuiljwuEH3PyQ67Ybhs3J3JyKQXkd8mYw27VfGeFzRD16qIQVSGRlnHOmPqdTnxGdKyLd4U7Hgwk9VmesOegAliNSnAEhlS0N8bjDjLJDTdzU74YKgvWGUz8zVzHi18O0hGi31zRfcV0AzsjSTTyTgxwoBTZdeQJ7bi2SrBxiIGCQBUZqxeDSRHmMSItZxB1G35WliSD1/Cc0PyWz+7lJ45dVBoB5yzc+OGLiG4/fUuitHCXMX7oGX1r/Oy6vXevkwGx0c1Vk1KpS7vqL6h2ZMB9MnonpO69sToW5r0srpLZXP/7W3umvR66q91UXvjltAQCs23uwwwPDf3zzsRjFkBYuW3N2/TMSSsaHyHidsWjt3V0vA4A7n303XzlPq1R28/40AEjNzO732sSXHr0VADo+MAIzDO5+hAfqpqvP+oPf+OLIajhc/L5Y8sWXxwc7HCOGfzmr2Tl1briixbpNOy7uqTvb84a2AJBYTptRbx74UXJK+r03dxCXeXmhST/+eeNVlwLAgeTUFvfpSL23tT3nhTd0yNsGtU/pemWrq5o3nDZ3pbjT8b5h09/tBwC9B+uwCefWrBoXG/xtpO7pxgC+rOdL099+auPWnY3vCGde94g6FA9qO26q/OJzwalpdLO1eT6TgmKGoNxJzamaTI66OJN2RMfgpgqErHAHQKrloIkR19vBkDpSziAKqo0yqpCYcklseHv+tmd05RShqIB2qFS1UqKpZIQYxkOCXDD89Ov2JxCUUFKyBJRcB9IPJQO3VBa5LTDqtxt1qDPHkvZrsok7o2KouxwgWBcm3+OKazq7BlVtNt2K1EejkUjap4pAfsjV+9dEVQ4qpiRltCfYT7eTqkaiKlMWmhOIlukNJJN6CShvqwgCXCrJejdBi0tbF7RmIgBxgwFi/UVrtPj2obTM9RG4YL4ml8Fy+jM8GlzWxftXb5+zrcya/QkA8OaXv93c/sJW59XNt1Q04K7BH2L6EXVklIvM7Nzs7JwS5CSwcGjX/Jx2zY/wRNkXPtXUtuk5Bj/ueGljTO8rwGag0c/d/cHPizJz8gBg+qJ1sS0eoE/Xfjmwbq3qFcrq7W4Tfl08ocAOAL+89Vg9tQVq2Oe/D1NxJAQSS5V86p5rg8qFRam42MzcPAA4mHHI9UM4FMav9IhRulRCpTIJ+9OzAGDj3oMF93zo+vx4eH48vVO+VHzbZmeL9A/D7xcewyEOPV+b1PO1STSnoLZXPmScQPHC57OMPO0ad72y1SeD76nYXppyf1m2yRVv3qf9Iwj5Vp9rHxglt0XOWLoxtkXxDl1yAqJ4+EQvW79dJF7ouC2Iu7gXyrNQmV6c2Ytccg6gDxTlnBnbVCX11LfIpK6IgDQGyZDy8gh7ediBXU5EM0XuqeIOxWAeTrgblVXNz9IpQpMSXb/D5wAAdNR5Ga+Lq/nfArcKOpdMtaLZIS4SwhTBml3ykD8UYdFVUjKYn7S0aSGqTZoCBpLRNIDYrCfvSD8OZr0QUll+PeQ6wfSlCFlgiwX607nQr3r/HI/lkDVxFTMOFCuN0DEqiC4jY3UxptXlgpy6JdrVA8Kom0k+y0DtJGOmvrizfHTXGrRmXDpQ7RuknSn5OJGSGTUy5oZB1m+QG91m5CZEVGQhY+m9a2LVF6lLeg4/Zu3+F2RmHVqhAkvVOaVyhfJlI2Tete8I3QwKBXFxhiln1bot4XIKMMY2TRkS7unXP84GgJIlS9zVoan1qGRsTEJcPnNr3dNPnvvW/8I93fnDy/Hxh2d4mj6qj3vztErSDlpwk3nB8d3wnu5N/LX8sHhjAes5MHM0pjte2njInZeFy5lyMA0AcgvQlwqJZXd+OzTc03WfP18y4hLrvls7NiWRKwTiYmDQ/7XNt2mPaEAxsNrm5ulx3LSWFUhFzunKTAQA0uFPPHZMVtoIxwBAnI4Ajs3PNiMR0kCCWHIdKotRyx6gdx/d2QIAZKc8KHsVNyZReR8kP5G2WTKdA2U8JLt7jW4NSAPMmT0MfTEfMEXpOCljRaKgMjhE07HvOU2YlQR6MjE0JDo8Khxl5oD607fsvpudosyGjic7vxLVZnSBAlh168/tgTFfHSidmPZ1LhYpmh4zbESPb1MEcC5BjFuuIsYBnlLrFgVu9AHU4EViLAe+WvTgr8CIpaVHickZ6fDGdMCQIl9ZRKAJ6lNuKZ4IrXSnNU6XOLI1510KlR47UitQIg5WPbCq3hixhxVO6fzUlqlD0U0wOvHwkHEt68sPuJNeCTghrEPj2mnqE3l60GFUhYif/1iEwvS4qrmb4b3Hun7wnfwG+NPc5Q3q1mpwckUs4uKkyhWz/3xz5MSfR038dev+NHGzRvlSXS9reu3lzcTlB4N7tm7y273DP8/JCwFAj44Xjnn6jpueGL03OQ0AcjPD7vpv1qTBvh+HP/3GpHHfz8sJcQA4KbHUE3d0/N+t7a0YWxEkRFzctMEfb/S59fkPtu1PA4A2Z5/22bBeH387a/LMRQBQuVzpCGVjYhg2UaeGEQahXJkEfFSudAJ91KLpWTNHP9TtqbH7MrIB4MoL6r77fI8hb09eokxRLjZOHvL259OHffYbAMTFsD5dWw/t09UKefZ0rxvv6np5/7e/GffDfPTcvaThqVdc2ljQ/UanVS0RH3afZT0lf/WTKmX+MXrA2G9envCr+O9uYsm4R2+97Nl7u1D1li1TCjuI2zcZYws/HTBu8u+9X/kiMycXAO5o32Tsc3fNXbyq5fzV4Zr2iB4w29e0YAhNbRHT5lNIrF3oArkY993sHoM/AoAYxg+9PF9NT/gtMmAmVtATKwAAcIAY8kFUTsYOlYOUrNgq/eVC/MCgheVKcoxEa7VEP5KqPT06F7ZKIiGInGridygQgCGudjzQeWQhbnNV3SvGCz4lW+SfOoxSdhijHDa4yQws8kfei3U/sDl9R70oI0tA7/KBVUOEoaHIPqfF5PLFfHWW4sOAMFWjxeA4cE4hvCOjuWGAN6Mb+bRu/QX3kpsiGe3T4FkScYNlhPPc55aYDeH6UVePBx9Qd3JL9EAhwVa0A26sktRbYviyuGnbJ662AHodZuwbVBTcqvhYc9lAjJpf+X/T5Zmr17Y+b/LLvYpWHg+P/4Lnx04d/IE8LGPj5CGnnxy8ecvDo0AI5Ya+uwSqXhTTIvgwOYGotgcIfDB1tki0PzNF81C9FUju0wKgExNTsxqyTC63aAMAV1bWILbC7PmNcWFcFR9YgZnGHK6sTZoQocmHcwacAddb1BnghKxz0qlVTNsyhoLeGWR2Tk/eqASUmudnarKeElaHbaPhTDOBkFPQ0ZOsT4nEA4lgOKpKFghGd5jWmVsd3sPmlB6N3XaEmhqtE/VJyRnZsa+FZJg/AuwoBMoOQV69q0BDGwxAukyrfYsyPhsYqeDWnTQuT7ilPiNWnC0SGWlug/KOcp9gkuIyJRvVNukhc55Y45mbikbJgVNRSXlqQ1b/BSBvEbT7jXIlwpdA/CMMGQKuig59LkpqcYr8PPXN70vf++bPopXHw8PDo3ihGFDblZtk9O+rz9pPKKKGZorEG1L5AkgvQm7M4poH0QCkTHFhk8RoDz/JOXUIAlAeh0ydDIU82AirxMgEbxIIZTbCnki7mgo6i3lAEWvSfzyNTE7iHALcGG1YpimTtLEYypKNPFaaO38NuCyBslWQm9i12FYRt0aHaQXYHTWnJERTC6wHj6Dv4v1LMYRUwXF8bU5MBXBJpVSe3QXqJENLMkABGADDGBfWOAz0T3WaUEs8LovoRQsGgSMc0WB5uJ7SlNhsjatMjOGBaiLqsrGQCRMxCy9dtTEwWiWHpTH8HYHcOad/7Q4rZYTI6jehlkpMZQocWlGH3+9YX7W03Pdz79CP9x5ILVp5PDw8PIoRop3apmZkJaVIA8YVZ6aG4UxqJuPK4Cm2siiLqjsLcogJZsdiBjS4jLF7hlbI0YilbLpoMdJsNKBPButhGJVIz9lMT/MiCyG/ir5gxTTsrtXNoGyUTaIZmypQX4LxiN7gZoUMnI4GlaK2OMNwZjFptzazYtOAh/llGf2tnbpRU1ajeJ/Np9HQGtCmSvEA2Sx5nGppjxg1HMq3rHgsidUlHhjrmAhSqaoYmD3gerwwZ00DWpe4ZGLkn8ECmXJKl7fpb84sSb0RSL+NmwFKZCQKrn7GOQPGtNMIPiHkW2qHLPJwuYbtRCDbUYrYGNjwoD4xq/qVT4byC5Xq4eHh4SEQ7dR2JzlK5PRKWYEWQgDTagQMdORby/ilGRlXpQRz5BgvidPvoHKvmKBCTE2aWBZk3E5AZ1wgVISTuZySHxXlQJmmtGEJN9twRThsssJoRQDGN2WDTZgkldp/LTZpnFtAJVW0wOJtLgG0dayKaw6tRBV8GomMITcLIiKmXEHE0mSkRl+U0vT7UUpQTM8mk8FgxjOymZ4DiabBzNbtjjDkdvgSpWmeKd9oRjPrWsKJpZ/KscfplwI1GLAq5igabxsndkhztvWhQwYZk0s/HE0mkTUGuUiYb0UyYNoj1KRYHyrdSo1wtdHNLMd0ZQGqNmsvHlzWRel4/tMt60U6FAo1v3tY0crj4XFkOKVS2QvrVBf/ShS3Y/Y8iimiPULC2MkyZF2sjN2DVJK40CnWwuRTRhgg3pegO2WEV6OKc6AeOwYlEYMW5P4opuxWuA9MORGYBAJMpkMOmQBJJ9Umd8J5ML8uyjkjpzU5dNPmY3SyJx9mddD6YOmMpPXXaics01K5uRkxQoObjYLuTrgaceMPU29Zk1HK2g1+rw6l0KpWLE1Vp8cNC9s61RNt0Ow+50Tbripor/XuPs71+cxOlx0FG4KYXSfjRt813yvnTj0cz1jWfQMMcIetWJRaE1lCZ8nA1k1bNFrc4tKFGFk0Qw90rv17uBIPX7P2KSeu3wbzp511RlTEZUHU4/La6Tc32v/ZikoAsGDFpodGTBxdfM5x8PAQuK9bu/u6tStqKTxOLES71faNL2eKxONtduKEzjmXpELb5uSkGGjk4qDcUilpA+By2w5X7A9rCqhBZZVGO9cMJvgASCOfcg0UMzenU7zmKqommw0zHRKMGAXzMT8pgoLKoKSG02wW2yE2NZeLhteJ2TTyWtU0B6cuRkQxOSU3/3KjMiIApwyXCG/wfrIDD0xFmGZIU6HOikapnGuizJwsZu+kALKo9ifWr5lxYMbxCAFggWlcp3DGjNEgNaAqpKFp6VcExsj5tlz+WCTXZyISMzdrJGLQNwOqZnzr1uhAdqmfKtux3IWpfrbyUwiuO+TPRy9fyJoG/6dJtdFC/roslvj0um1nV5WHC7zx5W9/r9xctPJ4eHh4RD+i3WqbrYIzP9Z6l94/Lu1wmpIGms5AW4JAOg6oWJicM9tqpQ22PLFkXs5LC+g0LqgsU7MvtuVYh9CIpqZbdMjVLMNiDgyUqwPDbqjnxswcmV9q8dEw6TJLS3bMqWTNh8u6CgYaqiEoGzOzgmEVpysNg8LStJXDzKUZnXmpb9n81ZCUZLdCrGlu7UpkXGrRRe+Y2lBotumsm4hBNex7IpFcQQ0PbmqKyZ8CjnS7SfJK9eEdXEbMUmOT2mvJ2Ml7dimA/Za47qyta+wAWl6V3V05CGEwWtVBQ2LSlCK4SH1p5C6tzIib1o4TzOuxtuywc8QP54LuLx745bUKEWOUenh4eJzgiGqr7dqtezBdJj4XqZiyZRp0gRFLkpi9QW+vBgaMSQ4mTKLkKygAEOORrICEXeCaEICyVzHVouH5gC2qnd2qFAeUC+mBimgAejtXOHNZBGhyYG6TCiaXWEqRWspl7bbcgoTuGfldesGCOsNsXhvQC7fOIBXY0rrcOky/rWtqdUROBVbX6IrBFg9N/sJAqwkfAyAjyj36DXjAPSUkcZA1z9Mz2layW2pVL4AREqx4JmcqxodcEzLsAMb0YEYrLu1mJG0oiCzMqAWYkm4Mvkd/Ccik3cHBjDdkPT2M6M3FGglxsPt/y/GywY39jywYuYeHh8cJgqimtl/++rdIVC+bXSJOTppkPjPIgTREAW4IoxB7bDjSEKQwclrljHPOOWecK6KAljdJLRRpFmRUcVM8zImjGyETlinCLWLMQLayGgboqKDIR+QJS3NKRkgByM+62mBJKYdFP3Rr+YHaN5Hkq9q0xRAUraRN0IKEKVqUGyJfug9w8xmJW0ql5WAMCddrmsqAakQJ5SOLI+u3Ql8iunVykHE5VEQxZaAM80WAvgarh7hQY5xztWbScQNM8Z0+4ZA2jpuVmxHtN0mUxOVfPXocvdExxEkaW+eqp1zuEVRRmcVeNO1TDsYAktsk3ZPAgDRCfnm6NbsXxz0qlw69erk84Wn3/oOdHhkdOb+Hh4fHiYyodkj46S9pq2h6ajqoKRzNQfRMJeDaaqbsRJJ/WK6WckMLl6Hm1YYuPftygMwc9uxPNYHYm9CSRT+LqlKczLvADd7DYxmMuHKbmvmV1NQOyCH/SVpTSWte54Rv0Et1kxP3Wcquw3JofIZ2NiAndpETMDTJoBpw+RsAhDMoh5PDuK8u8GVaQbvchNV44IXum/HAOToMB5tgalxtZVS+LLq/0i9D3rLjWLiNMaVRo1k1IuieRNoxdeId0GO/6Duj1Vpacb7+68rp+0MuCWa1ttassUZCmYH6XVDtEZJPfmlEXseXnApCFHCi4uFmSV+tKj9nW1kA+Gnu8o+m/XXHVS2KWigPDw+PaERUU9s5/8jYN7c0ThIJnAk58li013F5m863nBTSE6yasbn+/IwEFxhATh4bNbt6oXQhLoaPuHKbtDKCeZADGH0yQViDJoL4xOFkNIPkR+ZGI25kD09uCf3hXBvUNF1ipjwWa3b6gJ1mbqsReK1elahzB9S2fqN4/nRWnx6r6mYcd9w7KrG7ppxGMaQBHnwMjFMBSGnK98PLpnrE9IkVHCVDVqgGC+Ga6OTKVeeULwvnyg+dAQh5GTffp1aLs86iOsUukHdMqKpFqElJ6YTDuPiEwmxNYBQG8dxUnw0GxhD0gBm3b6jxesMDWfEAcOeg8e2bNaxRpUJRC+Xh4eERdYhqh4TcPBmlvOu5+4HQVWX1Qc7KlHlLn42EOZiYZUWATA5cxmDSMys3bGSCxRXqfCoqtSJ86gtnUheZ8S+jD8LYLGncBSvBg1uwa6CiYhbxjV1+aTfIKYtQnBulnZotWIxcdZxSRdFlM95wPgY8FQsVz63VfVLMzRRHMD3Sd0B9Y2fEKJKUzzxuOUKXTEHVGWwyJpm2/mpey4y/DI/dpdRZNasjYjF5kJksyzkz8pMTZnX9pteELSpRllA+upbjSkcLoyg1/iRJ9VQzXPFzlVbdhAB4XmsgPha2P7wyRimtzvXPZR3KLlqRPDw8PKIQ0Wu1XbBiE6ZjGWPKVElscHKG5fakL0116jhQMdGTzdmEZCKjFQyDcQ4Mcsm5P2dWyYyNAcoZQJe2oElCRnbM5uSSwVl0JS65sjKAMoW5Zq0gQuKy23zADAVwZQhH5mIoyWjLaMFiZEGdCw+uv+UToqWqkXUxZp0gYNdhv061JZ/EVjO1GpBGpwDGtblQUl4ujar5gC5W0M5pHn2gVG12wFpcmVo0LPDUpMzFDXXaLZJ4WoNhNbUlZNg0lR9zf7myvEh2bZhCsxqjwVgnMQ4y+ppZm61wcgSax2GgZBx8f8uGjhPrAEDmoexzbxu05qsXilooDw8Pj+hC9FLbh175TCTOq5GBJIFOkWSqZIRCKC7IZHwvNf1jZoPOAiYEsWUAHLLz9IkpM3uuOqlsXphAqiphUQaAOZvLXPpOw/w7ieGwFINyOAlh8oYALIC5MFKn0V23XfV/+mhS/Hhvmdns8oo6mkLhHZuaB/aaVMRAuo/iFn0qIDJptz6L8HMqGAsqwdG0aAY5U1ZYTu3qKkSGXg7ZrqquivWgIrKp1Zg8oUDzdeXkjdRXjF5SG0fVAD7Ca4s6qna5ddfsP0DwizF+DtrTB27++nSRIe+ZpUoGe+igyRkHMZUocDXo3Qz+C9rXTr/n/H3vLakCAGu37n185JcjHu5W1EJ5eHh4RBGi1yFhwfJNIvHIpTskZwVm2s0MOsk4KOdCwVSYpir0dC9FEQwgk5IzNn3MzOekaQ7aE8DmhOHBOcmsmDF+nmW0ayyAqFgMhZuPAnkpx0umn+jiSKWQ5+E/aQCl9esSqIFgEQP7TjkZE7qWrIiz4P4GVoIJRm87HgXSMEk7bJxiAMpCrCqzSaPFnylc4kYdZK0XwdQBI8yoW1zK7/ycBOACVJUM1wVgx5XT7bqrG+c100fMkMEa2coZlnHbqGq8d72eY+rAMBUw2uolKW1J4nHEGHvVjvqV5DkOr0z4ZeuupKKVx8PDwyOqEKXUNjsnN6ToZ/Oa6cokh+RBfoQFDkx+/0R7I6cskZijkDNqogf6+DKmn5BYtZiTAVPnNilBbFNURBj0lyGrc58RhwvdIV0J5rVsuAGNgdF1WVBZCTkzq+BmInwXAJyO58foXZ6JhJ4DBASbClsPoxoQFQY1HlSdmY8TATgOHfLauV3GNU/rFCV8xG6KCWUBZqSz4hqHkQ4mq8guoEByGOujCyKtAEyZqerxL9eyEcdmozta0apaRgmxoQzdNyW/MyQKtmLxOBz8fe86TNfq8vS+5NQiFMbDw8MjqhCl1HahOk+SQah2pWxFhlQsWK5OXVC0gUkDEjBg6ixT8/wjrsmLLg0WTwlHGOlWIjMDdzM7Ndj2SC4rZNR2aNhKdSUm76US2YkAIxuT1lBO7mjjW2B/yd4eEo7Uso+a7QbVoJtjUgP0ZoDG8qE+THFRFim35ZWM5E1FeVMb+GXvwtRiyed2HUcRkKM2aNPuu0JnBEZa5noEMCS6kmhyAC4tp1y5JqihbgS7pUMjnAxWTuS12NuAnwIAtcczlJ0sCUHplircTHgcLZSK4xsfXIGrl7NuHlCk4nh4eHhEEaKU2v4yf6VIVCubGxsj/WaByX3fMjAtISfW3KwP+gJJHDiZ8xmGspfzPeVLDvEyaio4uJ1GQ6PmiyYTs3G4RIFYUyWhdKNZUZNfeGaHIttBCYDpHIGtg1SnVDURidJAs6lIlYHkcdQnGcKqjNFHTPedRLiip8RJcWwp3MpJN5gzlgCU4dNheJQ9GndohehuYB1eoN+T2/GIQ5bQZXXfciNRfZejQdldmW4QgkzpWo1MlzY77F55HDXUKp876gp5jsOeA2ltHxhRtPJ4eHh4RAmilNp+/ONckbjkjFQ9qRsesprHcPOaa1ojT4niyuxnkjy53cxgIspgZgsUdr5G3oaiWPG5IhQ2KSY9Ywz/6f4FSSNEdQsaFBaLBJpLFYwWw2QwSXqQMKAstfjPemXq43xQxygzZUZfgGy6cqmjuEdWAvL0Yn2+AwO7JJChEJHpm53jei+YbMpcgjDzniDkTjeFgphcOKjoCK7xFcc7FdIyzYZTJiefJUQr8kMGOTCEoV+52hJGuLg1GvTItm7md8fjKKLXBfuvrHNQpH9btPbj7+cWrTweHh4e0YAopbbrtu4Viecv286UVYsa2AwioqZdNfGrjUkY+FZO8mjDYsoCxyQHsGdkZ4Y2blAWxXXU/HBl9U3FSSh1tjhcYDuBtXHQMU8ZGFJpHhiRsAWaQPOJ6WvZkpW/qGTzlgNxsADcSqm/nOvP29wuSU2OxoJEMVQuC0nqxwyqyANEwXv2gkm9Dbp4ctx8Ma0+I+jaLKqslxq6EU7CMVjSOgsCTqUyYXFcHN8g1mzSO5xYrGVCWWnx04cawAzLO0sjdELA1QdpjUrkcUwx5aZN8TEyWuEdA8ft2e+dbj08PE50RCO1PZSdg+kG1Q6JUPFIWtASxjlO0qAJhG161N91xTXXnpfimhkTev5QkQSEBHQqN2yWYD5AAuaQ2ggIR5K1fZRLF1KLPgXIYNVg+ldy67GARdGY6juxKPJAGgRu6/ZShNMyDP+o4LU0BhYVg5EKALcSEoOpEk9VAib/c8DtPGhlZdrsqRZCKLMWhhk1cNzvKGoW5zvgsQtCWhWNVhFhNZqoooJYuExQwy2n+UngDbEWlDKJRSGj1XJJZ5WaOfbSsA4bBFv9SOzwXp7MFi1iGBx4/F8cQXVveDYnJ7doRfLw8PAoWkQjtR07eZZI8Rq03gAAIABJREFUxMWEAPkEl9vPgetYrBini4Z0UtAkg5hLRVWKQTm2QVUwAkwmEkwiTXKNrAATdhbarvM3wIzKCMOhdyJKbTQatvmAklZZNPBpTpk/jE17zDLvSs8BZjBMmdHgzjo8mdgexjkwcZyDpvtmQQjzkiUnxnis4ibWYJpROflHusH1Kku2LSNhMc6UmVOpUNmAraUQV+sxS4/Ya3qHvnWsUH8w0BsngQFgx9QBfVx3UYlN1wAWYXWtto5EHtGCUvEw9aaNIp2akVXrmn48IBC0h4eHx4mCaKS2H3z7p0h0aXSAmpUk92HaPKVMbJrZYigikFSD0igQZeSZpHhpgLm3tJkTT+piFvewbH+mjTL4tgtkf4q6gdo/xRWH5oESsoCUllxxvvwotfHEOvcBxTBYkNFapM6RphlXB8JyfdYxI711y4Hca6UOVFaLBKzK3fPksnGLmikSy/UhtjoMBgPTHK1CtTG0UzLFJEnaWF5pbkuGZiDdMEQKuo8t6hOmQfvm6NPJlKbQJC+Jrfq5iHtkexlt2RrAHsUMV9ZNe6rFHpHetf/gU29+XbTyeHh4eBQhopHabty+TySuaZQMOOuqo7KYvBLgimEgpWA2R0ITWyQ6G45goF2WmH6Bkfq5vol/uVkNp1WBSVqsttCKadEMUa286xxDQCrgpB6DTwdTFqYfUSIL8hgscGUgabMekxkHmDqNLqq6MLKwu0oQ70UaazmaZnVGtd4JEsiB7BPQhQqAOS4Ax49OUx1g2DnNJKV0qhs6VIJDZHF9QVc6LMJgIQrh6pZaWHHleMM44BHUWk4hjvLawbYYGL0jnfYo/hjSblfDKvIch+Ef/zx/+cailcfDw8OjqBB11PbAwfSDGYdEum3tVK7ZjArXJekJAHGmBADNXuhu+gIZodROMu4wHV0FbYqbxMOIBQuUaGuYtjUs6OZC7qGODXZkcEhkcIKQ/wBJ1EPuSCI9iVlQ2bAIUjNaByPkZUAs4dLQKV8fNUeKEzPCCuM+sDQljaaUJCqixzjNCHT9IZ0epBGXKSGxPmyMMYxspp5rzk39aI2DorVsdGzZTB3PgFCjmxpsGRhHk6k+AaMDhmkbLR4VRmSINDw8ihEYwJJ71+Jl8x4vJadlFKE8Hh4eHkWFuKIWwMaGHfswfXJiDnrYMi62vTBCGwAA1G4Yac1EA6AdcimYVJiHiqkwTLjjGABKxDpEVtMewjlprjCfnvVjICZLkWZ4zq2bDcz7lMmThNs/Wo9xSeRWn/oBGPkIT7MxbNXmpCSXYQwkqwrOkCtSHWIGrvMxEa2LqSJmFNwgLsbtJwYY4bIcdG/EfWa9IySn+gJfKtOFkNvSU7fQlgvEfIs1BwU7o5q13jqoEa1VgARd9kUtevQJFNqqy9ya9OvQsZwLSGCHtt1ZsIweUYG4GFhx36pGY+uLwdKg2/O7fvDBbj08PE44RJ3V9u2v/xCJWH0AriSr5ABddTgqeqBSmsMD+Q63k5yEydcsiwHw+FidNz4GHFOaU3sEAirTXOdEMyUo/12g5Esb5ex2rW6qBAvusmHoNTuuZOBq+xPHlplZkFlF8RY3H3A0Dhp+r0xxWyoc9tEy6yqbpmTazBaelA9+wygeFyxPN6usrGrbITkOVxA+9VEfiI1Wrxg4D1AH5wZpN9+J1iP+dftDVzfYKxrLFi205qLCWsdgVzAKAiN3AlYUBTfMPtlyr/hX4BIeRYz6VbLf6iTPcdi9P7Vdr1f9ljIPD48TDVFHbcd/N0ckBl+xDYCSE66okrg+rP9eIzu0dlPxIFtp0NRPgoOGJ1Y2gTPTaG5W1mctF7bIwK2bkiNMEDF1fmakTLcIs4/kq7ZTMpD56KMWUHPkuC9DcHMNwcE2oBN7J543oSmnMis6Gg6muoTgMUINOYB2tlCym8U11SODQH8TYJrUMmmYNmNFYHwy5JL0FVnSYV66XkGzMBBzK8MxwoFx4kyApN2Mb8etFuQ9rFg3Alpej+MZPZvsv+bMFJGe+ffqT36YV7TyeHh4eBxjRJ1DQm6edAZ45OJdmgZIExZXdqiCTM9qsufmvG/nAdPQFshryV9aeRh27VRhmmlFXdKIGJFVu1xJ3g/Tujb9EnKIPrucaV2QqALGp3inKapEjmdguK2qIGyuupmItcYMfiUOTbaINYleFdw5y1xpkX7VewbEnIqKwJZMtod2TenJIsLCyXUHV3HbXAcGMIIaW2JTLciaVB3MKuCowIyVLKNScOJ7wEhkCV2QjBV0UzZbMFMexzUmd9tcYfhZqdmxAHDHwHHNzz6jXq1qRS3UMUJKWsa85ZtE+oL6NStVKFek4uSDn+etEImqFco1rl/zqLa1fO2Wr6bPn79s3dn1aj7RvXOVyuXp0/krNiWnSufsDs0aHVVJPDyONqKL2i5btx3TscLaxhQXAsjPVmvSQPTVZEC4WyCLJTbdMCbLAF5rP9B12izIaJ0ZNjpXfh5UvWF6A4MZOYzLrIRLxoi81lkYkNOllKaIDFyTYhnGlRxlEKgkZojHOWe6y6oGbT6klbjGTqNm0wEAWZuyhgpDrcFrqUaIXkCNCZmWpFmoihk6AdNSG07UcJSRKl1ZpBlnHJ15UVQdb1aKRMy4nC5lGBmm1hiW/fD81QMAtvZZUWHE2WKEnHProKw/3yxqiY4RVm/efUWfkSI94/XebVucW7TyRAaKes2l500Z3uvoNdT4xueWbJbh4b5fvLFN43qd2l1EMzw+8qtZS+Q2RD5v7NGTxMPjGCC6HBI+/VF+O6tV/lCswVAY4bXM5BIk2it3mAgHFb3LmvFNusoJn+NgU88AXku5BQn7qg/rcjuHMgRxD05KuRQvmNCTZrhzj5PqOJU5LOThr5YMTBlZQZpnHVmYalbphJsvi5zFQNcBQcZt+Vc/4fKt4hMSkFi2ywghdypkpCkmpQmKPSEsy1iLyKqiItPXxlDCQJ0a97lWnKTOIn6H+aK5JQn2TdbHURwwfGcDG/fwkChXkn9/80aRPpSTe3qXfkUrjwcA7NufUiTt3vH0W8hrBc6oVb1IJClE5ObmvfjulPgW97Nm97Fm9/21aFVRS+QRRYguq+2MhXJ0tjwtjdy2rKaWSZPL77iYOYAIcoOf6GpJfSRBN15UGNz4sLoQhDBcVj4K5q0FhbSlgjbHBlfJgtvjxE5puSaI7IbJ0BAbt9uDsAxL26M6TpY84ygbNeoGRn6lTxnNzEB+licGZVCSmyrgRDwgngBchjgQUWGREkut2R7BTgwMlM611KquW7eUHhgDZbxmio4rBwgmd0tqdVi1ADXyo807zPeFQkZOnkzQjZUexQVX1Enr13LP0DknAcDmXfufe3vK4Pu7FLVQJyJ+n7esy1PvpmRmQ1EYRHNycj/+dQledjinVrOzTitRIv4Yi1GIyAuFxnw8rc+Y74paEI/oRRRRW875otVbRPqm85LoEzMf+T91iiiAolvycQyA8Nllzl9ioA1DLDNzjuZMbnxG5shTiGOApkBOGZKgeqAHB9sb4zSM7qLOdJXczqNFdPsA5BO5PsJLEUzCxwLfXvBLsJPa8qvs8RzfuSMpUxZepUAgBFeGQBC7xBg5/AG5JqcKCWNjZ06Cvhgrs9QwB/1eJMWl3xaQAjOqL0JejWh3SqSwr7hwkfCS/Jib98yyY9CcR6FjcJtdE1eU35RcEgBeGPf9pU3qtb/Iu1Eea7z+8U+C1xYJMrJ007d3uODjwfcWlSSFhdKtemfnhfLP53ECI4qobV6Ih0KSrFz38ZlFK0xhITfE4p5vUtRSeHj8J8QOiWqHRY8ComOfUUnTX61QrnRRC+Jx7LBi3RZMd+90YRFKUlhoeGrlpZv3AkCVcgn7UrOKWhyPaEQUUds/Fq0pahE8PDw8jluEOK91Tb+DM0cepfrnLVnd57Uvt+1JTknPTD+UW6VcqUvOOu3rkf87Ss0dLnJycu58+u1fl27Yk5JRsUzJkyqX/+u9JyuW1yEUGnR7TiRGPdK1w8XnXfnAywvX7UxKzahROfHV3tfceOUlboVN7nhx174DB1KzTq6S+PZjN158YaNmdw0VT1d9OTg3N+/sWwZs333AaqLNWTXfHtDTlfCi2wet3rY3xPkZNSrPHdevdKmEyD3KzDrUuc/rK7bs3pOcUaZkXNWK5d545IZObS6gzWUSq+3dL01MKDnpgjrVP3mpd+Sav/t1Xq/XJm3bl5KYUOKMU6rMeufJsmVK0QxjJ/ww4qs/D6SkJaVllUsoUbl8mWdvv+zuG9tb9RxISW157/A9SSn707IqlytVMbHMa727dL7M2ME2cNRn7/+8aF9yWmxMTNVK5T597v9aNI30baFF43ortifNf/+pkvGxjW59IXJHPE5MRBG1fXDExKIWwcPDw+N4RmpG1tWPvfntK/kwmyPALc+M/eyXRfTOvtTMyXNXVWjz0N7pr8XHF/Fcs3TlxvO7v4SXB9IPHUjfU6nD458+d/utnSVnXb1F7rVatHz99X3fSc/OFZfb9x28aeAnKzfu7t+7K9awfvPOujcOwMute1Ou6vvuoLuuwEqsOunlmVXLWuJt3rE3ptl96GL1z8ZdZdo8nPTTiAjBy0Z8MPWJsdPwMjUrJ3Xn/iufeve0yp+t/HpIqYSSbuubdycDQLUyJcLVKfDw0A9HfSMDzKdkZi9Zt6Ncu0c2Thp0+qkyhFyD659evV07DaZmZadmZd/zylevfPXH8s8HMeVd9fkPc24e8CFmS0rNTErNfPPrP5DapmdkVuvwWDo69UNe2s79LXuNvP2yxh+/eH848V5/7Na3+t0JACvXb43cEY8TFlFEbf+dOKCoRZAIhUKbdsrf7ek1qsTE+L3nHiciNmyX55DVPqVq0UriEf0IR8JSMrM/nfp79xsuK3hV47+b02Pwh/lmCxV4S1bywTTKayluG/zJ9e2bJZQ02F6/939ycw74aPoTPToLS2puXt6ZNw1w8zw/LqBgQbB03Q73Zo9B4755tU9g/kk//El5LcXmpNTanZ/c+cuR2+aR11I0vv2FA7+NFukLz6lLqS1i5eY973/+8z03XyEuKa9FXNNKezed2vkpwms1Pvl1cffZiy+7OHgPd8nivAfO49ggiqht9DDImJjYujVPKmopPDyKGP5X4FFwdGneoOsl57S+6GzxX/JtO/fVvPYZ8eihkV8fFrWF/xo4xsatfd8SicTSJff+/GqJ+DgAqNT2oQMZ2QBwS9+3Jr/2sFWkctmEr4bck8f55Y/okMBfTF/Q/ZpLAGDIO1PUxhA4o2ri3A+fSSxT6sZ+b387ZwWtJDY2ZtWEZ3u9MH7Gim3izqoJzwKAxaQFel17ce+urT/6cf6wT34Rd6bMXh7YndzcvP97UX/k/Pv9J5qcXTc9I7Nyh8cP5eQCwK7UrL/+XtGiaaNVE55dvHLjLYM/FTlH9OzUuU3TfMMjxDCYOqxni/PqzV689pq+74ibyZnZi1dubNzwDAAYeHena1o2vKF9s5iYGABIz8gq21Yq8N7XvhbU9qc//sYKt0998eRqlQFg3aYdFcuXkcr8cU5y+iGR3vHtizVOqgwALbsP+WvlFgC4bdDHu3767+GJPE5QRBG19fDw8PAopuhwSRMAyDqUvXNv8j9rtoRIJMG0Q7mHVVWFcqXOqn1yIcr2w9/rROKXkb1LKNeIu7pc8urEXwFgzr8b3SLzx/etXbMGAMx669FLHnhV3PxHHSo0YLy0zjKAhZ8+X6l8OQCY+trDrNl9tBLGWP06NRPLaJfZ+nWCjxw75/ST3ux3BwC8VO+0qb8vWbl1X4Tu/LtuW6Zylril7blNzq4LAGVKl/r7/SfPvuNFcf/xMVNmv9+ofp2a+w+mY8FTqlUKJwDFe491vap1UwC4um3Twfd2fu5dGWar/6gvpr71FADUrlWjdq0aoVBoT1LynuT0dZsCTM7rt+zC9OhPfhjw0E0lS8TXPV2/1pv6S5tu58ZnCF4LAKMfu+mCe4YDwO7k9INpGYll/ZZHjyOBp7YeHh4eHv8V+/antO316r8bd7mPbmpxeBFvrm3d+NrWhWax27Fb08TbB36E6aSD8lzZPQczs7NzLFum4LUA0PCMGnhz1979VuUVy5WqVL4QzvKteYr+QlLv9JMjU9ufZmmf5ls7NMP0WfVPw/TWnQEOAwXEXd30brD/3doeqe23izbg/YFvfDlk4oyc3LBBuLrfcFnv0VNF+qUvZr30xax259f5ftQjJR2L9cKNu+vfIA38OTl6FbQnKdlTW48jg6e2Hh4eHh7/CV//PPeG58aFe3rr1XZsgWOJf1ZtwvSabZEoYyBYxLOr4+IKJwh6XKyuJ9865/+zHtN1wngNbU1KLRTBypS2ozRwzpvcNmjJ+gBLLUXpUglD7u70zPs/4J0ZS9YnXPrQ96/06tTqPJpzV3LGruQMtwYMBurhcbjw1NbDw8PD48ixeftuymu3TX2xaqXyn303686XPhN3Wl1weOdEzFuyesLUP/LNNvL5Ap0+UDF8kAFEbOwRnjnP3aPHjz7q1qoG89aKdFJyMIU9pZIdhKGwsGj5OuS1Z9aosGjioJLxcTf979Wv56+zcj7d89qbO7Wo0/V5evOqx8YUcP9f6VIlC0VgjxMQntp6RAsGvvHFgI9/xctjfyKlh4fHEeDp0ZMwnTrjdREA9aeFOk556YR8ok1ZWLktadS0hflmKyC1Pbf+6Zj+bWTv1s0L8/yRpJT0tIyssqUTACAvL2Czv4WcnNz/HgetZZOG8OWfIv3tX8tbXXiWSKdn6PMLalSpcMT1L1y65oLzpA/JdzP1i3iw84UA0OWxMXhnxaQXY2NjIbxtu3bNanze2M3bdl/96Bv/bN4DABxgz74DJ1WpqLvT4NTZHz53xNJ6eLg4wqWqh4eHh4cHAEyYuVQkEkuVEN+vsw5lT1AxbmMZCwwIEAFxsTFlE+Lz/VfA2hISSmL0ncseeXPbLu2EyjlPTc88LNkEul0s7dAhDq3veuFgWkZ6Rlbbe4Pji9Un3rpf/PhXdk5uds7h7auzcGnTBph++dNfsw5lA0AoxE/p/BTef/r2wwtJQXFJ79eTD6YBwMG0jKv7vov3n7jnWgDYTpwHhMk6Ly80SVmRKfYdSBVW7dNOrTZpmN5gd+BgKgA0qyOj5M5ZtW367KW0oOiRh8cRw1ttPTw8PDwKAQczsy+6c0j5cqVnLFyNN886vdrh1nN7p+a3d2peiIK99+TNPYZ9BgB5HGp2efrUyuUqly8TCvEtuw+kZGYfwQeiV5+87csucufTok17y18W6cS1lk0bwhezRPr2Fz65/YVPbrq4wWevHvkhbRXLl2177hkzl8nADoltH251Xp3NO/alpEurbcVS8ddd0fKI68/KyavY/rEKpUskZ2iKeUrlxJrVKwPALa0aTvxzpbh5xtV9z6lfa/4/G9xKFv+7rsndw0+rWr7uadXj4+NmLdZW/Pq1awHAhGG96nTtL+50eHRMuYT42idXBoD9Kelbk1K3TR1ySrUqR9wFjxMc3mrr4eHh4XHk6NFRn+y6cPXWXxeupv6n1SqXP/YiWbjr+rZtzq+Dl9uSUpdu2PXPpt0pmdkAICyUh4VTq1f55oW7rJuVypUKzHz5RWfFmb68GVn/1So5492+Z1SX3/Rz8kIzF63dsEse5xsfG/PvZwOPuObmZ8r4XJTXAsA/E58XXgfjhuqj7LYlHfxhzr9JqRlVyurdZrl5eQAw6vMZALB5b8qvC1f/+Nfy9Kwc8fSeK+VRZLVrVh/T51oslZqVs3TDrqUbdokNcNNm5O+R4uERDp7aenh4eHgcOd5+rge9LB0fu3vaMLwsUyaY8B1jzBz75PfDgn1z9+1POYIKu7Rvvvv7YefXrCQuH+h0wY7vhwfmLF06YfH4vkfQRGSs/frFoT06WDdvufSstN9Hn1y98uHWlpEpLb4XnVtv09eD6aOEEnEpv75WUcU4K1kifulH/WiGSxvVXPjRM3iZnJIGAJ2aN3Rb+XJQ93f7342XD9zWae0XAwLliRyYwsMjMtiRbfAMTW0R0+ZTSKxd6AJ5nLAI3EZ2ICX17cl/rt+yMzsn59y6NW/r1LzGSZWKTkYPD49gJB9M27p9b53Ta4ijaKMZu/cdAICEkiXKlytTiNXm5OSWaCUtmtUTS+2c/vqxaXd/8sHtu5KqV61YtfKRbx1zkXQgZdfe5Nq1qpdKCI5UsDcp+UBK2pm1T41cj+h1+XJlIrtci2wxjBVuLzyON4RyQ99dAlUvimkR6Shp72vrEaXgnHd64OWfFhMvrp8XPTFmStNaled+NpiGgfTw8ChyVEgsWyHxaAWcKlxUI9vzjxhzF62sX6dmxfKyy6FQ6Ipe2mr7Uu9r3SKF0q6LShUSK1VILPRqK1csX7liJGeSqpUrFISGFrDXR0k5HicmPLX1iFLUv/7ptTvss38A4O8tSad0emL3z68ee5E8PDw8BO4Y9NHanftjY1iTeqfEMLZwzbY8csRAtytaFKFsHh4nOLyvrUeUIpDXCuxJSW90XeH7rnl4eHgUEFv3HQSAvBBfsHrbvFVbKa997/Fu/rgBD48ihKe2HlGNwd3bL5/Y/4+3/nf2ycaXr5U7DvyzelMRCeXh4XFCIxTijU8L2KoVHxuz+rP+d3e7/NiL5OHhgfAOCR5RioT42B3TXlaubCf/M3nYmIk/935dn3vUb9SX3735RFGJ5+HhccIiJobN+XQQAGzftW/H7iQAKBEfd1b90/0eAA+PaICnth5Rit9GPYRbNAR63dJh6syFPy3dLC6nLbSPLPfw8PA4ljilepVTqvuTBTw8ogveIcEjStGsSUBYxEEP3njsJfHw8PDw8PAoLvDU1qM4oW6twz6008PDw8PDw+PEgae2HsUJoVCoqEXw8PDw8PDwiF54autRnLB8/faiFsHDw8PDw8MjeuGprUeUYtov89ybvYd+dOwl8fDw8PDw8Cgu8NTWI0px3fPjt+7YR+/0HfXF8u0H8PK2tucec6E8PDw8PDw8oho++JdHlCInL1TrumeublrnvpsuP5CS9n9DPrUyDOx1fZEI5uHh4eHh4RG18NTWI6rx7d/rv/17vXv/4von16lV49jL4+Hh4eHh4RHN8A4JHlGKpmeeGu5RrZMq/PlR/2MpjIeHh4eHh0exgKe2HlGKBR89+9wtrd37PS47d+OUocdeHg8PDw8PD4/oB+OcH0Gx0NQWMW0+hcTahS6QxwmL1LSMzEPZeHlS5QoAkJ2TM/3PJTOXbszJyW119ulXt7sgoWSJopPRw8PDw8PDo4gQyg19dwlUvSimxcgIubyvrUe0oFzZ0uXKlrZuloiPv6rthVe1vbBIRPLw8PDw8PAoXvAOCR4eHh4eHh4eHscJPLX18PDw8PDw8PA4TuCprYeHh4eHh4eHx3ECT209PDw8PDw8PDyOE3hq6+Hh4eHh4eHhcZzAU1sPDw8PDw8PD4/jBJ7aenh4eHh4eHh4HCfw1NbDw8PDw8PDw+M4gae2Hh4eHh4eHh4exwk8tfXw8PDw8PDw8DhO4A/a9fDw8PDwOP6xdOWGf9dsqVurerPGDYpaFg+PowhPbT08PDw8CgHVLuuzJ+2QSPN5Y4tEhvnLNzbr8ZJIz3i9d9sW5xaJGAUEa3afSFxz6XlThvc6eg2N+3pmj2Gf4eX3Q+/u1O4imuHS+0bMWrJWpIvq3Xl4FBY8tfXw8PDwKAQgr/WIKoyZ8GPvkZPpnZOqVCgqYQoFM+YseWrstOSD6anpmRUTy1x+Xu0RT/5fyZLxRS2XR7TAU1sPDw8PD4+jhb37k2f+vfab6XP/v737jq/pfOA4/twkNzuRTSRGqBArNjFjVo2itaotMUpRVVqUFjVqq1GlqmoVHWpX1aYEtVWsxhaERGSvO35/nJtzb25uIhKV/k4/71f/eM5znvOc5yZer35z7vM8Z/3BCy/+gahOpxu5aIt86ONi7+3m7FbM+QUP43nZsvdE53HfmtZEx6dcvvNo0fbjGz/v36VVvdwuxH8K0RYAUFj3o2Pl8vvt6xThSP5tBk5YtvlEZFHdPTk1PV2rk8otapTbu3RMUY3kuRg058fcTr32yfLoGhV8vNxf5Hjw78QOCQCAwjrxlzG99erUrAhHAlMXrt6Sy+93+7//vZz8bowQwtpKNbZ3m52zB80c2sVRbS2f7TH6q6IbGv5FeGoLACisbccvy+XqFcsmJKWs2rRv2pq9FX3dpo98o0H1CiqVqgiHJ4TQ6/W37j2asXTj0t/PvFbvpQHdW7VpGGxtbXy+8/vhs1KhemApXx/PKzeiZi/bsu7QhY97hn4Q1sHV2TFnh+eu3lqwcvvG8MtjezV/7612drY2+45HSGdfblxDp9PtDj//IC7J7BbuLo71ggNzjnDX4bMzvt2aoROjw17pEFrbyuopz550Ot2FyDsrNuxZvvNM7QCfPp0bd20T4uzkYHq7S9fuyoe37sf+fvisi5Ndw5pBefeclJy6eN3Oiat2N61UcuJ7XRtUDzQbTFx80p6j5zfuOv7Dkcuhlfy6tqn7Zsembq5OZv1otboDf0Ys+3HXj0evvtWkcseWddo1rWU6QiHEo9j45Rv2rP7tz2JO9u+81rRn+8aO9na5Dczf13twp4aLx/WRDl9uKgZ0aujZZpR0eCDiTt6fC/8RKr1eX4DLdFtDrELXCtdyz31AAID/Oy0Gzth/7oZUnvx2ywlr9pqerRFQ4swPk17AMPLYIaFsxzG3Hj4xbWxtpbqxcUopX2/pUN6v4OuRr6/7/eShCOPzTmuV6tSKMcFBAaaXB7w65ma0sUMbK9XJFWNq9DHcXX98qUajVTeysO9Bx9rlti4eY3rHNvWDLkXevRObaBytj9uNbTPz+KSXIm/X7TszOUNjVj+ofb2vJ/Q3+0Smmgb5H1w53rzSZIeE3fPEdPELAAAgAElEQVSGvjzyK51JNCjt43bLZDBN+07946KFEDm8a7P5o3rJh3fuPQp4fbxWly1j1HnJ98Taz+TD1gNn7jl33ayfHyeFdW8bkrP/3Jh+TLZ3UDidRre9ifCuZxWyII9WPLUFABTWsYjbctks1wohzt548NOvh7q3b5qfrv78K3L9jvCnNps3pnc+x5aZqXEKHZap0ZnVa3X60p0/1YQvMX12K4R494tfzFvq9TXCZmSGL7axthZC6PR6l2bDUtIzTdtodHo51z6rXccvmdXcfPjkwznr5n7Uy2L7e9Gxld/83OKppb/+aWtnu3DM2wUbiRCi9Qjzr/VvP3xStceECz9Olg49PNyEsBBtF2w4OODVhlUrlpUOS3f51ELnIdXkct1eE09ee5CzTY+JK5vXDfL2/P/exgFFiGgLACisVI3W9HDT1L5qtU2HMcvkmkFfbMxntL146+H8jUee2iz/0fbz5VulXGutEjc3T/Mr7vEkIdmjzYfS2U8XrJ8+8s2cV73ZJChTq/8p3DjR4tDxiBYNqwshvv813DTX/jZnUClfr6o5sqZKJRYO6bh08+GIe3FSzcIhHYUQJbyLWRzn7Hfajlq2Uz6cv+FQbtG2dh/jvT7p0WTsu12v3XkQ3Hu6VPPlxsNTh7zm6uK0cEjH61EP5285LtW/HVq1buUAL/enb4/QrXHlwd1bTF6y6cClKKkm4mZ0VPRjv+IeQoixb7Z8+CDml/nD3V2drK2tLl2LCu49TWpWq+/MjPAlQojjZ4w/t01T+7YLrZ2erlm//VCzupWlygtXb8u5duecQa0b1UhNy3BuPlyqadBvxrUt+fo74bTJJO/+bWrm5xIoHsvIAADPjbuTXeaRxZ1bN2gfWufyOuNzu/SMzDyu+kdNWvG7VFj4Xif/Ep4qlcq9mHP/DvWlyh8PnM95ybqJvb+f88GP80Z881E3uXL3qatS4cN5P8mV59eMa9ukVpWXSj/6bZZZJ9bW1sP6dKjg5ynXDOvTYVifDt3aNTFr6eXqoAlf/NGALprwJR7O9lKlLpfpgjfuPnwQlyyVawYUnzryLSdH++oVyy7/sKvcpvfE5dLtur/SUK5s1yR4WJ8Ob7waarFbWbemVX+aO7x5/Wr7V07o2byGXP/Fd4ZNxOrXCgpf+5mvt7u9na3axsbXy5jUM7N2Ywg/c0Wu9HZ3sVWrXZwdBvZ8uWL5UlJl1zGLpUKAt8vLTWpZWVk5OdrvmG2YWnD9QVx6er7+wbQbuUguzxhp+S8B/Nfw1BYAUCjnLl6Ty5PD2trYGBatyznmmYR1aBjWoeHT2+WPVmuch6ASYsn3O6Tyg6x5tzein2i1Wmtra9Or3mjXSCp0aVl34JyfpfLtew+lQkxSmlQo5mRfLbCMVPbysPwsNj+qv+QvDcDa2qp2UJndJ67k0Xjn4TNy+f0ereRyv+6t+8/dIJVPX75tflm+/TR7mFye80H3H/YbVtd9sfnY3LF9pfLDmCfVek1+GJ+cWyftQ2uPXGr4UTceulAIcWblx8GVysqrCa9kPcluElRK/qU8fBwv9/AoLt6/hFce49Tr9Y3enhSdkCod9mxa1cvdNb8fEopGtAUAFMqqjfvl8hsdG1lso7axtlj/Tzt25qJcHvLlFotttFqdWbSV5b1NgZ3t8/l/qLPJ9gsuObZiMHMsa72XEKJO5dIW25iuSCsMvxKeOSs/XvDTzHXm06nNBJbzb1y59OGLxoRdM2xGKU+XU2vGe3tm+xtg9aGLqw9dzNGBSEl9ysvtBn627Ojf96VyOR/X9SaJHP9xRFsAQKEs2H5SLnu6G4NLbFyCXPbzzO8TtfjE5PsP457arFJ5//z0lpaP77ULvC9ZwbYYKiSdzvgc2vSZtClX+3/qrbOxcQlyrnW0tRnVrWnnlnU+nv/j7+dvmbX8Y8UnL783b9cJ46TbO7GJlbtPeLQ3r7Xtsjz+qNDr9cM+X/HtzlPSobOdzdXNBVzAB0Ui2gIACkUvLCe8flNWyeVNs97NZ2+bDp7ra3JhrjfN3zZPNYKMm1ReWf9pcW+PnG3U6gIGwYSk1IJdWBjN61f9/qBh99y9ZyKDK1vYhbN08YK/lCsuPsk96028Z0ymmrxSM0AI0fNDYzC9u32GezEXIYSzg63Frn5fNCIlNW3D78f6TF8v1chzOWSjuzQYN7R7zmtdsm9/a6px7ynhVw3r20p7ukRumZHbQ3f8N7GMDABQcBqNxvTZZUTW669O/hW59cgFqexip65YLl8PWZ87T5MpsA0GznVysCvm4mT237P2Wa64YV+qdI3us68M01tnLd9qsbGbq3GCwZkI8z1cC6B1Q+NmvZ8v3y6X353ynVxu06Bygftv0Geq/GA4bPJquX7sgE5CiD0RxndASLlWCHHsSlRuvTk62PfuHHpq+UdyzaXIW0IIL2fDexlmbzqWkaHJ+UvJ7antayMWyLm2ZvkS17bNVKt5SIds+AcBACi467ezbU1a9e1pZd0db8almFZumv5O/jt8vsvIhBBDX23w1dZjQoi4xFR1o6F9Qqs0q10pPSPzu23hJ27GFGCT/+8n9Wv47hdSedLq3ZNW786jcdO6VVbuNWzCUKvfTCHE8M4h88eGPetNZaV8vUp7u95+lCCEeJyc7tly+LHlo5f9tHfp9uNym7kj3yhw/1fvx1mHDK5fvvjxa9FypUqIhjUDhRDlPZ2vxRrer9Zn7OJvJr3TdugXUU9SzDq5/zC2ZMdxQ9rW+njw6x7FnHtNXCGfCnqpjBBi06zBTYbMF0LohfBpN7q6n/sHPVsIIY6cubJ83wXtsa+tckwT0ev1Xq1HPE40Pik/c+2BumG2l2JEbZ1WsriF+cH4TyHaAgAK7njWUiF7tXVaplYIYZZrx7/VsmWj4CIYWZa5o95atuNERtbOu6sORKw6ECGfzczUPOtjv5CaFd9qEfz9vnP5adyuSbCYsd605vqd6Nwa59PZtRM82hiegz5OSgvsMdn07M65gwvcs5+7U1RcshDCNNcKIX6b8670pf++bz8uk/UuhtX7zq3e957Ffr77Zb8QYvHO04t3njatr1zaRyo0rh3Utma5nWcMj7HPR8X1m2t8U8b2vcdfbdXArM/E5FTTXAvkhgkJAICC2/+nISZWCSgx/LXGpqcc1NbrPu01eZiFmZQvkp2tOv3I4mZVy1o8e8zk5QL5t2b6kM/7veyUtUNCCXfn86s+ttiyuJf7u+3rF+AWeXAv5vL497llfczf1+Xl6nhp3acvN65h8ao8pKUZtiNo17jax92ybbtrpVJtnzXo5SaGtyGULun9Tsdsb8F1dbC9uNa4gXHM43iRyxSFiqV9In6eIh/+9vWYj3o0szieH3adtFgP5IeqYAs8dVtDrELXClcLs9cBAP8d96JjMzK1Qgg3V0c3V+eo6NgjZ67GPkloUDOoWnk/mxe751d6Rqa8u4KPZzFHBzvTs4lJKZFRMVdvRAkhXJwdqgSU9PV2t7U1rCG7efeh3LKsv+HholarvXM/Vio7Otj6ZH/7q16vT0pJs1KpnBzthRCq+oOMp7LPc4iJS9h7PEK6b92gAGkDLPmOpj0/jI2X972Sh5Gb+w8f/xlx/eLftysE+NWrUs6/hJeVVbbv8VPT0qNjDJvFerq75LY2697DxxkZGml4nm4usXEJh05fibx5r36NwJDgCmob86faDx7FHTl7NepBbPMG1YICSqpUqjv3Y6RTvj7udrZqIUR8YnLk3ZjIW/eEECW83auW9/N0c8l568xMzZVbDyIi7wghbKytqpT39y/u4WxpnFqd7s69mLx/IP4lPGxyjBbKodPotjcR3vWsQvLaZ4NoCwDAs4l5HO/h5mK61Gn+6h0jvjLsmzu2R9Npll7eC6BQ8hdt+eMGAIBn0++Tr389c93F0W7BkI5qa+vBCzcnpBhfMTAirEMRjg34jyPaAgDwbPZdvKvTi/jk9LDZG8xO9WhazbsQL90FUEgsIwMA4BlkZGTodZZfAzamZ+gPsy1vGgDgxeCpLQAAz8DW1jb5j68uXbt75Ozf0ra+9vbqZvWq1q9azt7O8nu5ALwwRFsAAJ5ZUHn/oPJF84o1AHlgQgIAAAAUgmgLAAAAhSDaAgAAQCGItgAAAFAIoi0AAAAUgmgLAAAAhSDaAgAAQCGItgAAAFAIoi0AAAAUgmgLAAAAhSDaAgAAQCGItgAAAFAIoi0AAAAUgmgLAAAAhSDaAgAAQCGItgAAAFAIoi0AAAAUgmgLAAAAhSDaAgAAQCGItgAAAFAIoi0AAAAUgmgLAAAAhSDaAgAAQCFsinoAAAAlCOk14di1aKmcemihvZ3dix/DnxE36vebIZX3zR/aPKR64fs8E3Hty58P+Pp4fD6kSwEuV9UfJBUGtKi2bPp7hR9PAew6ci5s0sr78SnSYcbhr9Tq/P7fXx6/EEJ/fOnzH9x/mEajHf3lhtS0tE/7dvAr4ZlHS61WZ9NwsFTu0rT6xtlDX8gA/18RbQEAz4Gca4UQRZJr/wnxicm1+s2SyjqtZvqwbkU7ngJYt+3Qm1PXmtbkP9fiH9Wg77RTV+8KIb7eHM6fDc8RExIAALAsISlFLoefvvJP306n0x04dr7DiC9jnyQ8lw41Wm3f6evz2fjClRtDp63ac/jMc7n1M7lz79HouevGLPzpxd+6CD2IeVLUQ1Am/nQDABRWUnKqXO4RUrEIR/J8+Xi6OdjapGZohBDvdm3+j95r8vLtE7/ZJpW1Wt1z6fP6neiMrK5CKvqHrx6fW0t54kGrWi89l1vnk06nsw7J+qq92XOYQPJ/5JVG1b7ddlQIUcLDpajHoihEWwBAYZ29eE0uh70WWnQDec7sbNVxe+fffvDYzdne26NYUQ/nma3fdlAur5zUrwhHgpyWfRo2YUDHtAxNgJ9XUY9FUYi2AIDC2nz4glxuXKeyEOKvyzcOnb9RraxPozqVra2KbPLb9dv3D57+28/TpWGtSs5ODhbbRD2IOX/l9uWoxyFB/g1qVjI9pdPpEpNT3F3shRBJKanOjtl6SEvPOHrmyqXbj5pUD6hWKUCn0z2OT5ROeblbzsHxCUl7jl3I1Oha1q/s7ekm3+VxfGJKaprc7PGTRCsrVR79SJ7EJ534K/Kv24+qlfauEVRW7lASExd/MfKefJiZmRkTF+9gZ+uU/VPExMWbHiYkpUg1Hm6uViqV2R31en34qUsnI+81qlKmTrUKFkel1+vPXbp+9u8oN0f7KhX8K5Qtmdv4ExKT0zIy5MOMjEzp1tKnjotP1Op0Qgg7tdrF2TElNX3HwdPe7i7N6leV2icmp1yKvHs9KuZJclpwed96wYHW1tYWP5qTg72DvZ1Goz1+9srxq1E1yvo0rV/VJntj2f3o2At/37l4J6ZeRb+6wYGmzeQhWWT2y9JotCfOXT17/b6fh0ulcr6BAf5m7ePiEx3sbBzsbJ4kJJldq9frT/0VeejCzcr+ns3qVbFVq3O7KXIi2gIACiviWpRcVmVfVi+EiNk529Pd9QUPSafT+7ceHpVgzIt75w9pERJs2iZTo7VtNMTswl+m9n2tdQOp/CQh2bvtaKk8qlfLWcO7y82GTF6+5Nc/5cNidjaRW2fIjS2uCho48dtlO0/Ih2Ft666YNEAIkZSSJl8oCeo1VQhhp7ZOO7zY4qdLS8twbv6+Vqc3rXSzVz/cM19eJWbWZ9W3pwshJvdvN35gJ9N6s2ZhszeI2RuEEMkHFjo6ZFsOGHnrXoXuk0xrNOFLrK2z/d2y+4/TbT7K9tnVVqqYXXNdXZxyfor3ZqxZs8c4tffXo5ekwUg/va4jF+67cFsI8XHXhl1eDqn/zlwhRM0An9M/VD0dEVm73+ycHY57o9nU4W+oshK5/NHGdWvcqHal9h9/a9r42NIR9Wtk+0tGo9GWaDU8NjXTtPL7cT3f7GSYiyIPySL5l67X67u8P3fLn3+bNTi7ckxwUDn5sMnA2RE3o82uFUKcjYismf3TbZveP7ebIieWkQEACuvslbty2bn5cLOzrQfPyX9XD2Piwk9efOp/T+2n45ilprlWCNHyg8W3oh7KhympacWav5/zwtc/XbFi08Gc9aaaDZhummuFEPHpmoCOH+dxyQ+HL5nmWiHEyp0n1m4+kPeNLHoY+8Sh2TCzXCuEeJKW6dDkvWu3HxSgz/wwy7VCCPfmw0wP53y72SzXCiEydfoSbUdlZmoKfN+V+/5q8u4805qEpFSLLaetPzhj6S/yYVkvwxzWL7YcM8u1QogGg+advXRDPoyLT3IJfd8s1woh3pr2wzcb9uV/tBqNtmz7j3LmWiFEjbCZS3/ck/flF67crJkjtXccuzz/AwDRFgBQWA8SUkwPy/q42Zo8zDtzIzrHFbnacexSo6ELnvrfU/tJzdRaW6nKFs/2Hf1Hc9bJZafQ4dL6sGIOtieWfXhn85Tyxd2lU/1mrBO5+/P834f+uikfVgkoUaOCvxAiKSOv9CadLefrYW3yLf97CzcKIVQqVXlfD3dn4zyBMj5u5X09Akp45OxHp9NV6fmZfFi9XIlt0/pVLOUjHWr1+pe6TZTK5X09nO2M381Kfbo5m8/KKO/rUd7XeKPixRylmhyTEYQQwtfd2dPF2ENiuuZipOEp5v2HsaOW/SaVO9YLjN01+/fZA6UPm6rRthk2P2dv3m7O5Uxu7WinNh2Mr7fhO/oHjxMzsq+rC61fzVqlqlHB79fp/a/9PPGLQe3lU+NW7NZlzRmQf/tpGRohhKezfbXyvqb/MmuGzZDL9d6clJapEULY2Vgd/ur9e9umVfIz7DU7aPaPFn4W2TnZGeYM9Ju0/HZsklQu7ua0anT31xpWlpu9+8XPqWnpuXWi0+nqD5glH7o42NatXMbPk0Vmz4YJCQCA5+nBrzOKe7mnpqU7NrPwTPSFcbO3id6zwFZtc/zc1QYD50qVG8IvSYW/Lhsf1/29caq0ROziL1PsGhveqnDt1r3yZSxPEu01bplc3vR5/86t6gkhDhy/0Pz9L/Me0sPfZnl7FEtKTnVp8YFU8yQ5PSklzcXJIXLzdNMdEv5cOdYn+8RZ2dkrt2ISDM8sGwWVOrzyUyFE+xb13Fp+kJBseEq9/+i55iHBkZunh41euOpghFR5dPloXx8L7wWI3DxdmMwhWTKya5e2jSzeetwbzT//oKcQ4u2xi7/fd06q3LD/zISXSgshxiwwbN3lXcxpy8KRKpWqTdPac4ZEj/hqixDij7ORWq3ObPbC3FFvzf7QuEPCyw2CNs4yvoygWPY5DFP6tnm7YxO93vCs+sneefLk6RH9XvX28Xh7yhrp8Mq1u0EVSpsN/tX6gZvmj7CyskpMTnXN+vkLIU5fiKxV9aU79x5FPjJsuBa7e56To70QImLDVHlsu/843bpJrb3LPzHt07v1iJisP+pOrx4nFdbsOiUVHG1tbm2baWer7v16y4mLfp68xvC8tvuIeduWWH7Af/x8ZEqGViq7O6hj9i2wsrLS6/W1uo47e/exxUuQE9EWAFAot6OMD2VHdg8t7uUuhHCwtyvl6XInNvFZewvr0DCsQ8PCj2rG8G62ahshRP3gQFsb6wyN1vTs0q3hUsHT2e5JfNKT+CSzyxet/nXe+Hcs9nztUdbiJDu1lGuFEKFZa5tyU9zVQQrQzk4OPZtW+eGQIXEmJCQ7O9rn/3Mt+v43uTxr2OtSQaVS/fHV8OCwmdLh1DV7mmefVfxcSLlWCPH5e13laHsja/7Dmj1npUJYi+qRNw3L12oEGtZOafX6xORUN1cLM27zY+lH3QZ2a2Va4+zkcCbi2tcbD36z/bhZ43uPnuSMtt+M72dlZSWEcHFy2DCpT9eJq6T6tXtO16r60pzVO42XR8fmHMBny39r3aSWfKjX65v2+1zOtQuHdgwsW1II8efZy3Kb1nUC7WwNj3LHv9tFjrbbTxv/rDKzYZfxs/wya7A0YJVKdeLHqeock8KRG6ItAKBQ1m09JJc/eKOlXM4oxPTKwgs0+abbJke0PXvxulSITUoP7Dk55+Xzt5/MLdrKnByf4aVrHesY94utUbmcHG2f1Yo95+RyYDnjc+XqJuuTYuOezxsfcuNgb5vH2dmbjs7edDRnvUarzVmZT+0amyd1/5c/iHpiecbt1ftxLXNU+ngZn4K3bGjcQPdJQrIQ4ozJOkiL/x7uxyebHk77esPhi3ekcrNqZYb17iCVt+07KbcZ1DFELtvY5CtuXTIZRo2KxnSusjg7BLlgri0AoFA+Wb1XLpcqaZj0mZ6REZ31vXlotTJFMCwTOXNBWrr5aiEzXo55pTeJVUE3NXteScXVyfG59PPvVyz7496grp/IuValEr3b1Brc6SlP+k1/5jl//prMp8Ru0wvCT13+dKVxNdjuJaNztrd4l6c6c924BNCW9yEXFD84AEChyNMfTcnzPoUQVQPNvx3Ow8rt4X2nrHr6TS3trpV/ZUp6nboeLYRwc7Bd/UmvnA28cpnqaio1Ndf1QP8cFwfbxFTDXrB378eUK+MrldMzjGG9WEG/9zfrp2A61ynfr3OTnPWuuewr/KwSk1Mv34mRyq/UrbBj0UdCiGu3HyzZEp7XVUkpLs6GvwRiTR7Berg5CyHc3Zzlmq1Tw3Je7pQ1+MxMTaMhhu0aVELE7p6rNsmgVSqUkstHz0e2bV43/59LCFEv0G/ryUipHBX9ODDATyprdQV/4P0fRLQFABSKpWQrLl67I5ebVAt4caPJn0ovlRKHI4QQT1IzalUL9CthYX3VU8WnpJ84/3fd6hWEECfPW9jsqcAeJ6bktoxs1uCOg78w7G/19caDs0YY5r92G2HcgmBwh/oFvvXcn//o+WpogS8XQhy6fG9T65Cnt8vhwcO4/DT76+pNufzZAMNMgAePnzIH42TE9eZZ86FDBxl31+rerLoQIrR6wI6jhh3l6gQHWlxvJynXybgCbOv0Ae6uzqZnX23VQEw1bK+xfOepScPfkMpHThrnn1QpmetfTa+E1pKj7Qez1+1YPEoq9x1reXtjWES0BQAU3P2HxoXbw141Jqpdh4xb8Teobvm1VRaFVCnzzYjXnsvY8jD6rTbTVhpWDvl3Gjd9UIfXW9RSW1snpqSduHw7MTF5+Fuv5Hbtl8NfH7bAEC7rvTOnb5taLk4OCzcdKeSQgkt7y+WgHpNmD+mUlJL62eDXzZq92b7x0Hm/SHvazv5hf7NagU3rVNp37MK2rEgkhOjZsVmBh3Hy6t3xi352cLAbHdY+t/d1WTRnyKsfLd4qhHiclFqq7ciFo3rVCPRXCXE/Jn7HkfPjB3W2+Eot02/tj166M27hjx7FXD7q0y6PG5m+TW38tzt+nV8hKjq28aC5eQ+vxftffjO6Z40K/hO+3nInxpiD6wZXFEJ80Lvd6KW/SjUlO46bMqBd1+a17O3Uyanpp/6OSk1KGtSjjRDikwU/3M1aGVnMXj1v7a55a3fJXU0d2iWkVmVPZ/vYpDQhRNTjxFHzfxg/4NXomLjWwxfJzfZ8k+v+x11b1hk8x7DRxG+nIl95d1af15rvPnJ23R9P38gZMqItAKDgIm/dl8utGteQyzN/PiyXS/v55L/DigF+FbO+h/3nFHNxmvBm88lr90uHY5duH7t0u3y2SdUyeUTbIT1bj16yJTVrF9sVu04/lyG1CKlmejhq8RYHO3XOaOvi7DjxzeYTvzeMvMNo84kZ22cNEoUzdc0eIcSoPPNlTiPebvfx19s0Or0Q4m5c8msmW6QJIVrUCmze0MKmDSqVqn4l/+OXDa/8mL52nxAi72hbyeSfx64TV/K/dcDAWT+Y1eyab7hWbWPzxXudRi7aIh2O/3bH+G93yM1qlPGSou20dfvlyvi0TLM3kyUnpwkhDn39YZW3Ppdq5qzfP2f9ftM2rWoHFvfK9amtl0exRhX9jlwxLCbbeebazjPX8vnpIGMZGQCg4P7467pcrmayYD/nu7L+bT4b1uPjXi0snvrjwq08LrSyUsXvW1A3MFv+njmoQyHH4+Ls+EbLmvlpOWFYz2n921o89c2oHu2b1bJ4Km+75g99eqM8WVmpUg4tCvSz/FX+dzvMt+iSrZ38bG+RtbNVzxna2ayyVfBTJr2U9DR/1fP4Pq1bm2yRNuLtdp/0bm3x2rO3YvI/vMoVSh/8cpittYV89Vbr2rsXf5j38rLDqyfUqehvVjmgff2a5Urkfwz/cTy1BQAUXBlP5zGvGxan+/oY99uSK1+kEu4mg/E2Phsb0al+psZ8IY5KpZo+vMfU97rO/27rF5uPSq+wcrK3/eztlm+9Ztg8ylZtI3fYqKpxnwe12ubPNRO0Wt2pC1ftbG2Dg8oJIcaYPPeVyZcHmeT+2oF+cr3pRlrrpr079EREt4kr9Xq9SqXq17K6yMXYgV3GDuwyetbqNfvPZ2Rq7GzVo15vNKK/eeBrVqdSCS/DO73s7fLa86F1SPWUgwua9p9593GiEKKsj5u0/4PF36OtrVquN10jqFbbXNk4LepBTOdRi+9KX/qrVEEl3GYO7yp9729R+TIlUw8ubNR/5r3HCUKI8sUNA24aXN5FbQiIZlMjPuz9SvdWtZsO/iIxJd1ObbN5+jt1gwMnL1yfkpYhhCjraWHjiKgds+ev2DLzpz+0Wp27q+PJVZ+45FjWNnVo16lDuy5ctXXGT4f1Op0QwsbGekqfVm92bi41yPtfdXFvw9vsmtarmh6+5KdfDw3/altmpsbGxrpz3cD54/rY22fbLS6sZY2YJxY2fj6xevyBo+d6Tfk+I1Njb6c+uOiD8mVLfrVm+537sUII/wLNC/9PUVlc2fpUuq0hVqFrhWu5pzcFAEDpwk9fajTYsJCrf6sa334+uGjHAyFE835TD0QYljMWcksN/CvoNLrtTYR3PauQvF61zVNbAACezdBJ35y/ET31va4v+boRooEAAAWDSURBVHnr9PqjF673GP+dfHbMO52KcGzAfxzRFgCAZ7PmwIXElPTQofNznirv6/FS1l6zAF48lpEBAPAMMjI1SSmWX9ZQLaD4pQ1TeC0qUIR4agsAwDOwVdvoji8d8tnS7w9EaHU6IYRQicp+XhvnDJHfM4x/g3YNgoIDihf1KPCisYwMAAAA/3r5W0bGhAQAAAAoBNEWAAAACkG0BQAAgEIQbQEAAKAQRFsAAAAoBNEWAAAACkG0BQAAgEIQbQEAAKAQRFsAAAAoBNEWAAAACkG0BQAAgEIQbQEAAKAQRFsAAAAoBNEWAAAACmFT4Ct1B958juMAAAAACqmA0VZVbeTzHQcAAADwFPbF8z6v0uv1L2YkAAAAwD+KubYAAABQCKItAAAAFIJoCwAAAIUg2gIAAEAhiLYAAABQCKItAAAAFIJoCwAAAIUg2gIAAEAhiLYAAABQCKItAAAAFIJoCwAAAIUg2gIAAEAhiLYAAABQCKItAAAAFIJoCwAAAIUg2gIAAEAhiLYAAABQCKItAAAAFIJoCwAAAIUg2gIAAEAhiLYAAABQCKItAAAAFIJoCwAAAIUg2gIAAEAhiLYAAABQCKItAAAAFIJoCwAAAIUg2gIAAEAhiLYAAABQCKItAAAAFIJoCwAAAIUg2gIAAEAhiLYAAABQCKItAAAAFIJoCwAAAIUg2gIAAEAhiLYAAABQCKItAAAAFIJoCwAAAIUg2gIAAEAhiLYAAABQCKItAAAAFIJoCwAAAIUg2gIAAEAhiLYAAABQCKItAAAAFIJoCwAAAIUg2gIAAEAhiLYAAABQCKItAAAAFIJoCwAAAIUg2gIAAEAhiLYAAABQCKItAAAAFIJoCwAAAIUg2gIAAEAhiLYAAABQCKItAAAAFIJoCwAAAIUg2gIAAEAhiLYAAABQCKItAAAAFIJoCwAAAIUg2gIAAEAhiLYAAABQCKItAAAAFIJoCwAAAIUg2gIAAEAhiLYAAABQCKItAAAAFIJoCwAAAIUg2gIAAEAhiLYAAABQCKItAAAAFIJoCwAAAIUg2gIAAEAhiLYAAABQCKItAAAAFIJoCwAAAIUg2gIAAEAhiLYAAABQCKItAAAAFIJoCwAAAIUg2gIAAEAhiLYAAABQCKItAAAAFIJoCwAAAIUg2gIAAEAhiLYAAABQCKItAAAAFIJoCwAAAIUg2gIAAEAhiLYAAABQCKItAAAAFIJoCwAAAIUg2gIAAEAhiLYAAABQCKItAAAAFIJoCwAAAIUg2gIAAEAhiLYAAABQCKItAAAAFIJoCwAAAIUg2gIAAEAhiLYAAABQCKItAAAAFIJoCwAAAIUg2gIAAEAhiLYAAABQCKItAAAAFIJoCwAAAIUg2gIAAEAhiLYAAABQCKItAAAAFIJoCwAAAIUg2gIAAEAhiLYAAABQCKItAAAAFIJoCwAAAIUg2gIAAEAhiLYAAABQCKItAAAAFIJoCwAAAIUg2gIAAEAhiLYAAABQCKItAAAAFIJoCwAAAIUg2gIAAEAhiLYAAABQCKItAAAAFIJoCwAAAIUg2gIAAEAhiLYAAABQCKItAAAAFIJoCwAAAIUg2gIAAEAhiLYAAABQCKItAAAAFIJoCwAAAIUg2gIAAEAhiLYAAABQCKItAAAAFIJoCwAAAIUg2gIAAEAhiLYAAABQCKItAAAAFIJoCwAAAIUg2gIAAEAhiLYAAABQCKItAAAAFIJoCwAAAIUg2gIAAEAhiLYAAABQCKItAAAAFIJoCwAAAIUg2gIAAEAhiLYAAABQCKItAAAAFIJoCwAAAIUg2gIAAEAhiLYAAABQCKItAAAAFIJoCwAAAIUg2gIAAEAhiLYAAABQCKItAAAAFIJoCwAAAIX4H0zROHUJcrg6AAAAAElFTkSuQmCC;" vertex="1" parent="7">
                    <mxGeometry x="510" y="130" width="426.36" height="320" as="geometry"/>
                </mxCell>
                <mxCell id="9" value="Calculate" style="rounded=1;whiteSpace=wrap;html=1;fontSize=19;" vertex="1" parent="7">
                    <mxGeometry x="50" y="280" width="160" height="30" as="geometry"/>
                </mxCell>
                <mxCell id="10" value="The area of this trapezoid is:" style="text;html=1;align=center;verticalAlign=middle;resizable=0;points=[];autosize=1;strokeColor=none;fillColor=none;fontSize=19;" vertex="1" parent="7">
                    <mxGeometry x="10" y="230.00000000000006" width="270" height="40" as="geometry"/>
                </mxCell>
                <mxCell id="14" value="" style="rounded=0;whiteSpace=wrap;html=1;fontSize=19;" vertex="1" parent="7">
                    <mxGeometry x="100" y="140" width="120" height="20" as="geometry"/>
                </mxCell>
                <mxCell id="16" value="" style="rounded=0;whiteSpace=wrap;html=1;fontSize=19;" vertex="1" parent="7">
                    <mxGeometry x="100" y="200" width="120" height="20" as="geometry"/>
                </mxCell>
                <mxCell id="17" value="Base a:" style="text;html=1;align=center;verticalAlign=middle;resizable=0;points=[];autosize=1;strokeColor=none;fillColor=none;fontSize=19;" vertex="1" parent="7">
                    <mxGeometry x="10" y="135" width="90" height="40" as="geometry"/>
                </mxCell>
                <mxCell id="15" value="" style="rounded=0;whiteSpace=wrap;html=1;fontSize=19;" vertex="1" parent="7">
                    <mxGeometry x="100" y="170" width="120" height="20" as="geometry"/>
                </mxCell>
                <mxCell id="19" value="Base b:" style="text;html=1;align=center;verticalAlign=middle;resizable=0;points=[];autosize=1;strokeColor=none;fillColor=none;fontSize=19;" vertex="1" parent="7">
                    <mxGeometry x="10" y="160" width="90" height="40" as="geometry"/>
                </mxCell>
                <mxCell id="20" value="Height:" style="text;html=1;align=center;verticalAlign=middle;resizable=0;points=[];autosize=1;strokeColor=none;fillColor=none;fontSize=19;" vertex="1" parent="7">
                    <mxGeometry x="15" y="185" width="80" height="40" as="geometry"/>
                </mxCell>
                <mxCell id="22" value="mm" style="text;html=1;align=center;verticalAlign=middle;resizable=0;points=[];autosize=1;strokeColor=none;fillColor=none;fontSize=19;" vertex="1" parent="7">
                    <mxGeometry x="210" y="160" width="60" height="40" as="geometry"/>
                </mxCell>
                <mxCell id="23" value="mm" style="text;html=1;align=center;verticalAlign=middle;resizable=0;points=[];autosize=1;strokeColor=none;fillColor=none;fontSize=19;" vertex="1" parent="7">
                    <mxGeometry x="210" y="190" width="60" height="40" as="geometry"/>
                </mxCell>
                <mxCell id="27" value="Area of a trapezoid, with JS" style="text;html=1;align=center;verticalAlign=middle;resizable=0;points=[];autosize=1;strokeColor=none;fillColor=none;fontSize=27;" vertex="1" parent="7">
                    <mxGeometry x="318" y="40" width="360" height="50" as="geometry"/>
                </mxCell>
                <mxCell id="21" value="mm" style="text;html=1;align=center;verticalAlign=middle;resizable=0;points=[];autosize=1;strokeColor=none;fillColor=none;fontSize=19;" vertex="1" parent="1">
                    <mxGeometry x="250" y="170" width="60" height="40" as="geometry"/>
                </mxCell>
            </root>
        </mxGraphModel>
    </diagram>
</mxfile>